<svg width="105" height="90" viewBox="0 0 105 90" fill="none" xmlns="http://www.w3.org/2000/svg">
<rect x="44" y="0.648682" width="60" height="60" rx="30" fill="#FBD40E"/>
<path d="M82.6751 9H28.1101C27.5755 9 27.1311 9.44435 27.1311 9.979V18.5988C24.2879 19.4875 22.2432 22.1536 22.2432 25.2641C22.2432 29.0863 25.3536 32.1967 29.1758 32.1967C32.998 32.1967 36.1085 29.0863 36.1085 25.2641C36.1085 21.4419 32.998 18.3315 29.1758 18.3315H28.9988V10.9545H81.6095V44.9023H42.2388L45.0819 43.8365C47.394 42.9478 47.9251 40.726 47.394 39.0389C47.2169 38.5043 46.9496 38.0599 46.5955 37.7059L54.2399 26.4201C54.5072 25.9758 54.4169 25.3544 53.9726 25.0871C53.5282 24.8198 52.9068 24.91 52.6395 25.3544L44.9952 36.5503C44.2835 36.283 43.3948 36.283 42.4193 36.5503L36.9968 38.3278C35.754 35.2173 32.7303 33.0858 29.2657 33.0858C24.6451 33.0858 21 36.8177 21 41.3515V54.859C21 55.3936 21.4444 55.838 21.979 55.838H36.6427C37.1773 55.838 37.6217 55.3937 37.6217 54.859V46.6836H37.889H82.7689C83.3035 46.6836 83.7479 46.2392 83.7479 45.7046L83.7409 9.97934C83.6541 9.44473 83.2097 9 82.6751 9ZM34.2404 25.2643C34.2404 28.0207 32.0186 30.2425 29.2622 30.2425C26.5058 30.2425 24.284 28.0207 24.284 25.2643C24.284 22.5079 26.5058 20.2861 29.2622 20.2861C32.0186 20.2861 34.2404 22.5079 34.2404 25.2643ZM27.398 42.9478L32.5533 47.926C32.8206 48.1933 33.1747 48.2801 33.5323 48.1031L35.577 47.3914V53.9664L22.864 53.9699V41.3476C22.864 37.883 25.7072 34.9496 29.262 34.9496C32.1955 34.9496 34.6846 36.904 35.3927 39.7472C35.4829 40.0145 35.66 40.1915 35.837 40.3686C36.1044 40.4588 36.3717 40.5456 36.6355 40.4588L43.0335 38.4141C44.5436 37.9697 45.3456 38.9487 45.5226 39.6569C45.7899 40.4553 45.6996 41.5246 44.3666 41.9689L33.4345 46.0584L28.7237 41.5246C28.3696 41.1705 27.7447 41.1705 27.3906 41.5246C27.0434 41.9724 27.0439 42.5937 27.398 42.9478ZM77.3426 70.321C79.2103 69.0782 80.4531 66.9432 80.4531 64.5444C80.4531 60.7222 77.3426 57.6117 73.5205 57.6117C69.6983 57.6117 66.5878 60.7222 66.5878 64.5444C66.5878 66.9432 67.8306 69.0782 69.6983 70.321C66.5878 71.5637 64.189 74.4105 63.5676 77.7847C62.856 74.4069 60.5474 71.5637 57.437 70.321C59.3047 69.0782 60.5474 66.9432 60.5474 64.5444C60.5474 60.7222 57.437 57.6117 53.6148 57.6117C49.7926 57.6117 46.6821 60.7222 46.6821 64.5444C46.6821 66.9432 47.9249 69.0782 49.7926 70.321C46.6821 71.5637 44.2833 74.4105 43.662 77.7847C42.9503 74.4069 40.6418 71.5637 37.5313 70.321C39.399 69.0782 40.6418 66.9432 40.6418 64.5444C40.6418 60.7222 37.5313 57.6117 33.7091 57.6117C29.887 57.6117 26.7765 60.7222 26.7765 64.5444C26.7765 66.9432 28.0192 69.0782 29.887 70.321C26.4224 71.7443 23.843 75.1186 23.5757 79.1178C23.5757 79.3851 23.666 79.6524 23.843 79.8294C24.02 80.0065 24.2874 80.0967 24.5547 80.0967H43.0407C43.308 80.0967 43.5753 80.0065 43.7524 79.8294L43.8426 79.7392L43.9329 79.8294C44.1099 80.0065 44.3772 80.0967 44.6446 80.0967H63.1306C63.3979 80.0967 63.6652 80.0065 63.8423 79.8294L63.9325 79.7392L64.0228 79.8294C64.1998 80.0065 64.4671 80.0967 64.7344 80.0967H83.2205C83.4878 80.0967 83.7551 80.0065 83.9322 79.8294C84.1092 79.6524 84.1995 79.3851 84.1995 79.1178C83.3871 75.0318 80.8106 71.7442 77.3426 70.321ZM28.2867 64.5444C28.2867 61.7879 30.5085 59.5662 33.2649 59.5662C36.0214 59.5662 38.2431 61.7879 38.2431 64.5444C38.2431 67.3008 36.1117 69.4323 33.3552 69.5226H33.1782H33.0011C30.5086 69.4323 28.2867 67.2105 28.2867 64.5444ZM25.1763 78.1425C25.8879 74.4106 29.1755 71.5675 33.1746 71.4772H33.3517H33.5287C37.4376 71.5674 40.7287 74.4106 41.5271 78.1425H25.1763ZM48.3734 64.5444C48.3734 61.7879 50.5951 59.5662 53.3516 59.5662C56.108 59.5662 58.3298 61.7879 58.3298 64.5444C58.3298 67.3008 56.1983 69.4323 53.4419 69.5226H53.2648H53.0878C50.505 69.4323 48.3734 67.2105 48.3734 64.5444ZM45.2629 78.1425C45.9745 74.4106 49.2621 71.5675 53.2613 71.4772H53.4383H53.6154C57.5243 71.5674 60.8153 74.4106 61.6138 78.1425H45.2629ZM68.4564 64.5444C68.4564 61.7879 70.6782 59.5662 73.4346 59.5662C76.191 59.5662 78.4128 61.7879 78.4128 64.5444C78.4128 67.3008 76.2813 69.4323 73.5249 69.5226H73.3479H73.1708C70.5915 69.4323 68.4564 67.2105 68.4564 64.5444ZM65.3459 78.1425C66.0576 74.4106 69.3451 71.5675 73.3443 71.4772H73.5214H73.6984C77.6073 71.5674 80.8984 74.4106 81.6968 78.1425H65.3459ZM65.7903 14.5091C65.6132 14.3321 65.2592 14.2418 64.9918 14.3321C62.6798 14.6862 60.458 15.9325 58.9479 17.7099C57.3475 19.5776 56.5491 21.8861 56.5491 24.2849C56.5491 29.7942 61.0829 34.3282 66.5924 34.3282C68.9912 34.3282 71.3033 33.4395 73.1674 31.9294C74.9449 30.329 76.1876 28.1975 76.5452 25.8855C76.5452 25.6182 76.5453 25.3509 76.3682 25.087C76.1912 24.91 75.9238 24.7329 75.6565 24.7329L66.1482 24.7294V15.2211C66.1482 14.9538 66.0576 14.6862 65.7903 14.5091ZM74.3233 26.5973C73.3443 29.9752 70.2338 32.2837 66.5923 32.2837C62.1487 32.2837 58.5036 28.6385 58.5036 24.195C58.5036 20.6401 60.9024 17.4394 64.1899 16.4639V25.6185C64.1899 26.1531 64.6343 26.5975 65.1689 26.5975L74.3233 26.5973ZM68.3697 12.8223C68.1024 12.7321 67.7483 12.8223 67.5712 12.9994C67.3039 13.1764 67.2171 13.4437 67.2171 13.7111V22.5981C67.2171 23.1328 67.6615 23.5772 68.1961 23.5772H77.0832C77.3505 23.5772 77.6179 23.4869 77.7949 23.2231C77.972 22.9557 78.0622 22.6884 77.972 22.4246C77.0763 17.6201 73.1677 13.7113 68.3697 12.8223ZM69.1681 21.6191V14.9538C72.2786 15.9328 74.7677 18.4184 75.8335 21.6191H69.1681ZM53.8832 15.5752C53.8832 16.1098 53.4389 16.5542 52.9042 16.5542H37.6193C37.0847 16.5542 36.6403 16.1099 36.6403 15.5752C36.6403 15.0406 37.0847 14.5962 37.6193 14.5962H52.9042C53.4388 14.5997 53.8832 15.044 53.8832 15.5752ZM36.6405 19.2203C36.6405 18.6857 37.0848 18.2413 37.6195 18.2413H39.751C40.2856 18.2413 40.73 18.6857 40.73 19.2203C40.73 19.755 40.2856 20.1993 39.751 20.1993H37.6195C37.0849 20.1993 36.6405 19.8418 36.6405 19.2203ZM53.8832 19.2203C53.8832 19.755 53.4389 20.1993 52.9042 20.1993H42.8609C42.3263 20.1993 41.8819 19.755 41.8819 19.2203C41.8819 18.6857 42.3263 18.2413 42.8609 18.2413H52.9904C53.4383 18.3316 53.8832 18.6857 53.8832 19.2203ZM77.9655 37.7926C77.9655 38.3272 77.5211 38.7716 76.9865 38.7716H61.7051C61.1705 38.7716 60.7261 38.3272 60.7261 37.7926C60.7261 37.258 61.1705 36.8136 61.7051 36.8136H76.99C77.5212 36.8171 77.9655 37.2614 77.9655 37.7926ZM63.8368 40.4587C64.3714 40.4587 64.8158 40.9031 64.8158 41.4377C64.8158 41.9724 64.3714 42.4167 63.8368 42.4167H61.7053C61.1707 42.4167 60.7263 41.9724 60.7263 41.4377C60.7263 40.9031 61.1706 40.4587 61.7053 40.4587H63.8368ZM77.9655 41.4377C77.9655 41.9723 77.5211 42.4167 76.9865 42.4167H66.9467C66.4121 42.4167 65.9677 41.9724 65.9677 41.4377C65.9677 40.9031 66.4121 40.4587 66.9467 40.4587H77.0762C77.5206 40.4587 77.9655 40.9031 77.9655 41.4377Z" fill="#2D2E2E"/>
</svg>
