<svg width="105" height="90" viewBox="0 0 105 90" fill="none" xmlns="http://www.w3.org/2000/svg">
<rect x="44" y="0.648682" width="60" height="60" rx="30" fill="#FBD40E"/>
<path d="M68.7826 36.2072C68.4435 36.2072 68.1694 36.4819 68.1694 36.8204V38.0468C68.1694 38.3853 68.4435 38.6601 68.7826 38.6601C69.1218 38.6601 69.3959 38.3853 69.3959 38.0468V36.8204C69.3959 36.4819 69.1218 36.2072 68.7826 36.2072Z" fill="#2D2E2E"/>
<path d="M71.0551 45.5268L63.6966 47.7908C63.3728 47.8901 63.1913 48.2335 63.2906 48.5573C63.3722 48.821 63.6144 48.9909 63.8768 48.9909C63.9363 48.9909 63.997 48.9817 64.0571 48.9633L71.4157 46.6993C71.7395 46.5999 71.921 46.2565 71.8216 45.9328C71.7217 45.6096 71.3795 45.4256 71.0551 45.5268Z" fill="#2D2E2E"/>
<path d="M71.0551 51.1402L63.6966 53.4041C63.3728 53.5035 63.1913 53.8469 63.2906 54.1707C63.3722 54.4343 63.6144 54.6036 63.8768 54.6036C63.9363 54.6036 63.997 54.5944 64.0571 54.576L71.4157 52.312C71.7395 52.2127 71.921 51.8693 71.8216 51.5455C71.7217 51.2223 71.3795 51.039 71.0551 51.1402Z" fill="#2D2E2E"/>
<path d="M71.0551 56.7535L63.6966 59.0175C63.3728 59.1169 63.1913 59.4603 63.2906 59.784C63.3722 60.0477 63.6144 60.2176 63.8768 60.2176C63.9363 60.2176 63.997 60.2084 64.0571 60.19L71.4157 57.926C71.7395 57.8267 71.921 57.4833 71.8216 57.1595C71.7217 56.8357 71.3795 56.6517 71.0551 56.7535Z" fill="#2D2E2E"/>
<path d="M80.4336 64.415C78.6767 64.415 77.1443 65.4562 76.4851 67.0218C76.3729 66.985 76.257 66.9617 76.1411 66.9378V40.0373L81.0468 44.4525V61.9622C81.0468 62.3007 81.3209 62.5754 81.66 62.5754C81.9991 62.5754 82.2732 62.3007 82.2732 61.9622V44.179C82.2732 44.0048 82.1997 43.8393 82.0703 43.7234L75.9381 38.2044C75.7769 38.0603 75.5536 38.0113 75.3476 38.0744L60.1976 42.7355V40.377V35.4713V30.0137V25.108V19.6504V14.7447V10.0929L68.1693 18.0647V33.7543C68.1693 34.0928 68.4434 34.3676 68.7825 34.3676C69.1217 34.3676 69.3958 34.0928 69.3958 33.7543V17.8108C69.3958 17.6483 69.3314 17.4919 69.2161 17.3773L60.0179 8.17906C59.8511 8.01226 59.6027 7.95707 59.3795 8.03434L29.9453 18.459C29.7006 18.546 29.5369 18.7772 29.5369 19.0372V40.0471L14.8198 44.5757V39.7264L27.2643 35.8969C27.5881 35.7976 27.7696 35.4542 27.6703 35.1304C27.5703 34.8072 27.2275 34.6233 26.9038 34.7244L22.1783 36.179V30.0751C22.1783 29.8739 22.0796 29.6857 21.914 29.571C21.7497 29.4563 21.5387 29.43 21.3493 29.5005L16.4436 31.3401C16.205 31.4303 16.0462 31.659 16.0462 31.9147V38.0658L14.0263 38.687C13.7687 38.7661 13.5933 39.0041 13.5933 39.2733V64.4641C11.517 64.7633 9.91406 66.5496 9.91406 68.7075V72.3868C9.91406 72.7253 10.1882 73 10.5273 73H21.5651C21.9042 73 22.1783 72.7253 22.1783 72.3868V69.9339C22.1783 68.2433 20.8029 66.8679 19.1123 66.8679C18.7842 66.8679 18.4616 66.92 18.155 67.0218C17.5737 65.6414 16.3136 64.6713 14.8198 64.4604V45.8579L29.5369 41.3294V45.2343L18.932 48.4984C18.6744 48.5776 18.499 48.8155 18.499 49.0847V53.7083C18.499 53.9027 18.591 54.086 18.748 54.2013C18.8547 54.2804 18.9829 54.3215 19.1123 54.3215C19.173 54.3215 19.2331 54.3123 19.2925 54.2945L29.5369 51.1414V54.151L18.932 57.4152C18.6744 57.4937 18.499 57.7316 18.499 58.0008V62.5754C18.499 62.7698 18.591 62.9531 18.748 63.0684C18.8547 63.1475 18.9829 63.1886 19.1123 63.1886C19.173 63.1886 19.2331 63.1794 19.2925 63.1616L29.5369 60.0085V71.7736H24.6312C24.2921 71.7736 24.018 72.0483 24.018 72.3868C24.018 72.7253 24.2921 73 24.6312 73H70.009C70.3481 73 70.6222 72.7253 70.6222 72.3868C70.6222 72.0483 70.3481 71.7736 70.009 71.7736H60.1976V50.9243V46.0186V44.0189L74.9147 39.4903V66.9298C73.5172 67.2149 72.4618 68.453 72.4618 69.9339V72.3868C72.4618 72.7253 72.7359 73 73.075 73H84.1129C84.452 73 84.7261 72.7253 84.7261 72.3868V68.7075C84.7261 66.3405 82.8 64.415 80.4336 64.415ZM17.2726 32.3397L20.9519 30.9599V36.5567L17.2726 37.6887V32.3397ZM17.1898 68.0103C17.2346 68.2059 17.372 68.3672 17.5578 68.442C17.7442 68.5174 17.9539 68.4966 18.1225 68.3874C18.4169 68.1961 18.7591 68.0943 19.1123 68.0943C20.1265 68.0943 20.9519 68.9197 20.9519 69.9339V71.7736H11.1405V68.7075C11.1405 67.0169 12.5159 65.6414 14.2066 65.6414C15.6212 65.6414 16.8759 66.6379 17.1898 68.0103ZM58.9711 50.4908L37.5087 58.0897V54.4852L58.9711 46.8863V50.4908ZM58.9711 39.9435L37.5087 47.5424V43.938L58.9711 36.339V39.9435ZM58.9711 29.5802L37.5087 37.1791V33.5747L58.9711 25.9757V29.5802ZM58.9711 19.2169L37.5087 26.8158V23.2114L58.9711 15.6124V19.2169ZM19.7255 52.878V49.5372L29.5369 46.5178V49.8586L19.7255 52.878ZM19.7255 61.7451V58.4534L29.5369 55.4339V58.7256L19.7255 61.7451ZM30.7633 59.1782V54.6036V50.3111V45.6875V19.4708L58.9711 9.4803V14.3112L36.6906 22.1996C36.446 22.2866 36.2822 22.5178 36.2822 22.7778V27.6835C36.2822 27.8828 36.3785 28.0692 36.5416 28.1839C36.6465 28.2587 36.7704 28.2967 36.8955 28.2967C36.9641 28.2967 37.034 28.2851 37.1003 28.2618L58.9711 20.5181V24.6745L36.6906 32.5629C36.446 32.6499 36.2822 32.8811 36.2822 33.1411V38.0468C36.2822 38.2461 36.3785 38.4326 36.5416 38.5472C36.6465 38.622 36.7704 38.6601 36.8955 38.6601C36.9641 38.6601 37.034 38.6484 37.1003 38.6251L58.9711 30.8814V35.0378L36.6906 42.9262C36.446 43.0133 36.2822 43.2444 36.2822 43.5044V48.4101C36.2822 48.6094 36.3785 48.7959 36.5416 48.9105C36.6465 48.9847 36.7704 49.0234 36.8955 49.0234C36.9641 49.0234 37.034 49.0117 37.1003 48.9884L58.9711 41.2447V43.5658V45.5851L36.6906 53.4734C36.446 53.5605 36.2822 53.7917 36.2822 54.0517V58.9574C36.2822 59.1567 36.3785 59.3431 36.5416 59.4578C36.6465 59.5326 36.7704 59.5706 36.8955 59.5706C36.9641 59.5706 37.034 59.559 37.1003 59.5357L58.9711 51.792V71.7736H50.9994V59.2824C50.9994 59.0831 50.9031 58.8967 50.74 58.782C50.5775 58.6668 50.3702 58.6385 50.1813 58.7048L39.1435 62.6109C38.8988 62.6974 38.7351 62.9286 38.7351 63.1886V71.7736H30.7633V59.1782ZM39.9615 63.6221L44.254 62.1032V71.7736H39.9615V63.6221ZM45.4804 71.7736V61.669L49.7729 60.1501V71.7736H45.4804ZM83.4997 71.7736H73.6883V69.9339C73.6883 68.9197 74.5136 68.0943 75.5279 68.0943C75.8811 68.0943 76.2233 68.1961 76.5176 68.3874C76.6856 68.4972 76.896 68.5174 77.0824 68.442C77.2682 68.3666 77.4049 68.2059 77.4503 68.0103C77.7649 66.6379 79.0195 65.6414 80.4336 65.6414C82.1242 65.6414 83.4997 67.0169 83.4997 68.7075V71.7736Z" fill="#2D2E2E"/>
</svg>
