<svg width="80" height="81" viewBox="0 0 80 81" fill="none" xmlns="http://www.w3.org/2000/svg">
<path d="M23.1159 39.4783C23.4451 41.7659 24.2898 43.8143 25.8923 45.5246C28.2264 48.0157 31.0809 49.4784 34.4942 49.8553C36.9248 50.124 39.2832 49.8424 41.535 48.8882C44.9448 47.4424 47.1676 44.8796 48.4729 41.482C48.8168 40.5871 49.0832 39.6706 49.2413 38.6622C48.4267 38.6622 47.6495 38.6617 46.8722 38.6628C46.3448 38.6634 46.3477 38.6652 46.2187 39.1655C45.6741 41.2627 44.7589 43.1758 43.115 44.635C39.8586 47.5253 36.1013 48.0433 32.1038 46.5376C29.2031 45.4446 27.2135 43.3698 26.3925 40.3214C26.0065 38.8874 25.8786 37.4117 25.8242 35.9354C25.7099 32.8523 25.6833 29.7686 25.765 26.6831C25.81 24.984 25.8597 23.2861 26.1385 21.6046C26.4114 19.9584 26.9341 18.4092 28.0441 17.1216C30.7736 13.955 34.2633 12.8773 38.3177 13.6387C41.4664 14.2301 43.6975 16.0968 45.1348 18.9224C45.5811 19.7996 45.9049 20.7197 46.1311 21.6751C46.1737 21.8556 46.1914 22.0414 46.4572 22.0391C47.3659 22.0326 48.2746 22.0367 49.2513 22.0367C49.0418 20.9167 48.7553 19.9072 48.361 18.9295C47.1706 15.9775 45.2508 13.6587 42.3685 12.1947C40.4831 11.2376 38.4663 10.8196 36.3523 10.7849C33.2167 10.7325 30.3717 11.5827 27.8529 13.4423C25.5045 15.1761 23.8624 17.3879 23.2811 20.2947C22.9537 21.9315 22.827 23.5883 22.8046 25.2503C22.7673 27.9478 22.7684 30.6458 22.7702 33.3432C22.7726 35.3933 22.8229 37.4423 23.1159 39.4783Z" fill="#161616"/>
<path d="M1.0916 8.77713C2.07605 9.16164 3.06582 9.53321 4.05263 9.91302C5.2117 10.3587 6.36959 10.8067 7.56478 11.2682C7.40613 11.4546 7.2315 11.481 7.07877 11.5404C6.09433 11.9255 5.10515 12.2994 4.11834 12.6792C3.06226 13.0861 2.00619 13.4918 0.953674 13.9063C0.416759 14.1173 0.306061 14.3037 0.349275 14.8799C0.360522 15.0257 0.386569 15.1744 0.434518 15.3114C0.838241 16.4585 1.43909 17.495 2.27258 18.3851C2.85626 19.0083 3.18954 19.0148 3.84662 18.4892C5.52722 17.1458 7.20604 15.7994 8.88486 14.4536C8.99675 14.3637 9.13527 14.2966 9.19979 14.1579C8.06617 12.574 8.08985 11.1624 9.2655 10.0976C10.2979 9.16282 11.882 9.14342 12.9333 10.0571C13.4264 10.4851 13.7455 11.0172 13.8521 11.6609C14.0267 12.7175 13.6396 13.5735 12.799 14.2655C14.6654 15.7647 16.4686 17.2216 18.2835 18.6638C18.6671 18.9689 18.9371 18.9495 19.3497 18.655C19.529 18.5268 19.7013 18.3769 19.8404 18.207C20.5384 17.3557 21.093 16.4173 21.463 15.382C21.7809 14.4924 21.6039 14.1455 20.7159 13.8034C18.795 13.062 16.8741 12.3224 14.9555 11.5757C14.7702 11.5034 14.5559 11.4763 14.4097 11.3005C14.5092 11.2088 14.6281 11.1659 14.7489 11.1195C16.1684 10.5739 17.5874 10.0241 19.0052 9.4756C19.6628 9.22044 20.3241 8.97527 20.9746 8.706C21.5577 8.46494 21.6933 8.17862 21.5518 7.56776C21.5181 7.4243 21.4707 7.2832 21.4198 7.14445C21.0415 6.10734 20.4649 5.18722 19.7481 4.35001C19.0922 3.58393 18.7696 3.5563 17.9763 4.18656C16.3644 5.46825 14.7536 6.75112 13.1382 8.02752C12.9913 8.14393 12.8694 8.3256 12.6326 8.3209C12.6326 8.20625 12.6202 8.11277 12.6344 8.02399C12.8724 6.54828 13.1133 5.07375 13.3542 3.59922C13.4738 2.87077 13.6029 2.14409 13.7135 1.41446C13.8029 0.827119 13.6401 0.576072 13.0736 0.35207C12.7936 0.240951 12.5042 0.186272 12.204 0.182157C11.4789 0.171574 10.7537 0.16452 10.028 0.15041C9.63193 0.142766 9.25366 0.222136 8.88131 0.34619C8.23311 0.563137 8.09636 0.793018 8.20647 1.46502C8.52199 3.39521 8.84106 5.3248 9.13882 7.25792C9.19269 7.60598 9.32943 7.95638 9.24005 8.38205C9.02161 8.21978 8.84283 8.09455 8.67235 7.95991C7.08883 6.70232 5.5065 5.44356 3.92417 4.18539C3.80755 4.09308 3.69153 4.00078 3.57195 3.91317C3.26709 3.68917 2.95512 3.67859 2.64374 3.89671C2.50759 3.99196 2.36552 4.0872 2.25482 4.2089C1.40712 5.13901 0.783187 6.20493 0.402552 7.39843C0.162805 8.14981 0.352827 8.48905 1.0916 8.77713Z" fill="#FFCE09"/>
<path d="M79.9933 11.7368C79.9862 11.0166 80.0809 11.1124 79.3824 11.1118C71.1031 11.1095 62.8232 11.1101 54.544 11.1101C54.4137 11.1101 54.2829 11.1171 54.1533 11.1095C53.9656 11.0989 53.8887 11.1748 53.8905 11.3658C53.8964 12.0496 53.9005 12.7334 53.8869 13.4165C53.8816 13.6711 53.994 13.7287 54.2214 13.7229C54.6304 13.7111 55.0401 13.7199 55.4497 13.7199C58.6126 13.7199 61.7755 13.7193 64.9384 13.7205C65.4303 13.7211 65.4303 13.7246 65.4362 14.1938C65.4374 14.3049 65.4368 14.416 65.4368 14.5266V31.7106V48.95C65.4368 49.0793 65.4469 49.2092 65.435 49.338C65.4149 49.555 65.5066 49.6267 65.7215 49.6237C66.3916 49.6143 67.0612 49.6255 67.7313 49.619C68.5511 49.6114 68.4233 49.7278 68.4239 48.9053C68.4268 37.3754 68.4256 25.8454 68.4256 14.3155C68.4256 13.6488 68.3895 13.724 69.0265 13.7199C69.1011 13.7193 69.1757 13.7199 69.2497 13.7199H78.627C78.9804 13.7199 79.3344 13.707 79.6872 13.724C79.9388 13.7358 80.0039 13.63 79.9992 13.3989C79.9856 12.8457 79.9986 12.2907 79.9933 11.7368Z" fill="#161616"/>
<path d="M9.59294 48.9563C9.62254 49.4014 9.83861 49.6283 10.2962 49.6454C10.7976 49.6642 11.3008 49.6642 11.8028 49.643C12.245 49.6242 12.464 49.3838 12.4906 48.9375C12.5007 48.7717 12.493 48.6048 12.493 48.4384C12.493 37.0948 12.4942 25.7507 12.4883 14.4071C12.4877 14.0449 12.554 13.7586 12.8067 13.4594C13.5301 12.6033 13.4307 11.371 12.6315 10.5979C11.8264 9.8177 10.5425 9.77302 9.68825 10.4944C8.84943 11.2023 8.66473 12.4487 9.31531 13.3441C9.52841 13.6375 9.59531 13.9168 9.59472 14.2589C9.5888 19.986 9.59057 25.7136 9.59057 31.4413C9.59057 37.1313 9.59057 42.8219 9.59117 48.5125C9.59117 48.6612 9.58347 48.8093 9.59294 48.9563Z" fill="#161616"/>
<path d="M43.5788 64.4279C43.583 64.8094 43.5871 64.8094 43.9861 64.8141C44.0607 64.8147 44.1353 64.8094 44.2093 64.8141C44.3667 64.8241 44.4591 64.7712 44.4484 64.5978C44.4431 64.5055 44.4478 64.4126 44.4478 64.3203C44.4478 61.2336 44.4478 58.147 44.4472 55.0603C44.4472 54.931 44.4461 54.8017 44.4384 54.6729C44.4336 54.5959 44.3969 54.5453 44.3105 54.5183C43.9352 54.3983 43.5871 54.5412 43.4172 54.9034C42.8288 56.158 42.2439 57.4132 41.6567 58.6685C41.0866 59.8873 40.5154 61.106 39.9436 62.3278C39.7719 62.2149 39.7358 62.042 39.6653 61.8951C38.5696 59.6139 37.4786 57.3303 36.3864 55.0474C36.3225 54.9139 36.2645 54.777 36.1881 54.6511C36.1123 54.5259 35.6092 54.4489 35.4138 54.5212C35.2143 54.5947 35.2895 54.7687 35.2883 54.9004C35.2806 55.7688 35.2842 56.6378 35.2842 57.5061C35.2842 59.7797 35.2824 62.0532 35.2854 64.3267C35.2859 64.8394 35.1841 64.8112 35.8075 64.8147C35.8258 64.8147 35.8448 64.813 35.8631 64.8147C36.0733 64.8324 36.1757 64.7495 36.1532 64.5278C36.1402 64.3996 36.1514 64.2691 36.1514 64.1398V57.3198V56.7148C36.1887 56.7113 36.2266 56.7071 36.2645 56.7036C36.686 57.582 37.108 58.4598 37.5301 59.3375C38.1215 60.5699 38.7128 61.8027 39.3048 63.0351C39.3599 63.1485 39.383 63.322 39.5102 63.342C39.7458 63.3796 39.9927 63.3825 40.2307 63.3578C40.4307 63.3367 40.4426 63.1168 40.5095 62.9768C41.1914 61.5417 41.8627 60.1019 42.5387 58.6638C42.8489 58.0035 43.1615 57.3439 43.4735 56.6842C43.5078 56.6889 43.5421 56.6936 43.5759 56.6989V57.2204V62.9868C43.5776 63.4666 43.5741 63.9475 43.5788 64.4279Z" fill="#161616"/>
<path d="M46.7756 54.51C46.2369 54.51 46.2452 54.46 46.2487 55.0056C46.2493 55.0791 46.2487 55.1532 46.2487 55.2273V64.1438C46.2487 64.2732 46.2588 64.4031 46.247 64.5313C46.2262 64.7494 46.3198 64.8188 46.5341 64.817C47.9838 64.807 49.4359 64.857 50.8832 64.7912C52.8681 64.6994 54.0455 63.0503 53.5039 61.2195C53.26 60.3946 52.6828 59.8837 51.8529 59.5409C51.9938 59.4621 52.0737 59.4175 52.1542 59.3728C53.1096 58.8413 53.5613 57.9512 53.4204 56.8788C53.2641 55.6906 52.4727 54.8704 51.2284 54.6164C50.8833 54.5459 50.534 54.5047 50.1776 54.5071C49.0434 54.5153 47.9092 54.51 46.7756 54.51ZM52.5875 61.1795C53.0072 62.256 52.6917 63.767 50.8975 64.0392C50.1042 64.1591 49.3027 64.0845 48.5053 64.0992C48.1709 64.105 47.8358 64.0851 47.5025 64.1045C47.2213 64.1209 47.1041 64.0404 47.1148 63.7382C47.1361 63.1485 47.1213 62.5576 47.1213 61.9673C47.1219 61.3953 47.126 60.8238 47.1189 60.2517C47.116 60.0413 47.1408 59.9125 47.4114 59.9166C48.4881 59.9325 49.5673 59.8919 50.6423 59.9413C51.503 59.9807 52.2531 60.3217 52.5875 61.1795ZM50.5073 55.2614C50.7536 55.2608 50.9868 55.3219 51.2171 55.3895C52.0838 55.6447 52.5739 56.2967 52.584 57.1886C52.594 58.1128 52.1092 58.7707 51.2207 59.0465C50.9336 59.1353 50.6411 59.1752 50.3428 59.1758C49.395 59.177 48.4467 59.1694 47.4996 59.1835C47.2267 59.1876 47.0994 59.1335 47.1142 58.8231C47.1402 58.2892 47.1219 57.753 47.1219 57.218C47.1219 56.6824 47.1308 56.1474 47.1177 55.6124C47.1124 55.3725 47.1438 55.2437 47.4415 55.2496C48.4627 55.269 49.485 55.2637 50.5073 55.2614Z" fill="#161616"/>
<path d="M69.8992 57.1251C69.8607 56.011 69.2054 55.1144 68.1339 54.7393C67.6769 54.5788 67.2004 54.5065 66.7114 54.5083C65.5399 54.5136 64.3684 54.5077 63.1969 54.5106C62.5866 54.5124 62.5996 54.416 62.5996 55.1091C62.6002 58.1564 62.6002 61.2036 62.6002 64.2515C62.6002 64.3802 62.599 64.5102 62.605 64.6389C62.6073 64.6901 62.5996 64.7547 62.6677 64.7783C62.885 64.8523 63.1129 64.8323 63.3266 64.7983C63.5355 64.7653 63.4473 64.5595 63.4479 64.4296C63.4544 63.1556 63.4521 61.8809 63.4521 60.6069C63.4521 60.0595 63.4006 60.076 64.0067 60.0766C64.6579 60.0777 65.3097 60.0966 65.9591 60.0689C66.3054 60.0542 66.4894 60.1789 66.6487 60.4787C67.2999 61.701 68.0203 62.8886 68.6259 64.1327C68.9124 64.7206 69.2735 64.917 69.8726 64.8065C69.9016 64.8012 69.927 64.773 69.9862 64.7353C69.5689 63.9816 69.1515 63.2244 68.733 62.4683C68.3044 61.6934 67.8752 60.9191 67.4265 60.1089C67.7545 59.9972 68.0428 59.9208 68.3127 59.8032C69.386 59.3369 69.9436 58.3857 69.8992 57.1251ZM66.8689 59.3611C65.846 59.3716 64.8237 59.3581 63.8013 59.3705C63.5361 59.374 63.4402 59.2934 63.4485 59.0248C63.4651 58.4527 63.4538 57.8801 63.4538 57.3074C63.4538 56.7353 63.4604 56.1627 63.4509 55.5901C63.4473 55.3713 63.4858 55.2479 63.7504 55.252C64.8473 55.2661 65.9472 55.2155 67.0406 55.2785C68.482 55.3619 69.2462 56.322 68.9852 57.8307C68.8775 58.4551 68.4891 58.8948 67.8989 59.1406C67.5704 59.2764 67.2229 59.3569 66.8689 59.3611Z" fill="#161616"/>
<path d="M19.3022 58.9871C19.3158 58.6179 19.3057 58.2481 19.3057 57.8789C19.3057 56.8811 19.3069 55.8834 19.304 54.8863C19.3034 54.7634 19.3572 54.5906 19.2081 54.5412C18.9967 54.4706 18.7546 54.4677 18.548 54.5359C18.3479 54.6017 18.4385 54.8246 18.4379 54.9774C18.432 56.529 18.4344 58.0805 18.4344 59.6321C18.4338 60.3341 18.4338 61.0361 18.4338 61.7381C18.4338 62.6435 18.4326 63.5483 18.4355 64.4531C18.4361 64.5595 18.384 64.7124 18.4894 64.7624C18.7108 64.8676 18.9624 64.8353 19.1944 64.7906C19.3673 64.7583 19.3028 64.5801 19.3028 64.4625C19.3069 63.1138 19.304 61.7657 19.3069 60.4176C19.3081 60.0025 19.314 59.9966 19.7325 59.996C21.2391 59.9931 22.7457 59.9948 24.2528 59.9948C24.9288 59.9948 24.9288 59.9948 24.9288 60.668C24.9294 61.9056 24.9277 63.1438 24.9312 64.3814C24.9318 64.506 24.8655 64.6765 24.9792 64.7489C25.1905 64.8835 25.4486 64.8329 25.6783 64.7953C25.8872 64.7612 25.7955 64.5525 25.7961 64.4243C25.8014 61.2654 25.8014 58.1064 25.799 54.948C25.7984 54.5124 25.7919 54.5124 25.3823 54.5112C24.9359 54.5094 24.9354 54.5094 24.9288 54.9721C24.9271 55.1015 24.9288 55.2308 24.9288 55.3602C24.9282 56.5425 24.9247 57.7248 24.9324 58.9072C24.9336 59.1388 24.92 59.277 24.6139 59.274C22.9398 59.2587 21.2657 59.264 19.5917 59.2699C19.3768 59.2699 19.2939 59.2064 19.3022 58.9871Z" fill="#161616"/>
<path d="M56.2453 55.2579C57.4357 55.2538 58.6256 55.2561 59.8154 55.2561C60.3174 55.2561 60.8194 55.2573 61.3214 55.2549C61.4285 55.2543 61.5499 55.2779 61.6162 55.1573C61.7754 54.871 61.586 54.5112 61.2675 54.5106C59.2969 54.5077 57.3256 54.5147 55.3543 54.5036C55.0554 54.5018 54.9731 54.607 54.9767 54.8875C54.9885 55.8852 54.9814 56.8817 54.9814 57.8795C54.9814 60.0583 54.9832 62.2378 54.9779 64.4167C54.9773 64.6683 54.9962 64.8229 55.3253 64.8206C57.3155 64.8071 59.3051 64.81 61.2942 64.8188C61.557 64.82 61.6588 64.7524 61.6428 64.4778C61.6215 64.1174 61.6393 64.1151 61.2693 64.101C61.158 64.0968 61.0461 64.0998 60.9348 64.0998C59.3916 64.0998 57.8483 64.1015 56.3045 64.0986C55.8557 64.0974 55.851 64.091 55.8504 63.6383C55.8475 62.567 55.8469 61.4958 55.8504 60.4252C55.8522 60.0048 55.8581 59.9972 56.2772 59.996C57.56 59.9919 58.8434 60.0007 60.1262 59.9913C60.7413 59.9872 60.8028 60.1565 60.7419 59.2652H60.4287C59.034 59.2646 57.6399 59.267 56.2447 59.2635C55.8575 59.2623 55.8516 59.2552 55.8504 58.869C55.8469 57.7977 55.8463 56.7265 55.8504 55.6559C55.8522 55.2673 55.8587 55.2591 56.2453 55.2579Z" fill="#161616"/>
<path d="M30.5675 54.4959C30.2017 54.4712 30.0946 54.6523 29.9845 54.938C28.8864 57.7783 27.777 60.6145 26.6706 63.4519C26.4989 63.891 26.3296 64.3308 26.1426 64.8135C26.3391 64.8135 26.4688 64.8141 26.5972 64.8135C27.0684 64.8129 27.0702 64.8135 27.2324 64.3902C27.4567 63.8046 27.6894 63.2214 27.896 62.6288C27.9694 62.42 28.073 62.3377 28.2956 62.3383C29.7838 62.3454 31.2726 62.3477 32.7608 62.3366C33.0195 62.3348 33.1148 62.45 33.1906 62.667C33.361 63.155 33.554 63.6347 33.7375 64.118C34.011 64.8394 34.011 64.8394 34.8966 64.7859C34.8688 64.68 34.8581 64.6066 34.8315 64.5395C33.5706 61.3077 32.3062 58.0758 31.0482 54.8422C30.9571 54.6105 30.8387 54.5141 30.5675 54.4959ZM28.2938 61.5881C29.0385 59.6115 29.7678 57.6737 30.535 55.6365C31.3016 57.6719 32.0279 59.5997 32.7774 61.5881H28.2938Z" fill="#161616"/>
<path d="M10.8312 63.971C12.0637 65.0205 14.0213 65.2227 15.4231 64.4126C16.3773 63.8617 16.9202 63.025 17.1356 61.9538C16.385 61.8168 16.385 61.8174 16.1518 62.3965C16.1311 62.4477 16.1086 62.4988 16.0855 62.5488C15.5373 63.7417 14.2788 64.389 12.8954 64.1327C11.7582 63.9222 10.727 63.1926 10.6175 61.6381C10.5251 60.3282 10.5245 59.0171 10.6187 57.7072C10.6737 56.9388 10.9514 56.2815 11.5788 55.7847C12.9179 54.7264 15.4047 54.9086 16.1695 57.0569C16.1879 57.1087 16.1938 57.1657 16.2139 57.2169C16.2998 57.435 16.8852 57.589 17.0622 57.4362C17.096 57.4074 17.1155 57.3397 17.1102 57.2939C17.0966 57.1845 17.0699 57.0758 17.038 56.9705C16.5685 55.4578 15.3716 54.5406 13.6791 54.4354C11.9974 54.3307 9.73071 55.3314 9.71828 57.9206C9.71295 59.14 9.68039 60.3594 9.7313 61.5776C9.76978 62.5188 10.0865 63.3378 10.8312 63.971Z" fill="#161616"/>
<path d="M37.075 75.5316C37.0833 75.3146 36.9353 75.3052 36.7772 75.3058C36.2753 75.3064 35.7733 75.3087 35.2713 75.304C35.0724 75.3017 34.9599 75.354 34.9664 75.5839C34.9729 75.7873 35.0298 75.8967 35.2547 75.882C35.421 75.8714 35.5892 75.8802 35.7561 75.8802C36.4688 75.8808 36.5032 75.9202 36.3984 76.6269C36.2966 77.3148 35.7679 77.7863 35.0706 77.8122C34.3342 77.8392 33.7647 77.4506 33.6635 76.7486C33.5392 75.8896 33.5445 75.0142 33.6623 74.154C33.744 73.5532 34.1998 73.1734 34.7912 73.094C35.427 73.0082 35.9473 73.2616 36.2397 73.7995C36.4907 74.261 36.4907 74.261 37.0282 74.1964C37.0306 74.01 36.9625 73.8413 36.8903 73.6743C36.5268 72.8359 35.6448 72.3579 34.7077 72.489C33.7736 72.6201 33.0698 73.2698 32.9786 74.1758C32.8939 75.0201 32.891 75.8755 32.9792 76.7198C33.0828 77.7057 33.9003 78.3854 34.9321 78.4201C35.9177 78.4536 36.7707 77.8263 37.004 76.9103C37.1194 76.4529 37.0572 75.9913 37.075 75.5316Z" fill="#161616"/>
<path d="M0 68.5999V68.8421H79.2989C79.2906 68.7609 79.2817 68.681 79.2734 68.5999H0Z" fill="#161616"/>
<path d="M49.5994 74.8484C49.5533 75.0077 49.5136 75.1694 49.468 75.3287C49.2738 75.9989 49.0779 76.6692 48.8547 77.4347C48.7713 77.2289 48.7251 77.1301 48.6907 77.0272C48.4285 76.2394 48.1669 75.4522 47.9094 74.6626C47.8496 74.4809 47.801 74.3357 47.5477 74.3292C47.2742 74.3222 47.2025 74.4709 47.1362 74.6755C46.8805 75.4651 46.6195 76.2529 46.3614 77.0414C46.3282 77.1448 46.3241 77.2648 46.1926 77.3077C46.1098 77.2495 46.1198 77.1519 46.0956 77.0707C45.8564 76.257 45.6113 75.4451 45.387 74.6273C45.3278 74.4109 45.2307 74.3116 45.0057 74.3386C44.8974 74.3516 44.782 74.3175 44.6523 74.4145C45.0436 75.6479 45.4397 76.8938 45.8333 78.1408C45.886 78.3083 45.9902 78.3701 46.1642 78.3577C46.3318 78.3466 46.4987 78.3724 46.565 78.1531C46.6781 77.7827 46.8036 77.4159 46.9291 77.049C47.1143 76.5069 47.3044 75.9672 47.5299 75.3193C47.8673 76.3064 48.1751 77.1742 48.4569 78.0502C48.5339 78.2901 48.6529 78.3613 48.8944 78.3624C49.1448 78.363 49.1963 78.2196 49.2549 78.0308C49.5799 76.992 49.9191 75.9578 50.2411 74.9183C50.2944 74.7472 50.4033 74.582 50.3589 74.388C49.7569 74.3045 49.7563 74.3045 49.5994 74.8484Z" fill="#161616"/>
<path d="M55.5654 73.1128C56.3272 73.1269 57.0891 73.1139 57.8516 73.1198C58.0647 73.1216 58.1985 73.094 58.1991 72.8259C58.1996 72.5595 58.0659 72.5296 57.8545 72.5307C56.8695 72.5348 55.8845 72.5401 54.8994 72.5272C54.6099 72.5237 54.5105 72.6166 54.5158 72.9099C54.533 73.7583 54.5217 74.6085 54.5217 75.4574C54.5217 76.307 54.53 77.156 54.517 78.005C54.5129 78.2642 54.5869 78.3724 54.8615 78.3601C55.251 78.3424 55.6417 78.356 56.0324 78.356C56.6641 78.3554 57.2963 78.3518 57.9285 78.3571C58.1109 78.3583 58.1937 78.3048 58.1973 78.1055C58.2026 77.8762 58.1404 77.7774 57.8895 77.7815C57.1649 77.7945 56.4397 77.7863 55.7152 77.7857C55.1409 77.7851 55.1901 77.8256 55.1883 77.2947C55.1877 76.9255 55.1859 76.5563 55.1889 76.1871C55.1924 75.7167 55.1942 75.7144 55.6867 75.712C56.2817 75.7091 56.8766 75.7026 57.4709 75.7132C57.7012 75.7173 57.7474 75.6138 57.7497 75.4122C57.7521 75.1929 57.6633 75.1259 57.4532 75.1282C56.8026 75.1364 56.152 75.1235 55.5015 75.1347C55.2593 75.1388 55.1759 75.0524 55.1842 74.8137C55.1984 74.371 55.2061 73.9265 55.1818 73.4849C55.1658 73.1827 55.2842 73.1075 55.5654 73.1128Z" fill="#161616"/>
<path d="M78.4158 72.5284C78.1844 72.5307 78.0778 72.5984 78.0825 72.8459C78.0944 73.4279 78.0867 74.0112 78.0867 74.585C77.9014 74.6155 77.8392 74.4991 77.7439 74.4503C76.7986 73.9688 75.8289 74.391 75.5821 75.4163C75.4193 76.0901 75.4317 76.7733 75.6205 77.4417C75.7685 77.9656 76.1178 78.2866 76.6707 78.3889C77.1792 78.4824 77.6249 78.3613 78.034 78.0403C78.1234 78.4495 78.4093 78.3677 78.7302 78.3213C78.7302 77.1143 78.7302 75.9531 78.7296 74.7913C78.7296 74.1458 78.7225 73.4991 78.7331 72.8535C78.7379 72.6172 78.6579 72.5254 78.4158 72.5284ZM77.9937 77.2218C77.8386 77.644 77.5569 77.8586 77.1277 77.8674C76.7009 77.8762 76.3729 77.6751 76.2392 77.2589C76.0438 76.6504 76.042 76.0272 76.2433 75.4198C76.3818 75.003 76.7038 74.8125 77.1395 74.8254C77.5557 74.8378 77.8233 75.0294 77.9754 75.4275C78.008 75.5133 78.0423 75.6015 78.0518 75.6909C78.0737 75.9102 78.0819 76.1301 78.0902 76.2747C78.0748 76.6433 78.0979 76.9379 77.9937 77.2218Z" fill="#161616"/>
<path d="M64.4242 74.2793C64.1655 74.3016 63.9157 74.3828 63.7091 74.5591C63.6671 74.595 63.5771 74.6944 63.5469 74.5709C63.4439 74.1505 63.1456 74.4028 62.939 74.3504C62.9135 74.4116 62.8875 74.4451 62.8869 74.4786C62.8833 76.2694 62.8863 78.0603 62.875 79.8505C62.8732 80.118 63.0005 80.1457 63.2166 80.1498C63.4688 80.1551 63.5309 80.0393 63.5262 79.8135C63.5161 79.2426 63.5226 78.6711 63.5226 78.0197C63.6831 78.1202 63.7571 78.1714 63.8352 78.2137C64.7894 78.7311 65.7869 78.3054 66.0326 77.2566C66.1859 76.6016 66.1776 75.9361 65.9994 75.2847C65.7727 74.4516 65.1144 74.2199 64.4242 74.2793ZM65.4104 77.1696C65.2968 77.6199 64.9724 77.8604 64.5302 77.8686C64.0779 77.8768 63.7559 77.664 63.625 77.2078C63.4599 76.6334 63.4593 76.0437 63.6274 75.4699C63.76 75.0171 64.0862 74.8096 64.542 74.8255C64.9895 74.8413 65.3045 75.0795 65.4152 75.5328C65.4797 75.7979 65.4909 76.0766 65.527 76.3547C65.4903 76.6263 65.4773 76.9044 65.4104 77.1696Z" fill="#161616"/>
<path d="M2.40785 73.094C3.05369 73.0076 3.58942 73.238 3.82798 73.8189C3.99196 74.2181 4.2175 74.3034 4.64668 74.1917C4.61885 74.0652 4.60405 73.9553 4.57031 73.8507C4.27433 72.9423 3.44735 72.4061 2.45876 72.4778C1.50155 72.5478 0.737317 73.1763 0.620699 74.1076C0.504674 75.04 0.472707 75.9901 0.650298 76.9197C0.827888 77.8492 1.70756 78.4577 2.70976 78.4189C3.60067 78.3848 4.54959 77.7716 4.60761 76.7045C4.09023 76.6527 4.09023 76.6527 3.86054 77.079C3.55686 77.6422 3.03416 77.8933 2.36582 77.7969C1.79813 77.7151 1.35237 77.3089 1.27719 76.6974C1.1736 75.8537 1.16294 74.9995 1.28607 74.1576C1.37664 73.5432 1.81115 73.1739 2.40785 73.094Z" fill="#161616"/>
<path d="M21.6902 75.4099C21.4546 74.6861 20.9053 74.2746 20.1618 74.264C19.4082 74.2534 18.8162 74.6844 18.5901 75.4293C18.432 75.949 18.4119 76.4764 18.5238 77.0137C18.6528 77.637 18.9553 78.1226 19.587 78.316C20.2814 78.5283 20.9461 78.4542 21.5292 77.9791C21.6275 77.8992 21.7577 77.8016 21.6068 77.6693C21.4961 77.5717 21.4073 77.3689 21.1971 77.5194C21.1071 77.584 21.0207 77.6558 20.9242 77.7087C20.1203 78.1432 19.2164 77.7128 19.1087 76.8527C19.0808 76.6322 19.1164 76.4987 19.3863 76.5111C19.7196 76.5258 20.0546 76.5146 20.3891 76.5146C20.6123 76.514 20.8348 76.514 21.0574 76.514C21.8595 76.5128 21.9324 76.4205 21.7559 75.6215C21.7394 75.5498 21.7133 75.4804 21.6902 75.4099ZM20.6105 76.0337C20.115 76.0254 19.6178 76.0754 19.1252 76.0025C19.1371 75.2511 19.5242 74.7961 20.134 74.7961C20.7401 74.7955 21.1077 75.2229 21.1521 75.9819C20.9805 76.0795 20.791 76.0372 20.6105 76.0337Z" fill="#161616"/>
<path d="M69.211 74.3803C68.8197 74.2633 68.413 74.2233 67.9992 74.3003C67.6044 74.3744 67.2557 74.5073 67.0308 74.86C67.3339 75.224 67.3339 75.2234 67.6884 75C68.0401 74.7777 68.4195 74.7695 68.8144 74.8506C69.3981 74.97 69.4768 75.4462 69.4454 75.8613C69.4371 75.9742 69.3726 76.0265 69.2708 76.0312C69.0855 76.0383 68.8996 76.0388 68.7137 76.0377C68.3426 76.0353 67.969 76.0183 67.6097 76.1388C67.1154 76.304 66.8277 76.7097 66.8301 77.2312C66.8325 77.7727 67.1503 78.2054 67.6642 78.3388C68.181 78.4735 68.693 78.4746 69.1802 78.2165C69.2885 78.1589 69.3442 78.1031 69.4821 78.2542C69.6893 78.4811 70.0628 78.3806 70.0628 78.1436C70.0634 77.2029 70.1143 76.2611 70.035 75.3227C69.9924 74.8224 69.6692 74.5179 69.211 74.3803ZM69.1305 77.6962C68.6853 77.9626 68.2082 77.9608 67.7441 77.7538C67.4659 77.6304 67.425 77.3635 67.4558 77.093C67.4884 76.8032 67.6654 76.6191 67.9471 76.5668C68.2005 76.5204 68.4627 76.5151 68.7208 76.4921C68.7214 76.4968 68.722 76.5021 68.722 76.5068C68.7593 76.5068 68.7972 76.5004 68.8333 76.508C69.0358 76.5486 69.3057 76.3922 69.4306 76.6456C69.5786 76.9478 69.4081 77.5298 69.1305 77.6962Z" fill="#161616"/>
<path d="M13.0472 75.5216C13.0158 74.8731 12.5765 74.4515 11.9378 74.3063C11.5128 74.2099 11.1274 74.301 10.7586 74.5021C10.6378 74.5679 10.5538 74.7155 10.465 74.4415C10.3963 74.2299 10.14 74.3381 9.97188 74.3563C9.78245 74.3763 9.84993 74.555 9.84815 74.6702C9.84105 75.2247 9.84519 75.7785 9.84519 76.3329C9.84519 76.9061 9.84993 77.4788 9.84283 78.0514C9.84046 78.2484 9.8819 78.3583 10.1151 78.3583C10.452 78.3578 10.4863 78.346 10.4898 77.9903C10.4958 77.233 10.4756 76.4746 10.5011 75.7174C10.52 75.1676 10.9001 74.8337 11.4417 74.8243C11.994 74.8143 12.3581 75.1241 12.4155 75.6774C12.4422 75.9343 12.4356 76.1942 12.4374 76.4529C12.4404 77.0073 12.4422 77.5617 12.438 78.1161C12.4356 78.3719 12.6103 78.353 12.7808 78.3542C12.94 78.3554 13.072 78.3448 13.0696 78.1261C13.0596 77.2583 13.0892 76.3882 13.0472 75.5216Z" fill="#161616"/>
<path d="M74.4759 75.5885C74.4516 74.8889 74.0106 74.435 73.3191 74.2968C72.829 74.1992 72.404 74.3427 71.9186 74.6725C71.9665 74.2228 71.6711 74.345 71.4692 74.345C71.1964 74.3456 71.2769 74.5679 71.2763 74.7148C71.2698 75.6379 71.2727 76.561 71.2727 77.484C71.2727 77.6874 71.2798 77.8903 71.2715 78.0931C71.2638 78.2812 71.3449 78.3512 71.5326 78.3577C71.8594 78.3694 71.9043 78.343 71.9073 77.9926C71.9132 77.2724 71.899 76.5521 71.9132 75.8325C71.9262 75.1987 72.2755 74.8418 72.858 74.8254C73.4446 74.8089 73.8046 75.1529 73.8472 75.7825C73.8614 75.9848 73.8549 76.1888 73.8549 76.3916C73.8561 76.9455 73.8655 77.4993 73.8513 78.0525C73.8448 78.3089 73.962 78.3653 74.1888 78.3589C74.3859 78.353 74.4936 78.3159 74.4895 78.0808C74.477 77.25 74.5049 76.4181 74.4759 75.5885Z" fill="#161616"/>
<path d="M8.73053 75.4481C8.51623 74.719 7.92722 74.2663 7.17069 74.2651C6.3887 74.2634 5.77069 74.7349 5.5854 75.4869C5.44629 76.0513 5.4457 76.621 5.58244 77.1872C5.76595 77.9462 6.37153 78.4189 7.15352 78.4218C7.92071 78.4242 8.50972 77.9838 8.7252 77.2571C8.81044 76.969 8.83294 76.6774 8.82287 76.3993C8.82761 76.066 8.8211 75.755 8.73053 75.4481ZM8.13678 77.0878C8.03496 77.557 7.649 77.858 7.17957 77.8686C6.7421 77.8786 6.34963 77.6122 6.22413 77.1648C6.07259 76.6239 6.06963 76.0672 6.22472 75.5268C6.36088 75.0547 6.76993 74.7937 7.23521 74.8284C7.70938 74.8637 8.0616 75.1711 8.14862 75.655C8.19006 75.8896 8.18947 76.1318 8.209 76.387C8.18651 76.6122 8.1871 76.8556 8.13678 77.0878Z" fill="#161616"/>
<path d="M42.6078 74.2645C41.7719 74.2721 41.1397 74.8201 41.0036 75.6696C40.9686 75.8872 40.9698 76.11 40.9609 76.2388C40.9704 76.6086 40.9603 76.8861 41.0272 77.1571C41.2255 77.9614 41.8779 78.4553 42.6924 78.4194C43.5129 78.3835 44.1067 77.8432 44.2369 77.0178C44.3067 76.5774 44.3097 76.1382 44.2416 75.6967C44.1067 74.823 43.4661 74.2568 42.6078 74.2645ZM43.5579 77.2118C43.4081 77.6122 43.037 77.8714 42.6179 77.8679C42.1964 77.8644 41.808 77.6033 41.6873 77.1988C41.5192 76.638 41.5203 76.0653 41.6825 75.5038C41.8027 75.0911 42.1745 74.8348 42.6042 74.826C43.0559 74.8171 43.417 75.0793 43.5715 75.5162C43.6727 75.8025 43.6603 76.0977 43.6603 76.4298C43.671 76.6715 43.6568 76.9472 43.5579 77.2118Z" fill="#161616"/>
<path d="M17.4351 75.4116C17.3765 74.8454 17.0231 74.4868 16.4607 74.3321C15.9812 74.1998 15.5438 74.2816 15.127 74.5361C15.0583 74.5773 14.9246 74.6808 14.9038 74.5761C14.8257 74.1681 14.538 74.4027 14.2817 74.3198V75.1823C14.2823 76.143 14.2858 77.1036 14.2793 78.0649C14.2781 78.2713 14.3373 78.3589 14.5611 78.3606C14.7937 78.3624 14.8979 78.3007 14.8873 78.0514C14.8713 77.6833 14.8796 77.3129 14.8843 76.9431C14.889 76.5186 14.8654 76.09 14.9186 75.6714C14.9932 75.0882 15.3999 74.7854 15.9611 74.8266C16.4945 74.8654 16.8123 75.2005 16.8556 75.7767C16.8662 75.9237 16.8603 76.0718 16.8603 76.22C16.8609 76.8479 16.8656 77.4764 16.8585 78.1049C16.8562 78.3007 16.9432 78.3653 17.1267 78.3553C17.2907 78.3465 17.4753 78.3883 17.4712 78.1255C17.4564 77.2206 17.5286 76.3129 17.4351 75.4116Z" fill="#161616"/>
<path d="M60.983 75.9219C61.347 75.4398 61.6625 74.9207 62.0171 74.3892C61.5359 74.261 61.2334 74.3386 61.0161 74.7707C60.851 75.0988 60.6953 75.4586 60.3626 75.712C60.1666 75.3998 59.9618 75.1317 59.8203 74.8336C59.6143 74.3986 59.316 74.2257 58.7791 74.3915C59.107 74.883 59.4036 75.3275 59.7014 75.7714C60.0565 76.3023 60.0565 76.3011 59.6866 76.8538C59.3699 77.3259 59.0561 77.7998 58.7246 78.2972C59.1911 78.4283 59.5042 78.3612 59.7209 77.9344C59.9062 77.5699 60.1584 77.2389 60.4117 76.8456C60.6781 77.27 60.8936 77.6134 61.1091 77.9561C61.4056 78.4288 61.4246 78.4353 62.0509 78.2578C61.6969 77.731 61.3636 77.1983 60.9907 76.6944C60.7841 76.4169 60.7651 76.21 60.983 75.9219Z" fill="#161616"/>
<path d="M25.0624 75.0259C25.4176 75.2499 25.4176 75.2499 25.7112 74.8643C24.8025 73.8665 23.2498 74.1335 22.7792 75.3799C22.5288 76.0425 22.5376 76.7251 22.8046 77.3806C23.2285 78.4207 24.6604 78.7675 25.5123 78.0538C25.7692 77.8386 25.7562 77.7687 25.5081 77.5429C25.3009 77.3547 25.2175 77.557 25.0955 77.6375C24.3804 78.1079 23.5665 77.8298 23.3232 77.019C23.1882 76.5681 23.1882 76.106 23.3261 75.6556C23.5647 74.8778 24.3716 74.5897 25.0624 75.0259Z" fill="#161616"/>
<path d="M27.9409 77.8179C27.4733 77.7386 27.3928 77.641 27.3851 77.1642C27.3762 76.6121 27.3786 76.0594 27.3845 75.5068C27.3869 75.3063 27.3105 75.0758 27.4277 74.913C27.5603 74.7278 27.8077 74.8359 28.0031 74.8259C28.202 74.816 28.2511 74.7266 28.2482 74.5473C28.2452 74.3574 28.1286 74.358 27.9907 74.3468C27.3845 74.2974 27.3845 74.2956 27.3827 73.6648C27.3821 73.5731 27.375 73.4802 27.3839 73.3885C27.4046 73.1727 27.3087 73.1015 27.0962 73.101C26.8766 73.1004 26.7398 73.1403 26.7594 73.3996C26.7742 73.6013 26.7558 73.8047 26.7629 74.007C26.7706 74.2116 26.7511 74.3785 26.4764 74.3497C26.3112 74.3321 26.2491 74.4144 26.2521 74.5778C26.255 74.7301 26.2941 74.8318 26.4687 74.8195C26.7339 74.8013 26.7671 74.9629 26.7629 75.1722C26.7564 75.5215 26.7611 75.8719 26.7611 76.2217H26.7718C26.7718 76.5897 26.7523 76.9596 26.7754 77.3258C26.8239 78.0825 27.2963 78.4511 28.0433 78.3565C28.2174 78.3341 28.2428 78.253 28.2505 78.1043C28.2612 77.872 28.1244 77.8491 27.9409 77.8179Z" fill="#161616"/>
<path d="M40.5441 74.3985C40.2712 74.2762 39.9824 74.2321 39.6769 74.2909C39.3815 74.348 39.1264 74.4832 38.8902 74.6496C38.8517 74.6061 38.8132 74.5826 38.8103 74.5555C38.773 74.218 38.5149 74.3486 38.3391 74.3503C38.1419 74.3515 38.194 74.5291 38.1934 74.6443C38.1893 75.7861 38.1946 76.9278 38.1875 78.0696C38.1863 78.2836 38.2615 78.3571 38.4758 78.36C38.7049 78.3624 38.8138 78.3059 38.8061 78.0531C38.7913 77.5381 38.7978 77.0219 38.8038 76.5063C38.8073 76.2305 38.8043 75.9519 38.8452 75.6802C38.9553 74.9571 39.5739 74.6425 40.2476 74.953C40.3411 74.9965 40.4192 75.1258 40.5353 75.037C40.6507 74.9483 40.7939 74.8471 40.8348 74.7219C40.9046 74.5108 40.6785 74.4591 40.5441 74.3985Z" fill="#161616"/>
<path d="M29.5806 77.5693C29.1591 77.5681 29.1573 77.5699 29.1632 77.9967C29.168 78.3589 29.168 78.3589 29.5912 78.3566C29.9831 78.3542 29.9843 78.3524 29.9819 77.9597C29.979 77.5705 29.979 77.5705 29.5806 77.5693Z" fill="#161616"/>
<path d="M50.9711 77.5693C50.568 77.5664 50.568 77.5664 50.565 77.9556C50.5615 78.3554 50.5615 78.3554 50.9534 78.356C51.3624 78.3565 51.3624 78.3565 51.363 77.972C51.3642 77.5722 51.3642 77.5722 50.9711 77.5693Z" fill="#161616"/>
</svg>
