<svg width="1108" height="250" viewBox="0 0 1108 250" fill="none" xmlns="http://www.w3.org/2000/svg">
<circle cx="1.5" cy="6.5" r="1.5" fill="#36393D"/>
<circle cx="23.5" cy="6.5" r="1.5" fill="#36393D"/>
<circle cx="45.5" cy="6.5" r="1.5" fill="#36393D"/>
<circle cx="67.5" cy="6.5" r="1.5" fill="#36393D"/>
<circle cx="89.5" cy="6.5" r="1.5" fill="#36393D"/>
<circle cx="111.5" cy="6.5" r="1.5" fill="#36393D"/>
<circle cx="133.5" cy="6.5" r="1.5" fill="#36393D"/>
<circle cx="155.5" cy="6.5" r="1.5" fill="#36393D"/>
<circle cx="177.5" cy="6.5" r="1.5" fill="#36393D"/>
<circle cx="199.5" cy="6.5" r="1.5" fill="#36393D"/>
<circle cx="221.5" cy="6.5" r="1.5" fill="#36393D"/>
<circle cx="243.5" cy="6.5" r="1.5" fill="#36393D"/>
<circle cx="265.5" cy="6.5" r="1.5" fill="#36393D"/>
<circle cx="287.5" cy="6.5" r="1.5" fill="#36393D"/>
<circle cx="309.5" cy="6.5" r="1.5" fill="#36393D"/>
<circle cx="331.5" cy="6.5" r="1.5" fill="#36393D"/>
<circle cx="353.5" cy="6.5" r="1.5" fill="#36393D"/>
<circle cx="375.5" cy="6.5" r="1.5" fill="#36393D"/>
<circle cx="397.5" cy="6.5" r="1.5" fill="#36393D"/>
<circle cx="419.5" cy="6.5" r="1.5" fill="#36393D"/>
<circle cx="441.5" cy="6.5" r="1.5" fill="#36393D"/>
<circle cx="463.5" cy="6.5" r="1.5" fill="#36393D"/>
<circle cx="485.5" cy="6.5" r="1.5" fill="#36393D"/>
<circle cx="507.5" cy="6.5" r="1.5" fill="#36393D"/>
<circle cx="529.5" cy="6.5" r="1.5" fill="#36393D"/>
<circle cx="551.5" cy="6.5" r="1.5" fill="#36393D"/>
<circle cx="573.5" cy="6.5" r="1.5" fill="#36393D"/>
<circle cx="595.5" cy="6.5" r="1.5" fill="#36393D"/>
<circle cx="617.5" cy="6.5" r="1.5" fill="#36393D"/>
<circle cx="639.5" cy="6.5" r="1.5" fill="#36393D"/>
<circle cx="661.5" cy="6.5" r="1.5" fill="#36393D"/>
<circle cx="683.5" cy="6.5" r="1.5" fill="#36393D"/>
<circle cx="705.5" cy="6.5" r="1.5" fill="#36393D"/>
<circle cx="727.5" cy="6.5" r="1.5" fill="#36393D"/>
<circle cx="749.5" cy="6.5" r="1.5" fill="#36393D"/>
<circle cx="771.5" cy="6.5" r="1.5" fill="#36393D"/>
<circle cx="793.5" cy="6.5" r="1.5" fill="#36393D"/>
<circle cx="815.5" cy="6.5" r="1.5" fill="#36393D"/>
<circle cx="837.5" cy="6.5" r="1.5" fill="#36393D"/>
<circle cx="859.5" cy="6.5" r="1.5" fill="#36393D"/>
<g filter="url(#filter0_d_451_1242)">
<circle cx="881.5" cy="6.5" r="1.5" fill="#FBD40E"/>
</g>
<circle cx="903.5" cy="6.5" r="1.5" fill="#36393D"/>
<circle cx="925.5" cy="6.5" r="1.5" fill="#36393D"/>
<circle cx="947.5" cy="6.5" r="1.5" fill="#36393D"/>
<circle cx="969.5" cy="6.5" r="1.5" fill="#36393D"/>
<circle cx="991.5" cy="6.5" r="1.5" fill="#36393D"/>
<circle cx="1013.5" cy="6.5" r="1.5" fill="#36393D"/>
<circle cx="1035.5" cy="6.5" r="1.5" fill="#36393D"/>
<circle cx="1057.5" cy="6.5" r="1.5" fill="#36393D"/>
<circle cx="1079.5" cy="6.5" r="1.5" fill="#36393D"/>
<circle cx="1101.5" cy="6.5" r="1.5" fill="#36393D"/>
<circle cx="1.5" cy="28.5" r="1.5" fill="#36393D"/>
<circle cx="23.5" cy="28.5" r="1.5" fill="#36393D"/>
<circle cx="45.5" cy="28.5" r="1.5" fill="#36393D"/>
<circle cx="67.5" cy="28.5" r="1.5" fill="#36393D"/>
<circle cx="89.5" cy="28.5" r="1.5" fill="#36393D"/>
<circle cx="111.5" cy="28.5" r="1.5" fill="#36393D"/>
<circle cx="133.5" cy="28.5" r="1.5" fill="#36393D"/>
<circle cx="155.5" cy="28.5" r="1.5" fill="#36393D"/>
<circle cx="177.5" cy="28.5" r="1.5" fill="#36393D"/>
<circle cx="199.5" cy="28.5" r="1.5" fill="#36393D"/>
<circle cx="221.5" cy="28.5" r="1.5" fill="#36393D"/>
<circle cx="243.5" cy="28.5" r="1.5" fill="#36393D"/>
<circle cx="265.5" cy="28.5" r="1.5" fill="#36393D"/>
<circle cx="287.5" cy="28.5" r="1.5" fill="#36393D"/>
<circle cx="309.5" cy="28.5" r="1.5" fill="#36393D"/>
<g filter="url(#filter1_d_451_1242)">
<circle cx="331.5" cy="28.5" r="1.5" fill="#FBD40E"/>
</g>
<circle cx="353.5" cy="28.5" r="1.5" fill="#36393D"/>
<circle cx="375.5" cy="28.5" r="1.5" fill="#36393D"/>
<circle cx="397.5" cy="28.5" r="1.5" fill="#36393D"/>
<circle cx="419.5" cy="28.5" r="1.5" fill="#36393D"/>
<circle cx="441.5" cy="28.5" r="1.5" fill="#36393D"/>
<circle cx="463.5" cy="28.5" r="1.5" fill="#36393D"/>
<circle cx="485.5" cy="28.5" r="1.5" fill="#36393D"/>
<circle cx="507.5" cy="28.5" r="1.5" fill="#36393D"/>
<circle cx="529.5" cy="28.5" r="1.5" fill="#36393D"/>
<circle cx="551.5" cy="28.5" r="1.5" fill="#36393D"/>
<circle cx="573.5" cy="28.5" r="1.5" fill="#36393D"/>
<circle cx="595.5" cy="28.5" r="1.5" fill="#36393D"/>
<g filter="url(#filter2_d_451_1242)">
<circle cx="617.5" cy="28.5" r="1.5" fill="#FBD40E"/>
</g>
<circle cx="639.5" cy="28.5" r="1.5" fill="#36393D"/>
<circle cx="661.5" cy="28.5" r="1.5" fill="#36393D"/>
<circle cx="683.5" cy="28.5" r="1.5" fill="#36393D"/>
<circle cx="705.5" cy="28.5" r="1.5" fill="#36393D"/>
<circle cx="727.5" cy="28.5" r="1.5" fill="#36393D"/>
<circle cx="749.5" cy="28.5" r="1.5" fill="#36393D"/>
<g filter="url(#filter3_d_451_1242)">
<circle cx="771.5" cy="28.5" r="1.5" fill="#FBD40E"/>
</g>
<circle cx="793.5" cy="28.5" r="1.5" fill="#36393D"/>
<circle cx="815.5" cy="28.5" r="1.5" fill="#36393D"/>
<circle cx="837.5" cy="28.5" r="1.5" fill="#36393D"/>
<circle cx="859.5" cy="28.5" r="1.5" fill="#36393D"/>
<circle cx="881.5" cy="28.5" r="1.5" fill="#36393D"/>
<circle cx="903.5" cy="28.5" r="1.5" fill="#36393D"/>
<circle cx="925.5" cy="28.5" r="1.5" fill="#36393D"/>
<circle cx="947.5" cy="28.5" r="1.5" fill="#36393D"/>
<g filter="url(#filter4_d_451_1242)">
<circle cx="969.5" cy="28.5" r="1.5" fill="#FBD40E"/>
</g>
<circle cx="991.5" cy="28.5" r="1.5" fill="#36393D"/>
<circle cx="1013.5" cy="28.5" r="1.5" fill="#36393D"/>
<circle cx="1035.5" cy="28.5" r="1.5" fill="#36393D"/>
<circle cx="1057.5" cy="28.5" r="1.5" fill="#36393D"/>
<circle cx="1079.5" cy="28.5" r="1.5" fill="#36393D"/>
<g filter="url(#filter5_d_451_1242)">
<circle cx="1101.5" cy="28.5" r="1.5" fill="#FBD40E"/>
</g>
<circle cx="1.5" cy="50.5" r="1.5" fill="#36393D"/>
<circle cx="23.5" cy="50.5" r="1.5" fill="#36393D"/>
<circle cx="45.5" cy="50.5" r="1.5" fill="#36393D"/>
<circle cx="67.5" cy="50.5" r="1.5" fill="#36393D"/>
<circle cx="89.5" cy="50.5" r="1.5" fill="#36393D"/>
<circle cx="111.5" cy="50.5" r="1.5" fill="#36393D"/>
<circle cx="133.5" cy="50.5" r="1.5" fill="#36393D"/>
<circle cx="155.5" cy="50.5" r="1.5" fill="#36393D"/>
<circle cx="177.5" cy="50.5" r="1.5" fill="#36393D"/>
<circle cx="199.5" cy="50.5" r="1.5" fill="#36393D"/>
<circle cx="221.5" cy="50.5" r="1.5" fill="#36393D"/>
<circle cx="243.5" cy="50.5" r="1.5" fill="#36393D"/>
<circle cx="265.5" cy="50.5" r="1.5" fill="#36393D"/>
<circle cx="287.5" cy="50.5" r="1.5" fill="#36393D"/>
<circle cx="309.5" cy="50.5" r="1.5" fill="#36393D"/>
<circle cx="331.5" cy="50.5" r="1.5" fill="#36393D"/>
<circle cx="353.5" cy="50.5" r="1.5" fill="#36393D"/>
<circle cx="375.5" cy="50.5" r="1.5" fill="#36393D"/>
<circle cx="397.5" cy="50.5" r="1.5" fill="#36393D"/>
<circle cx="419.5" cy="50.5" r="1.5" fill="#36393D"/>
<circle cx="441.5" cy="50.5" r="1.5" fill="#36393D"/>
<circle cx="463.5" cy="50.5" r="1.5" fill="#36393D"/>
<circle cx="485.5" cy="50.5" r="1.5" fill="#36393D"/>
<circle cx="507.5" cy="50.5" r="1.5" fill="#36393D"/>
<circle cx="529.5" cy="50.5" r="1.5" fill="#36393D"/>
<circle cx="551.5" cy="50.5" r="1.5" fill="#36393D"/>
<circle cx="573.5" cy="50.5" r="1.5" fill="#36393D"/>
<circle cx="595.5" cy="50.5" r="1.5" fill="#36393D"/>
<circle cx="617.5" cy="50.5" r="1.5" fill="#36393D"/>
<circle cx="639.5" cy="50.5" r="1.5" fill="#36393D"/>
<circle cx="661.5" cy="50.5" r="1.5" fill="#36393D"/>
<circle cx="683.5" cy="50.5" r="1.5" fill="#36393D"/>
<circle cx="705.5" cy="50.5" r="1.5" fill="#36393D"/>
<circle cx="727.5" cy="50.5" r="1.5" fill="#36393D"/>
<circle cx="749.5" cy="50.5" r="1.5" fill="#36393D"/>
<circle cx="771.5" cy="50.5" r="1.5" fill="#36393D"/>
<circle cx="793.5" cy="50.5" r="1.5" fill="#36393D"/>
<circle cx="815.5" cy="50.5" r="1.5" fill="#36393D"/>
<circle cx="837.5" cy="50.5" r="1.5" fill="#36393D"/>
<circle cx="859.5" cy="50.5" r="1.5" fill="#36393D"/>
<circle cx="881.5" cy="50.5" r="1.5" fill="#36393D"/>
<circle cx="903.5" cy="50.5" r="1.5" fill="#36393D"/>
<circle cx="925.5" cy="50.5" r="1.5" fill="#36393D"/>
<circle cx="947.5" cy="50.5" r="1.5" fill="#36393D"/>
<circle cx="969.5" cy="50.5" r="1.5" fill="#36393D"/>
<circle cx="991.5" cy="50.5" r="1.5" fill="#36393D"/>
<circle cx="1013.5" cy="50.5" r="1.5" fill="#36393D"/>
<circle cx="1035.5" cy="50.5" r="1.5" fill="#36393D"/>
<circle cx="1057.5" cy="50.5" r="1.5" fill="#36393D"/>
<circle cx="1079.5" cy="50.5" r="1.5" fill="#36393D"/>
<circle cx="1101.5" cy="50.5" r="1.5" fill="#36393D"/>
<circle cx="1.5" cy="72.5" r="1.5" fill="#36393D"/>
<circle cx="23.5" cy="72.5" r="1.5" fill="#36393D"/>
<circle cx="45.5" cy="72.5" r="1.5" fill="#36393D"/>
<circle cx="67.5" cy="72.5" r="1.5" fill="#36393D"/>
<circle cx="89.5" cy="72.5" r="1.5" fill="#36393D"/>
<g filter="url(#filter6_d_451_1242)">
<circle cx="111.5" cy="72.5" r="1.5" fill="#FBD40E"/>
</g>
<circle cx="133.5" cy="72.5" r="1.5" fill="#36393D"/>
<circle cx="155.5" cy="72.5" r="1.5" fill="#36393D"/>
<circle cx="177.5" cy="72.5" r="1.5" fill="#36393D"/>
<circle cx="199.5" cy="72.5" r="1.5" fill="#36393D"/>
<circle cx="221.5" cy="72.5" r="1.5" fill="#36393D"/>
<circle cx="243.5" cy="72.5" r="1.5" fill="#36393D"/>
<circle cx="265.5" cy="72.5" r="1.5" fill="#36393D"/>
<circle cx="287.5" cy="72.5" r="1.5" fill="#36393D"/>
<circle cx="309.5" cy="72.5" r="1.5" fill="#36393D"/>
<circle cx="331.5" cy="72.5" r="1.5" fill="#36393D"/>
<circle cx="353.5" cy="72.5" r="1.5" fill="#36393D"/>
<circle cx="375.5" cy="72.5" r="1.5" fill="#36393D"/>
<circle cx="397.5" cy="72.5" r="1.5" fill="#36393D"/>
<circle cx="419.5" cy="72.5" r="1.5" fill="#36393D"/>
<circle cx="441.5" cy="72.5" r="1.5" fill="#36393D"/>
<circle cx="463.5" cy="72.5" r="1.5" fill="#36393D"/>
<circle cx="485.5" cy="72.5" r="1.5" fill="#36393D"/>
<circle cx="507.5" cy="72.5" r="1.5" fill="#36393D"/>
<circle cx="529.5" cy="72.5" r="1.5" fill="#36393D"/>
<circle cx="551.5" cy="72.5" r="1.5" fill="#36393D"/>
<circle cx="573.5" cy="72.5" r="1.5" fill="#36393D"/>
<circle cx="595.5" cy="72.5" r="1.5" fill="#36393D"/>
<circle cx="617.5" cy="72.5" r="1.5" fill="#36393D"/>
<circle cx="639.5" cy="72.5" r="1.5" fill="#36393D"/>
<circle cx="661.5" cy="72.5" r="1.5" fill="#36393D"/>
<circle cx="683.5" cy="72.5" r="1.5" fill="#36393D"/>
<circle cx="705.5" cy="72.5" r="1.5" fill="#36393D"/>
<circle cx="727.5" cy="72.5" r="1.5" fill="#36393D"/>
<circle cx="749.5" cy="72.5" r="1.5" fill="#36393D"/>
<circle cx="771.5" cy="72.5" r="1.5" fill="#36393D"/>
<circle cx="793.5" cy="72.5" r="1.5" fill="#36393D"/>
<circle cx="815.5" cy="72.5" r="1.5" fill="#36393D"/>
<circle cx="837.5" cy="72.5" r="1.5" fill="#36393D"/>
<circle cx="859.5" cy="72.5" r="1.5" fill="#36393D"/>
<circle cx="881.5" cy="72.5" r="1.5" fill="#36393D"/>
<circle cx="903.5" cy="72.5" r="1.5" fill="#36393D"/>
<circle cx="925.5" cy="72.5" r="1.5" fill="#36393D"/>
<circle cx="947.5" cy="72.5" r="1.5" fill="#36393D"/>
<circle cx="969.5" cy="72.5" r="1.5" fill="#36393D"/>
<circle cx="991.5" cy="72.5" r="1.5" fill="#36393D"/>
<circle cx="1013.5" cy="72.5" r="1.5" fill="#36393D"/>
<circle cx="1035.5" cy="72.5" r="1.5" fill="#36393D"/>
<circle cx="1057.5" cy="72.5" r="1.5" fill="#36393D"/>
<circle cx="1079.5" cy="72.5" r="1.5" fill="#36393D"/>
<circle cx="1101.5" cy="72.5" r="1.5" fill="#36393D"/>
<circle cx="1.5" cy="94.5" r="1.5" fill="#36393D"/>
<circle cx="23.5" cy="94.5" r="1.5" fill="#36393D"/>
<circle cx="45.5" cy="94.5" r="1.5" fill="#36393D"/>
<circle cx="67.5" cy="94.5" r="1.5" fill="#36393D"/>
<circle cx="89.5" cy="94.5" r="1.5" fill="#36393D"/>
<circle cx="111.5" cy="94.5" r="1.5" fill="#36393D"/>
<circle cx="133.5" cy="94.5" r="1.5" fill="#36393D"/>
<circle cx="155.5" cy="94.5" r="1.5" fill="#36393D"/>
<circle cx="177.5" cy="94.5" r="1.5" fill="#36393D"/>
<circle cx="199.5" cy="94.5" r="1.5" fill="#36393D"/>
<circle cx="221.5" cy="94.5" r="1.5" fill="#36393D"/>
<circle cx="243.5" cy="94.5" r="1.5" fill="#36393D"/>
<circle cx="265.5" cy="94.5" r="1.5" fill="#36393D"/>
<circle cx="287.5" cy="94.5" r="1.5" fill="#36393D"/>
<circle cx="309.5" cy="94.5" r="1.5" fill="#36393D"/>
<circle cx="331.5" cy="94.5" r="1.5" fill="#36393D"/>
<circle cx="353.5" cy="94.5" r="1.5" fill="#36393D"/>
<circle cx="375.5" cy="94.5" r="1.5" fill="#36393D"/>
<circle cx="397.5" cy="94.5" r="1.5" fill="#36393D"/>
<circle cx="419.5" cy="94.5" r="1.5" fill="#36393D"/>
<circle cx="441.5" cy="94.5" r="1.5" fill="#36393D"/>
<circle cx="463.5" cy="94.5" r="1.5" fill="#36393D"/>
<circle cx="485.5" cy="94.5" r="1.5" fill="#36393D"/>
<circle cx="507.5" cy="94.5" r="1.5" fill="#36393D"/>
<circle cx="529.5" cy="94.5" r="1.5" fill="#36393D"/>
<circle cx="551.5" cy="94.5" r="1.5" fill="#36393D"/>
<circle cx="573.5" cy="94.5" r="1.5" fill="#36393D"/>
<circle cx="595.5" cy="94.5" r="1.5" fill="#36393D"/>
<circle cx="617.5" cy="94.5" r="1.5" fill="#36393D"/>
<circle cx="639.5" cy="94.5" r="1.5" fill="#36393D"/>
<circle cx="661.5" cy="94.5" r="1.5" fill="#36393D"/>
<circle cx="683.5" cy="94.5" r="1.5" fill="#36393D"/>
<circle cx="705.5" cy="94.5" r="1.5" fill="#36393D"/>
<circle cx="727.5" cy="94.5" r="1.5" fill="#36393D"/>
<circle cx="749.5" cy="94.5" r="1.5" fill="#36393D"/>
<circle cx="771.5" cy="94.5" r="1.5" fill="#36393D"/>
<circle cx="793.5" cy="94.5" r="1.5" fill="#36393D"/>
<circle cx="815.5" cy="94.5" r="1.5" fill="#36393D"/>
<circle cx="837.5" cy="94.5" r="1.5" fill="#36393D"/>
<circle cx="859.5" cy="94.5" r="1.5" fill="#36393D"/>
<circle cx="881.5" cy="94.5" r="1.5" fill="#36393D"/>
<circle cx="903.5" cy="94.5" r="1.5" fill="#36393D"/>
<circle cx="925.5" cy="94.5" r="1.5" fill="#36393D"/>
<circle cx="947.5" cy="94.5" r="1.5" fill="#36393D"/>
<circle cx="969.5" cy="94.5" r="1.5" fill="#36393D"/>
<circle cx="991.5" cy="94.5" r="1.5" fill="#36393D"/>
<circle cx="1013.5" cy="94.5" r="1.5" fill="#36393D"/>
<circle cx="1035.5" cy="94.5" r="1.5" fill="#36393D"/>
<circle cx="1057.5" cy="94.5" r="1.5" fill="#36393D"/>
<circle cx="1079.5" cy="94.5" r="1.5" fill="#36393D"/>
<circle cx="1101.5" cy="94.5" r="1.5" fill="#36393D"/>
<circle cx="1.5" cy="116.5" r="1.5" fill="#36393D"/>
<circle cx="23.5" cy="116.5" r="1.5" fill="#36393D"/>
<circle cx="45.5" cy="116.5" r="1.5" fill="#36393D"/>
<circle cx="67.5" cy="116.5" r="1.5" fill="#36393D"/>
<circle cx="89.5" cy="116.5" r="1.5" fill="#36393D"/>
<circle cx="111.5" cy="116.5" r="1.5" fill="#36393D"/>
<circle cx="133.5" cy="116.5" r="1.5" fill="#36393D"/>
<circle cx="155.5" cy="116.5" r="1.5" fill="#36393D"/>
<circle cx="177.5" cy="116.5" r="1.5" fill="#36393D"/>
<circle cx="199.5" cy="116.5" r="1.5" fill="#36393D"/>
<circle cx="221.5" cy="116.5" r="1.5" fill="#36393D"/>
<circle cx="243.5" cy="116.5" r="1.5" fill="#36393D"/>
<circle cx="265.5" cy="116.5" r="1.5" fill="#36393D"/>
<circle cx="287.5" cy="116.5" r="1.5" fill="#36393D"/>
<circle cx="309.5" cy="116.5" r="1.5" fill="#36393D"/>
<circle cx="331.5" cy="116.5" r="1.5" fill="#36393D"/>
<circle cx="353.5" cy="116.5" r="1.5" fill="#36393D"/>
<circle cx="375.5" cy="116.5" r="1.5" fill="#36393D"/>
<circle cx="397.5" cy="116.5" r="1.5" fill="#36393D"/>
<circle cx="419.5" cy="116.5" r="1.5" fill="#36393D"/>
<circle cx="441.5" cy="116.5" r="1.5" fill="#36393D"/>
<circle cx="463.5" cy="116.5" r="1.5" fill="#36393D"/>
<circle cx="485.5" cy="116.5" r="1.5" fill="#36393D"/>
<circle cx="507.5" cy="116.5" r="1.5" fill="#36393D"/>
<circle cx="529.5" cy="116.5" r="1.5" fill="#36393D"/>
<circle cx="551.5" cy="116.5" r="1.5" fill="#36393D"/>
<circle cx="573.5" cy="116.5" r="1.5" fill="#36393D"/>
<circle cx="595.5" cy="116.5" r="1.5" fill="#36393D"/>
<circle cx="617.5" cy="116.5" r="1.5" fill="#36393D"/>
<circle cx="639.5" cy="116.5" r="1.5" fill="#36393D"/>
<circle cx="661.5" cy="116.5" r="1.5" fill="#36393D"/>
<circle cx="683.5" cy="116.5" r="1.5" fill="#36393D"/>
<circle cx="705.5" cy="116.5" r="1.5" fill="#36393D"/>
<circle cx="727.5" cy="116.5" r="1.5" fill="#36393D"/>
<circle cx="749.5" cy="116.5" r="1.5" fill="#36393D"/>
<circle cx="771.5" cy="116.5" r="1.5" fill="#36393D"/>
<circle cx="793.5" cy="116.5" r="1.5" fill="#36393D"/>
<circle cx="815.5" cy="116.5" r="1.5" fill="#36393D"/>
<circle cx="837.5" cy="116.5" r="1.5" fill="#36393D"/>
<circle cx="859.5" cy="116.5" r="1.5" fill="#36393D"/>
<circle cx="881.5" cy="116.5" r="1.5" fill="#36393D"/>
<circle cx="903.5" cy="116.5" r="1.5" fill="#36393D"/>
<circle cx="925.5" cy="116.5" r="1.5" fill="#36393D"/>
<circle cx="947.5" cy="116.5" r="1.5" fill="#36393D"/>
<circle cx="969.5" cy="116.5" r="1.5" fill="#36393D"/>
<circle cx="991.5" cy="116.5" r="1.5" fill="#36393D"/>
<circle cx="1013.5" cy="116.5" r="1.5" fill="#36393D"/>
<circle cx="1035.5" cy="116.5" r="1.5" fill="#36393D"/>
<circle cx="1057.5" cy="116.5" r="1.5" fill="#36393D"/>
<circle cx="1079.5" cy="116.5" r="1.5" fill="#36393D"/>
<circle cx="1101.5" cy="116.5" r="1.5" fill="#36393D"/>
<circle cx="1.5" cy="138.5" r="1.5" fill="#36393D"/>
<circle cx="23.5" cy="138.5" r="1.5" fill="#36393D"/>
<circle cx="45.5" cy="138.5" r="1.5" fill="#36393D"/>
<circle cx="67.5" cy="138.5" r="1.5" fill="#36393D"/>
<circle cx="89.5" cy="160.5" r="1.5" fill="#36393D"/>
<circle cx="111.5" cy="138.5" r="1.5" fill="#36393D"/>
<circle cx="133.5" cy="138.5" r="1.5" fill="#36393D"/>
<circle cx="155.5" cy="138.5" r="1.5" fill="#36393D"/>
<circle cx="177.5" cy="138.5" r="1.5" fill="#36393D"/>
<circle cx="199.5" cy="138.5" r="1.5" fill="#36393D"/>
<circle cx="221.5" cy="138.5" r="1.5" fill="#36393D"/>
<circle cx="243.5" cy="138.5" r="1.5" fill="#36393D"/>
<circle cx="265.5" cy="138.5" r="1.5" fill="#36393D"/>
<circle cx="287.5" cy="138.5" r="1.5" fill="#36393D"/>
<circle cx="309.5" cy="138.5" r="1.5" fill="#36393D"/>
<circle cx="331.5" cy="138.5" r="1.5" fill="#36393D"/>
<circle cx="353.5" cy="138.5" r="1.5" fill="#36393D"/>
<circle cx="375.5" cy="138.5" r="1.5" fill="#36393D"/>
<circle cx="397.5" cy="138.5" r="1.5" fill="#36393D"/>
<circle cx="419.5" cy="138.5" r="1.5" fill="#36393D"/>
<circle cx="441.5" cy="138.5" r="1.5" fill="#36393D"/>
<circle cx="463.5" cy="138.5" r="1.5" fill="#36393D"/>
<circle cx="485.5" cy="138.5" r="1.5" fill="#36393D"/>
<circle cx="507.5" cy="138.5" r="1.5" fill="#36393D"/>
<circle cx="529.5" cy="138.5" r="1.5" fill="#36393D"/>
<circle cx="551.5" cy="138.5" r="1.5" fill="#36393D"/>
<circle cx="573.5" cy="138.5" r="1.5" fill="#36393D"/>
<circle cx="595.5" cy="138.5" r="1.5" fill="#36393D"/>
<circle cx="617.5" cy="138.5" r="1.5" fill="#36393D"/>
<circle cx="639.5" cy="138.5" r="1.5" fill="#36393D"/>
<circle cx="661.5" cy="138.5" r="1.5" fill="#36393D"/>
<circle cx="683.5" cy="138.5" r="1.5" fill="#36393D"/>
<circle cx="705.5" cy="138.5" r="1.5" fill="#36393D"/>
<circle cx="727.5" cy="138.5" r="1.5" fill="#36393D"/>
<circle cx="749.5" cy="138.5" r="1.5" fill="#36393D"/>
<circle cx="771.5" cy="138.5" r="1.5" fill="#36393D"/>
<circle cx="793.5" cy="138.5" r="1.5" fill="#36393D"/>
<circle cx="815.5" cy="138.5" r="1.5" fill="#36393D"/>
<circle cx="837.5" cy="138.5" r="1.5" fill="#36393D"/>
<circle cx="859.5" cy="138.5" r="1.5" fill="#36393D"/>
<circle cx="881.5" cy="138.5" r="1.5" fill="#36393D"/>
<circle cx="903.5" cy="138.5" r="1.5" fill="#36393D"/>
<circle cx="925.5" cy="138.5" r="1.5" fill="#36393D"/>
<circle cx="947.5" cy="138.5" r="1.5" fill="#36393D"/>
<circle cx="969.5" cy="138.5" r="1.5" fill="#36393D"/>
<circle cx="991.5" cy="138.5" r="1.5" fill="#36393D"/>
<circle cx="1013.5" cy="138.5" r="1.5" fill="#36393D"/>
<circle cx="1035.5" cy="138.5" r="1.5" fill="#36393D"/>
<circle cx="1057.5" cy="138.5" r="1.5" fill="#36393D"/>
<g filter="url(#filter7_d_451_1242)">
<circle cx="1079.5" cy="138.5" r="1.5" fill="#FBD40E"/>
</g>
<circle cx="1101.5" cy="138.5" r="1.5" fill="#36393D"/>
<circle cx="1.5" cy="160.5" r="1.5" fill="#36393D"/>
<circle cx="23.5" cy="160.5" r="1.5" fill="#36393D"/>
<circle cx="45.5" cy="160.5" r="1.5" fill="#36393D"/>
<circle cx="67.5" cy="160.5" r="1.5" fill="#36393D"/>
<circle cx="133.5" cy="160.5" r="1.5" fill="#36393D"/>
<circle cx="111.5" cy="160.5" r="1.5" fill="#36393D"/>
<g filter="url(#filter8_d_451_1242)">
<circle cx="89.5" cy="138.5" r="1.5" fill="#FBD40E"/>
</g>
<circle cx="155.5" cy="160.5" r="1.5" fill="#36393D"/>
<circle cx="177.5" cy="160.5" r="1.5" fill="#36393D"/>
<circle cx="199.5" cy="160.5" r="1.5" fill="#36393D"/>
<circle cx="221.5" cy="160.5" r="1.5" fill="#36393D"/>
<circle cx="243.5" cy="160.5" r="1.5" fill="#36393D"/>
<circle cx="265.5" cy="160.5" r="1.5" fill="#36393D"/>
<circle cx="287.5" cy="160.5" r="1.5" fill="#36393D"/>
<circle cx="309.5" cy="160.5" r="1.5" fill="#36393D"/>
<circle cx="331.5" cy="160.5" r="1.5" fill="#36393D"/>
<circle cx="353.5" cy="160.5" r="1.5" fill="#36393D"/>
<circle cx="375.5" cy="160.5" r="1.5" fill="#36393D"/>
<circle cx="397.5" cy="160.5" r="1.5" fill="#36393D"/>
<circle cx="419.5" cy="160.5" r="1.5" fill="#36393D"/>
<circle cx="441.5" cy="160.5" r="1.5" fill="#36393D"/>
<circle cx="463.5" cy="160.5" r="1.5" fill="#36393D"/>
<circle cx="485.5" cy="160.5" r="1.5" fill="#36393D"/>
<circle cx="507.5" cy="160.5" r="1.5" fill="#36393D"/>
<circle cx="529.5" cy="160.5" r="1.5" fill="#36393D"/>
<circle cx="551.5" cy="160.5" r="1.5" fill="#36393D"/>
<circle cx="573.5" cy="160.5" r="1.5" fill="#36393D"/>
<circle cx="595.5" cy="160.5" r="1.5" fill="#36393D"/>
<circle cx="617.5" cy="160.5" r="1.5" fill="#36393D"/>
<circle cx="639.5" cy="160.5" r="1.5" fill="#36393D"/>
<circle cx="661.5" cy="160.5" r="1.5" fill="#36393D"/>
<circle cx="683.5" cy="160.5" r="1.5" fill="#36393D"/>
<circle cx="705.5" cy="160.5" r="1.5" fill="#36393D"/>
<circle cx="727.5" cy="160.5" r="1.5" fill="#36393D"/>
<circle cx="749.5" cy="160.5" r="1.5" fill="#36393D"/>
<circle cx="771.5" cy="160.5" r="1.5" fill="#36393D"/>
<circle cx="793.5" cy="160.5" r="1.5" fill="#36393D"/>
<circle cx="815.5" cy="160.5" r="1.5" fill="#36393D"/>
<circle cx="837.5" cy="160.5" r="1.5" fill="#36393D"/>
<circle cx="859.5" cy="160.5" r="1.5" fill="#36393D"/>
<circle cx="881.5" cy="160.5" r="1.5" fill="#36393D"/>
<circle cx="903.5" cy="160.5" r="1.5" fill="#36393D"/>
<circle cx="925.5" cy="160.5" r="1.5" fill="#36393D"/>
<circle cx="947.5" cy="160.5" r="1.5" fill="#36393D"/>
<circle cx="969.5" cy="160.5" r="1.5" fill="#36393D"/>
<circle cx="991.5" cy="160.5" r="1.5" fill="#36393D"/>
<circle cx="1013.5" cy="160.5" r="1.5" fill="#36393D"/>
<circle cx="1035.5" cy="160.5" r="1.5" fill="#36393D"/>
<circle cx="1057.5" cy="160.5" r="1.5" fill="#36393D"/>
<circle cx="1079.5" cy="160.5" r="1.5" fill="#36393D"/>
<circle cx="1101.5" cy="160.5" r="1.5" fill="#36393D"/>
<circle cx="1.5" cy="182.5" r="1.5" fill="#36393D"/>
<circle cx="23.5" cy="182.5" r="1.5" fill="#36393D"/>
<circle cx="45.5" cy="182.5" r="1.5" fill="#36393D"/>
<circle cx="67.5" cy="182.5" r="1.5" fill="#36393D"/>
<circle cx="89.5" cy="182.5" r="1.5" fill="#36393D"/>
<circle cx="111.5" cy="182.5" r="1.5" fill="#36393D"/>
<circle cx="133.5" cy="182.5" r="1.5" fill="#36393D"/>
<circle cx="155.5" cy="182.5" r="1.5" fill="#36393D"/>
<circle cx="177.5" cy="182.5" r="1.5" fill="#36393D"/>
<circle cx="199.5" cy="182.5" r="1.5" fill="#36393D"/>
<g filter="url(#filter9_d_451_1242)">
<circle cx="177.5" cy="204.5" r="1.5" fill="#FBD40E"/>
</g>
<circle cx="243.5" cy="182.5" r="1.5" fill="#36393D"/>
<circle cx="265.5" cy="182.5" r="1.5" fill="#36393D"/>
<circle cx="287.5" cy="182.5" r="1.5" fill="#36393D"/>
<circle cx="309.5" cy="182.5" r="1.5" fill="#36393D"/>
<circle cx="331.5" cy="182.5" r="1.5" fill="#36393D"/>
<circle cx="353.5" cy="182.5" r="1.5" fill="#36393D"/>
<circle cx="375.5" cy="182.5" r="1.5" fill="#36393D"/>
<circle cx="397.5" cy="182.5" r="1.5" fill="#36393D"/>
<circle cx="419.5" cy="182.5" r="1.5" fill="#36393D"/>
<circle cx="441.5" cy="182.5" r="1.5" fill="#36393D"/>
<circle cx="463.5" cy="182.5" r="1.5" fill="#36393D"/>
<circle cx="485.5" cy="182.5" r="1.5" fill="#36393D"/>
<circle cx="507.5" cy="182.5" r="1.5" fill="#36393D"/>
<circle cx="529.5" cy="182.5" r="1.5" fill="#36393D"/>
<circle cx="551.5" cy="182.5" r="1.5" fill="#36393D"/>
<circle cx="573.5" cy="182.5" r="1.5" fill="#36393D"/>
<circle cx="595.5" cy="182.5" r="1.5" fill="#36393D"/>
<circle cx="617.5" cy="182.5" r="1.5" fill="#36393D"/>
<circle cx="639.5" cy="182.5" r="1.5" fill="#36393D"/>
<circle cx="661.5" cy="182.5" r="1.5" fill="#36393D"/>
<circle cx="683.5" cy="182.5" r="1.5" fill="#36393D"/>
<circle cx="705.5" cy="182.5" r="1.5" fill="#36393D"/>
<circle cx="727.5" cy="182.5" r="1.5" fill="#36393D"/>
<circle cx="749.5" cy="182.5" r="1.5" fill="#36393D"/>
<circle cx="771.5" cy="182.5" r="1.5" fill="#36393D"/>
<circle cx="793.5" cy="182.5" r="1.5" fill="#36393D"/>
<circle cx="815.5" cy="182.5" r="1.5" fill="#36393D"/>
<g filter="url(#filter10_d_451_1242)">
<circle cx="947.5" cy="182.5" r="1.5" fill="#FBD40E"/>
</g>
<circle cx="859.5" cy="182.5" r="1.5" fill="#36393D"/>
<circle cx="837.5" cy="182.5" r="1.5" fill="#36393D"/>
<circle cx="903.5" cy="182.5" r="1.5" fill="#36393D"/>
<circle cx="925.5" cy="182.5" r="1.5" fill="#36393D"/>
<circle cx="881.5" cy="182.5" r="1.5" fill="#36393D"/>
<circle cx="969.5" cy="182.5" r="1.5" fill="#36393D"/>
<circle cx="991.5" cy="182.5" r="1.5" fill="#36393D"/>
<circle cx="1013.5" cy="182.5" r="1.5" fill="#36393D"/>
<circle cx="1035.5" cy="182.5" r="1.5" fill="#36393D"/>
<circle cx="1057.5" cy="182.5" r="1.5" fill="#36393D"/>
<circle cx="1079.5" cy="182.5" r="1.5" fill="#36393D"/>
<circle cx="1101.5" cy="182.5" r="1.5" fill="#36393D"/>
<circle cx="1.5" cy="204.5" r="1.5" fill="#36393D"/>
<circle cx="23.5" cy="204.5" r="1.5" fill="#36393D"/>
<g filter="url(#filter11_d_451_1242)">
<circle cx="45.5" cy="204.5" r="1.5" fill="#FBD40E"/>
</g>
<circle cx="67.5" cy="204.5" r="1.5" fill="#36393D"/>
<circle cx="89.5" cy="204.5" r="1.5" fill="#36393D"/>
<circle cx="111.5" cy="204.5" r="1.5" fill="#36393D"/>
<circle cx="133.5" cy="204.5" r="1.5" fill="#36393D"/>
<circle cx="155.5" cy="204.5" r="1.5" fill="#36393D"/>
<circle cx="221.5" cy="204.5" r="1.5" fill="#36393D"/>
<circle cx="199.5" cy="204.5" r="1.5" fill="#36393D"/>
<circle cx="221.5" cy="182.5" r="1.5" fill="#36393D"/>
<circle cx="243.5" cy="204.5" r="1.5" fill="#36393D"/>
<circle cx="265.5" cy="204.5" r="1.5" fill="#36393D"/>
<circle cx="287.5" cy="204.5" r="1.5" fill="#36393D"/>
<circle cx="309.5" cy="204.5" r="1.5" fill="#36393D"/>
<circle cx="331.5" cy="204.5" r="1.5" fill="#36393D"/>
<circle cx="353.5" cy="204.5" r="1.5" fill="#36393D"/>
<circle cx="375.5" cy="204.5" r="1.5" fill="#36393D"/>
<circle cx="397.5" cy="204.5" r="1.5" fill="#36393D"/>
<circle cx="419.5" cy="204.5" r="1.5" fill="#36393D"/>
<circle cx="441.5" cy="204.5" r="1.5" fill="#36393D"/>
<circle cx="463.5" cy="204.5" r="1.5" fill="#36393D"/>
<circle cx="485.5" cy="204.5" r="1.5" fill="#36393D"/>
<circle cx="507.5" cy="204.5" r="1.5" fill="#36393D"/>
<circle cx="529.5" cy="204.5" r="1.5" fill="#36393D"/>
<circle cx="551.5" cy="204.5" r="1.5" fill="#36393D"/>
<circle cx="573.5" cy="204.5" r="1.5" fill="#36393D"/>
<circle cx="595.5" cy="204.5" r="1.5" fill="#36393D"/>
<circle cx="617.5" cy="204.5" r="1.5" fill="#36393D"/>
<circle cx="639.5" cy="204.5" r="1.5" fill="#36393D"/>
<circle cx="661.5" cy="204.5" r="1.5" fill="#36393D"/>
<circle cx="683.5" cy="204.5" r="1.5" fill="#36393D"/>
<circle cx="705.5" cy="204.5" r="1.5" fill="#36393D"/>
<circle cx="727.5" cy="204.5" r="1.5" fill="#36393D"/>
<circle cx="749.5" cy="204.5" r="1.5" fill="#36393D"/>
<circle cx="771.5" cy="204.5" r="1.5" fill="#36393D"/>
<circle cx="793.5" cy="204.5" r="1.5" fill="#36393D"/>
<circle cx="815.5" cy="204.5" r="1.5" fill="#36393D"/>
<circle cx="837.5" cy="204.5" r="1.5" fill="#36393D"/>
<circle cx="859.5" cy="204.5" r="1.5" fill="#36393D"/>
<circle cx="881.5" cy="204.5" r="1.5" fill="#36393D"/>
<circle cx="903.5" cy="204.5" r="1.5" fill="#36393D"/>
<circle cx="925.5" cy="204.5" r="1.5" fill="#36393D"/>
<circle cx="947.5" cy="204.5" r="1.5" fill="#36393D"/>
<g filter="url(#filter12_d_451_1242)">
<circle cx="969.5" cy="204.5" r="1.5" fill="#FBD40E"/>
</g>
<circle cx="991.5" cy="204.5" r="1.5" fill="#36393D"/>
<circle cx="1013.5" cy="204.5" r="1.5" fill="#36393D"/>
<circle cx="1035.5" cy="204.5" r="1.5" fill="#36393D"/>
<circle cx="1057.5" cy="204.5" r="1.5" fill="#36393D"/>
<circle cx="1079.5" cy="204.5" r="1.5" fill="#36393D"/>
<circle cx="1101.5" cy="204.5" r="1.5" fill="#36393D"/>
<circle cx="1.5" cy="226.5" r="1.5" fill="#36393D"/>
<circle cx="23.5" cy="226.5" r="1.5" fill="#36393D"/>
<circle cx="45.5" cy="226.5" r="1.5" fill="#36393D"/>
<circle cx="67.5" cy="226.5" r="1.5" fill="#36393D"/>
<circle cx="89.5" cy="226.5" r="1.5" fill="#36393D"/>
<circle cx="111.5" cy="226.5" r="1.5" fill="#36393D"/>
<circle cx="133.5" cy="226.5" r="1.5" fill="#36393D"/>
<circle cx="155.5" cy="226.5" r="1.5" fill="#36393D"/>
<circle cx="177.5" cy="226.5" r="1.5" fill="#36393D"/>
<circle cx="199.5" cy="226.5" r="1.5" fill="#36393D"/>
<circle cx="221.5" cy="226.5" r="1.5" fill="#36393D"/>
<circle cx="243.5" cy="226.5" r="1.5" fill="#36393D"/>
<circle cx="265.5" cy="226.5" r="1.5" fill="#36393D"/>
<circle cx="287.5" cy="226.5" r="1.5" fill="#36393D"/>
<circle cx="309.5" cy="226.5" r="1.5" fill="#36393D"/>
<circle cx="331.5" cy="226.5" r="1.5" fill="#36393D"/>
<circle cx="353.5" cy="226.5" r="1.5" fill="#36393D"/>
<circle cx="375.5" cy="226.5" r="1.5" fill="#36393D"/>
<circle cx="397.5" cy="226.5" r="1.5" fill="#36393D"/>
<circle cx="419.5" cy="226.5" r="1.5" fill="#36393D"/>
<circle cx="441.5" cy="226.5" r="1.5" fill="#36393D"/>
<circle cx="463.5" cy="226.5" r="1.5" fill="#36393D"/>
<circle cx="485.5" cy="226.5" r="1.5" fill="#36393D"/>
<circle cx="507.5" cy="226.5" r="1.5" fill="#36393D"/>
<circle cx="529.5" cy="226.5" r="1.5" fill="#36393D"/>
<circle cx="573.5" cy="226.5" r="1.5" fill="#36393D"/>
<circle cx="573.5" cy="226.5" r="1.5" fill="#36393D"/>
<circle cx="551.5" cy="226.5" r="1.5" fill="#36393D"/>
<circle cx="595.5" cy="226.5" r="1.5" fill="#36393D"/>
<circle cx="617.5" cy="226.5" r="1.5" fill="#36393D"/>
<circle cx="639.5" cy="226.5" r="1.5" fill="#36393D"/>
<circle cx="661.5" cy="226.5" r="1.5" fill="#36393D"/>
<circle cx="683.5" cy="226.5" r="1.5" fill="#36393D"/>
<circle cx="705.5" cy="226.5" r="1.5" fill="#36393D"/>
<circle cx="727.5" cy="226.5" r="1.5" fill="#36393D"/>
<circle cx="749.5" cy="226.5" r="1.5" fill="#36393D"/>
<circle cx="771.5" cy="226.5" r="1.5" fill="#36393D"/>
<circle cx="793.5" cy="226.5" r="1.5" fill="#36393D"/>
<circle cx="815.5" cy="226.5" r="1.5" fill="#36393D"/>
<circle cx="837.5" cy="226.5" r="1.5" fill="#36393D"/>
<circle cx="859.5" cy="226.5" r="1.5" fill="#36393D"/>
<circle cx="881.5" cy="226.5" r="1.5" fill="#36393D"/>
<circle cx="903.5" cy="226.5" r="1.5" fill="#36393D"/>
<circle cx="925.5" cy="226.5" r="1.5" fill="#36393D"/>
<circle cx="947.5" cy="226.5" r="1.5" fill="#36393D"/>
<circle cx="969.5" cy="226.5" r="1.5" fill="#36393D"/>
<circle cx="991.5" cy="226.5" r="1.5" fill="#36393D"/>
<circle cx="1013.5" cy="226.5" r="1.5" fill="#36393D"/>
<circle cx="1035.5" cy="226.5" r="1.5" fill="#36393D"/>
<circle cx="1057.5" cy="226.5" r="1.5" fill="#36393D"/>
<circle cx="1079.5" cy="226.5" r="1.5" fill="#36393D"/>
<circle cx="1101.5" cy="226.5" r="1.5" fill="#36393D"/>
<circle cx="1.5" cy="248.5" r="1.5" fill="#36393D"/>
<circle cx="23.5" cy="248.5" r="1.5" fill="#36393D"/>
<circle cx="45.5" cy="248.5" r="1.5" fill="#36393D"/>
<circle cx="67.5" cy="248.5" r="1.5" fill="#36393D"/>
<circle cx="89.5" cy="248.5" r="1.5" fill="#36393D"/>
<circle cx="111.5" cy="248.5" r="1.5" fill="#36393D"/>
<circle cx="133.5" cy="248.5" r="1.5" fill="#36393D"/>
<circle cx="155.5" cy="248.5" r="1.5" fill="#36393D"/>
<circle cx="177.5" cy="248.5" r="1.5" fill="#36393D"/>
<circle cx="199.5" cy="248.5" r="1.5" fill="#36393D"/>
<circle cx="221.5" cy="248.5" r="1.5" fill="#36393D"/>
<circle cx="243.5" cy="248.5" r="1.5" fill="#36393D"/>
<circle cx="265.5" cy="248.5" r="1.5" fill="#36393D"/>
<circle cx="287.5" cy="248.5" r="1.5" fill="#36393D"/>
<circle cx="309.5" cy="248.5" r="1.5" fill="#36393D"/>
<circle cx="331.5" cy="248.5" r="1.5" fill="#36393D"/>
<circle cx="353.5" cy="248.5" r="1.5" fill="#36393D"/>
<circle cx="375.5" cy="248.5" r="1.5" fill="#36393D"/>
<circle cx="397.5" cy="248.5" r="1.5" fill="#36393D"/>
<circle cx="419.5" cy="248.5" r="1.5" fill="#36393D"/>
<circle cx="441.5" cy="248.5" r="1.5" fill="#36393D"/>
<circle cx="463.5" cy="248.5" r="1.5" fill="#36393D"/>
<circle cx="485.5" cy="248.5" r="1.5" fill="#36393D"/>
<circle cx="507.5" cy="248.5" r="1.5" fill="#36393D"/>
<circle cx="529.5" cy="248.5" r="1.5" fill="#36393D"/>
<circle cx="551.5" cy="248.5" r="1.5" fill="#36393D"/>
<circle cx="573.5" cy="248.5" r="1.5" fill="#36393D"/>
<circle cx="595.5" cy="248.5" r="1.5" fill="#36393D"/>
<circle cx="617.5" cy="248.5" r="1.5" fill="#36393D"/>
<circle cx="639.5" cy="248.5" r="1.5" fill="#36393D"/>
<circle cx="661.5" cy="248.5" r="1.5" fill="#36393D"/>
<circle cx="683.5" cy="248.5" r="1.5" fill="#36393D"/>
<circle cx="705.5" cy="248.5" r="1.5" fill="#36393D"/>
<circle cx="727.5" cy="248.5" r="1.5" fill="#36393D"/>
<circle cx="749.5" cy="248.5" r="1.5" fill="#36393D"/>
<circle cx="771.5" cy="248.5" r="1.5" fill="#36393D"/>
<circle cx="793.5" cy="248.5" r="1.5" fill="#36393D"/>
<circle cx="815.5" cy="248.5" r="1.5" fill="#36393D"/>
<circle cx="837.5" cy="248.5" r="1.5" fill="#36393D"/>
<circle cx="859.5" cy="248.5" r="1.5" fill="#36393D"/>
<circle cx="881.5" cy="248.5" r="1.5" fill="#36393D"/>
<circle cx="903.5" cy="248.5" r="1.5" fill="#36393D"/>
<circle cx="925.5" cy="248.5" r="1.5" fill="#36393D"/>
<circle cx="947.5" cy="248.5" r="1.5" fill="#36393D"/>
<circle cx="969.5" cy="248.5" r="1.5" fill="#36393D"/>
<circle cx="991.5" cy="248.5" r="1.5" fill="#36393D"/>
<circle cx="1013.5" cy="248.5" r="1.5" fill="#36393D"/>
<circle cx="1035.5" cy="248.5" r="1.5" fill="#36393D"/>
<circle cx="1057.5" cy="248.5" r="1.5" fill="#36393D"/>
<circle cx="1079.5" cy="248.5" r="1.5" fill="#36393D"/>
<circle cx="1101.5" cy="248.5" r="1.5" fill="#36393D"/>
<defs>
<filter id="filter0_d_451_1242" x="875" y="0" width="13" height="13" filterUnits="userSpaceOnUse" color-interpolation-filters="sRGB">
<feFlood flood-opacity="0" result="BackgroundImageFix"/>
<feColorMatrix in="SourceAlpha" type="matrix" values="0 0 0 0 0 0 0 0 0 0 0 0 0 0 0 0 0 0 127 0" result="hardAlpha"/>
<feMorphology radius="3" operator="dilate" in="SourceAlpha" result="effect1_dropShadow_451_1242"/>
<feOffset/>
<feGaussianBlur stdDeviation="1"/>
<feComposite in2="hardAlpha" operator="out"/>
<feColorMatrix type="matrix" values="0 0 0 0 0.792157 0 0 0 0 0.937255 0 0 0 0 0.192157 0 0 0 0.25 0"/>
<feBlend mode="normal" in2="BackgroundImageFix" result="effect1_dropShadow_451_1242"/>
<feBlend mode="normal" in="SourceGraphic" in2="effect1_dropShadow_451_1242" result="shape"/>
</filter>
<filter id="filter1_d_451_1242" x="325" y="22" width="13" height="13" filterUnits="userSpaceOnUse" color-interpolation-filters="sRGB">
<feFlood flood-opacity="0" result="BackgroundImageFix"/>
<feColorMatrix in="SourceAlpha" type="matrix" values="0 0 0 0 0 0 0 0 0 0 0 0 0 0 0 0 0 0 127 0" result="hardAlpha"/>
<feMorphology radius="3" operator="dilate" in="SourceAlpha" result="effect1_dropShadow_451_1242"/>
<feOffset/>
<feGaussianBlur stdDeviation="1"/>
<feComposite in2="hardAlpha" operator="out"/>
<feColorMatrix type="matrix" values="0 0 0 0 0.792157 0 0 0 0 0.937255 0 0 0 0 0.192157 0 0 0 0.25 0"/>
<feBlend mode="normal" in2="BackgroundImageFix" result="effect1_dropShadow_451_1242"/>
<feBlend mode="normal" in="SourceGraphic" in2="effect1_dropShadow_451_1242" result="shape"/>
</filter>
<filter id="filter2_d_451_1242" x="611" y="22" width="13" height="13" filterUnits="userSpaceOnUse" color-interpolation-filters="sRGB">
<feFlood flood-opacity="0" result="BackgroundImageFix"/>
<feColorMatrix in="SourceAlpha" type="matrix" values="0 0 0 0 0 0 0 0 0 0 0 0 0 0 0 0 0 0 127 0" result="hardAlpha"/>
<feMorphology radius="3" operator="dilate" in="SourceAlpha" result="effect1_dropShadow_451_1242"/>
<feOffset/>
<feGaussianBlur stdDeviation="1"/>
<feComposite in2="hardAlpha" operator="out"/>
<feColorMatrix type="matrix" values="0 0 0 0 0.792157 0 0 0 0 0.937255 0 0 0 0 0.192157 0 0 0 0.25 0"/>
<feBlend mode="normal" in2="BackgroundImageFix" result="effect1_dropShadow_451_1242"/>
<feBlend mode="normal" in="SourceGraphic" in2="effect1_dropShadow_451_1242" result="shape"/>
</filter>
<filter id="filter3_d_451_1242" x="765" y="22" width="13" height="13" filterUnits="userSpaceOnUse" color-interpolation-filters="sRGB">
<feFlood flood-opacity="0" result="BackgroundImageFix"/>
<feColorMatrix in="SourceAlpha" type="matrix" values="0 0 0 0 0 0 0 0 0 0 0 0 0 0 0 0 0 0 127 0" result="hardAlpha"/>
<feMorphology radius="3" operator="dilate" in="SourceAlpha" result="effect1_dropShadow_451_1242"/>
<feOffset/>
<feGaussianBlur stdDeviation="1"/>
<feComposite in2="hardAlpha" operator="out"/>
<feColorMatrix type="matrix" values="0 0 0 0 0.792157 0 0 0 0 0.937255 0 0 0 0 0.192157 0 0 0 0.25 0"/>
<feBlend mode="normal" in2="BackgroundImageFix" result="effect1_dropShadow_451_1242"/>
<feBlend mode="normal" in="SourceGraphic" in2="effect1_dropShadow_451_1242" result="shape"/>
</filter>
<filter id="filter4_d_451_1242" x="963" y="22" width="13" height="13" filterUnits="userSpaceOnUse" color-interpolation-filters="sRGB">
<feFlood flood-opacity="0" result="BackgroundImageFix"/>
<feColorMatrix in="SourceAlpha" type="matrix" values="0 0 0 0 0 0 0 0 0 0 0 0 0 0 0 0 0 0 127 0" result="hardAlpha"/>
<feMorphology radius="3" operator="dilate" in="SourceAlpha" result="effect1_dropShadow_451_1242"/>
<feOffset/>
<feGaussianBlur stdDeviation="1"/>
<feComposite in2="hardAlpha" operator="out"/>
<feColorMatrix type="matrix" values="0 0 0 0 0.792157 0 0 0 0 0.937255 0 0 0 0 0.192157 0 0 0 0.25 0"/>
<feBlend mode="normal" in2="BackgroundImageFix" result="effect1_dropShadow_451_1242"/>
<feBlend mode="normal" in="SourceGraphic" in2="effect1_dropShadow_451_1242" result="shape"/>
</filter>
<filter id="filter5_d_451_1242" x="1095" y="22" width="13" height="13" filterUnits="userSpaceOnUse" color-interpolation-filters="sRGB">
<feFlood flood-opacity="0" result="BackgroundImageFix"/>
<feColorMatrix in="SourceAlpha" type="matrix" values="0 0 0 0 0 0 0 0 0 0 0 0 0 0 0 0 0 0 127 0" result="hardAlpha"/>
<feMorphology radius="3" operator="dilate" in="SourceAlpha" result="effect1_dropShadow_451_1242"/>
<feOffset/>
<feGaussianBlur stdDeviation="1"/>
<feComposite in2="hardAlpha" operator="out"/>
<feColorMatrix type="matrix" values="0 0 0 0 0.792157 0 0 0 0 0.937255 0 0 0 0 0.192157 0 0 0 0.25 0"/>
<feBlend mode="normal" in2="BackgroundImageFix" result="effect1_dropShadow_451_1242"/>
<feBlend mode="normal" in="SourceGraphic" in2="effect1_dropShadow_451_1242" result="shape"/>
</filter>
<filter id="filter6_d_451_1242" x="105" y="66" width="13" height="13" filterUnits="userSpaceOnUse" color-interpolation-filters="sRGB">
<feFlood flood-opacity="0" result="BackgroundImageFix"/>
<feColorMatrix in="SourceAlpha" type="matrix" values="0 0 0 0 0 0 0 0 0 0 0 0 0 0 0 0 0 0 127 0" result="hardAlpha"/>
<feMorphology radius="3" operator="dilate" in="SourceAlpha" result="effect1_dropShadow_451_1242"/>
<feOffset/>
<feGaussianBlur stdDeviation="1"/>
<feComposite in2="hardAlpha" operator="out"/>
<feColorMatrix type="matrix" values="0 0 0 0 0.792157 0 0 0 0 0.937255 0 0 0 0 0.192157 0 0 0 0.25 0"/>
<feBlend mode="normal" in2="BackgroundImageFix" result="effect1_dropShadow_451_1242"/>
<feBlend mode="normal" in="SourceGraphic" in2="effect1_dropShadow_451_1242" result="shape"/>
</filter>
<filter id="filter7_d_451_1242" x="1073" y="132" width="13" height="13" filterUnits="userSpaceOnUse" color-interpolation-filters="sRGB">
<feFlood flood-opacity="0" result="BackgroundImageFix"/>
<feColorMatrix in="SourceAlpha" type="matrix" values="0 0 0 0 0 0 0 0 0 0 0 0 0 0 0 0 0 0 127 0" result="hardAlpha"/>
<feMorphology radius="3" operator="dilate" in="SourceAlpha" result="effect1_dropShadow_451_1242"/>
<feOffset/>
<feGaussianBlur stdDeviation="1"/>
<feComposite in2="hardAlpha" operator="out"/>
<feColorMatrix type="matrix" values="0 0 0 0 0.792157 0 0 0 0 0.937255 0 0 0 0 0.192157 0 0 0 0.25 0"/>
<feBlend mode="normal" in2="BackgroundImageFix" result="effect1_dropShadow_451_1242"/>
<feBlend mode="normal" in="SourceGraphic" in2="effect1_dropShadow_451_1242" result="shape"/>
</filter>
<filter id="filter8_d_451_1242" x="83" y="132" width="13" height="13" filterUnits="userSpaceOnUse" color-interpolation-filters="sRGB">
<feFlood flood-opacity="0" result="BackgroundImageFix"/>
<feColorMatrix in="SourceAlpha" type="matrix" values="0 0 0 0 0 0 0 0 0 0 0 0 0 0 0 0 0 0 127 0" result="hardAlpha"/>
<feMorphology radius="3" operator="dilate" in="SourceAlpha" result="effect1_dropShadow_451_1242"/>
<feOffset/>
<feGaussianBlur stdDeviation="1"/>
<feComposite in2="hardAlpha" operator="out"/>
<feColorMatrix type="matrix" values="0 0 0 0 0.792157 0 0 0 0 0.937255 0 0 0 0 0.192157 0 0 0 0.25 0"/>
<feBlend mode="normal" in2="BackgroundImageFix" result="effect1_dropShadow_451_1242"/>
<feBlend mode="normal" in="SourceGraphic" in2="effect1_dropShadow_451_1242" result="shape"/>
</filter>
<filter id="filter9_d_451_1242" x="171" y="198" width="13" height="13" filterUnits="userSpaceOnUse" color-interpolation-filters="sRGB">
<feFlood flood-opacity="0" result="BackgroundImageFix"/>
<feColorMatrix in="SourceAlpha" type="matrix" values="0 0 0 0 0 0 0 0 0 0 0 0 0 0 0 0 0 0 127 0" result="hardAlpha"/>
<feMorphology radius="3" operator="dilate" in="SourceAlpha" result="effect1_dropShadow_451_1242"/>
<feOffset/>
<feGaussianBlur stdDeviation="1"/>
<feComposite in2="hardAlpha" operator="out"/>
<feColorMatrix type="matrix" values="0 0 0 0 0.792157 0 0 0 0 0.937255 0 0 0 0 0.192157 0 0 0 0.25 0"/>
<feBlend mode="normal" in2="BackgroundImageFix" result="effect1_dropShadow_451_1242"/>
<feBlend mode="normal" in="SourceGraphic" in2="effect1_dropShadow_451_1242" result="shape"/>
</filter>
<filter id="filter10_d_451_1242" x="941" y="176" width="13" height="13" filterUnits="userSpaceOnUse" color-interpolation-filters="sRGB">
<feFlood flood-opacity="0" result="BackgroundImageFix"/>
<feColorMatrix in="SourceAlpha" type="matrix" values="0 0 0 0 0 0 0 0 0 0 0 0 0 0 0 0 0 0 127 0" result="hardAlpha"/>
<feMorphology radius="3" operator="dilate" in="SourceAlpha" result="effect1_dropShadow_451_1242"/>
<feOffset/>
<feGaussianBlur stdDeviation="1"/>
<feComposite in2="hardAlpha" operator="out"/>
<feColorMatrix type="matrix" values="0 0 0 0 0.792157 0 0 0 0 0.937255 0 0 0 0 0.192157 0 0 0 0.25 0"/>
<feBlend mode="normal" in2="BackgroundImageFix" result="effect1_dropShadow_451_1242"/>
<feBlend mode="normal" in="SourceGraphic" in2="effect1_dropShadow_451_1242" result="shape"/>
</filter>
<filter id="filter11_d_451_1242" x="39" y="198" width="13" height="13" filterUnits="userSpaceOnUse" color-interpolation-filters="sRGB">
<feFlood flood-opacity="0" result="BackgroundImageFix"/>
<feColorMatrix in="SourceAlpha" type="matrix" values="0 0 0 0 0 0 0 0 0 0 0 0 0 0 0 0 0 0 127 0" result="hardAlpha"/>
<feMorphology radius="3" operator="dilate" in="SourceAlpha" result="effect1_dropShadow_451_1242"/>
<feOffset/>
<feGaussianBlur stdDeviation="1"/>
<feComposite in2="hardAlpha" operator="out"/>
<feColorMatrix type="matrix" values="0 0 0 0 0.792157 0 0 0 0 0.937255 0 0 0 0 0.192157 0 0 0 0.25 0"/>
<feBlend mode="normal" in2="BackgroundImageFix" result="effect1_dropShadow_451_1242"/>
<feBlend mode="normal" in="SourceGraphic" in2="effect1_dropShadow_451_1242" result="shape"/>
</filter>
<filter id="filter12_d_451_1242" x="963" y="198" width="13" height="13" filterUnits="userSpaceOnUse" color-interpolation-filters="sRGB">
<feFlood flood-opacity="0" result="BackgroundImageFix"/>
<feColorMatrix in="SourceAlpha" type="matrix" values="0 0 0 0 0 0 0 0 0 0 0 0 0 0 0 0 0 0 127 0" result="hardAlpha"/>
<feMorphology radius="3" operator="dilate" in="SourceAlpha" result="effect1_dropShadow_451_1242"/>
<feOffset/>
<feGaussianBlur stdDeviation="1"/>
<feComposite in2="hardAlpha" operator="out"/>
<feColorMatrix type="matrix" values="0 0 0 0 0.792157 0 0 0 0 0.937255 0 0 0 0 0.192157 0 0 0 0.25 0"/>
<feBlend mode="normal" in2="BackgroundImageFix" result="effect1_dropShadow_451_1242"/>
<feBlend mode="normal" in="SourceGraphic" in2="effect1_dropShadow_451_1242" result="shape"/>
</filter>
</defs>
</svg>
