<svg width="65" height="65" viewBox="0 0 65 65" fill="none" xmlns="http://www.w3.org/2000/svg">
<path d="M12.1575 31.1117C12.5479 31.5021 12.7605 32.0195 12.7605 32.5718C12.7605 33.1241 12.5447 33.6383 12.1575 34.0255C11.3544 34.8254 10.0467 34.8254 9.24691 34.0287C8.44388 33.2257 8.44388 31.9179 9.24691 31.1118C10.0499 30.3151 11.3545 30.315 12.1575 31.1117ZM21.4132 31.7624V33.378C21.4132 34.2064 20.8165 34.8762 19.8929 35.0857L18.6645 35.365C18.5598 35.6601 18.4424 35.9458 18.309 36.2283L18.9788 37.2884C19.4866 38.101 19.4327 38.9993 18.8423 39.5801L17.7092 40.7164C17.1156 41.3035 16.2206 41.3543 15.4207 40.8497L14.3574 40.1799C14.0781 40.3164 13.7893 40.4339 13.4972 40.5354L13.2179 41.7606C13.0084 42.6874 12.3356 43.2873 11.5103 43.2873H9.90101C9.07261 43.2873 8.40283 42.6874 8.19335 41.7606L7.91404 40.5386C7.6252 40.437 7.33636 40.3164 7.05387 40.1831L5.99057 40.8528C5.19388 41.3575 4.29566 41.3067 3.70843 40.7259L2.56582 39.58C1.9818 39.0023 1.92784 38.1041 2.43252 37.2979L3.10224 36.2346C2.96893 35.9553 2.84832 35.6664 2.74675 35.3712L1.51841 35.0919C0.591616 34.8793 -0.00195312 34.2064 -0.00195312 33.3843V31.7687C-0.00195312 30.9434 0.594769 30.2705 1.51841 30.061L2.74675 29.7817C2.85149 29.4865 2.96893 29.2008 3.10224 28.9184L2.43252 27.855C1.92467 27.0488 1.97863 26.1506 2.569 25.5666L3.7021 24.4303C4.29565 23.8431 5.19387 23.7923 5.99057 24.297L7.05388 24.9667C7.33637 24.8302 7.6252 24.7128 7.91405 24.6112L8.19336 23.3892C8.40284 22.4624 9.07571 21.8625 9.90102 21.8625H11.5103C12.3387 21.8625 13.0085 22.4624 13.2179 23.3892L13.4972 24.6112C13.7924 24.7128 14.0813 24.8334 14.3606 24.9667L15.4239 24.3002C16.2206 23.7955 17.1188 23.8463 17.706 24.4271L18.8486 25.573C19.4358 26.1507 19.4866 27.0489 18.9788 27.8551L18.309 28.9184C18.4424 29.1978 18.563 29.4866 18.6645 29.7818L19.8929 30.0611C20.8165 30.2706 21.4132 30.9434 21.4132 31.7687V31.7624ZM14.6621 32.5686C14.6621 31.5085 14.2495 30.5182 13.5004 29.766C11.9578 28.2297 9.45029 28.2297 7.90774 29.766V29.7691C6.36519 31.3117 6.36519 33.8255 7.90774 35.3681C8.67903 36.1362 9.69153 36.5203 10.7041 36.5203C11.7166 36.5203 12.7291 36.1362 13.5035 35.3681C14.2494 34.619 14.6621 33.6256 14.6621 32.5686ZM47.4818 31.6195H50.9384C51.1256 28.9629 52.1254 26.4046 53.8743 24.0813C50.4591 25.0367 47.8723 28.0012 47.4818 31.6195ZM53.8775 41.059C52.1382 38.7419 51.1383 36.1805 50.9415 33.5207H47.4818C47.8722 37.139 50.4591 40.1068 53.8775 41.059ZM56.2326 24.1953C54.2139 26.4711 53.0967 29.0293 52.8777 31.6193H59.2479C59.0511 28.8452 58.0037 26.2647 56.2326 24.1953ZM59.2511 33.5177H52.8776C53.0966 36.1077 54.2138 38.6659 56.2325 40.9417C58.01 38.869 59.0575 36.2885 59.2511 33.5177ZM58.5274 41.0782C61.9839 40.1482 64.6089 37.1615 64.9992 33.5177H61.1523C60.9841 36.2759 60.0763 38.8722 58.5242 41.0782H58.5274ZM61.1524 31.6161H65.0025C64.6089 27.9722 61.9872 24.9855 58.5274 24.0555C60.0731 26.2582 60.9809 28.8578 61.1524 31.6161ZM26.2955 56.2022H40.6517V53.8852H26.2955V56.2022ZM29.0125 64.077H37.9376L38.7121 58.1003H28.2375L29.0125 64.077ZM47.0504 8.64554H57.3974V16.7044L56.5277 15.8348C56.1564 15.4634 55.5565 15.4666 55.1851 15.8348C54.8138 16.2061 54.817 16.806 55.1851 17.1773L57.6736 19.6626C57.6768 19.6658 57.6768 19.6658 57.6799 19.669C57.699 19.688 57.7212 19.7102 57.7434 19.7261C57.7529 19.7356 57.7656 19.742 57.7752 19.7515C57.7878 19.761 57.8005 19.7705 57.8164 19.78C57.8291 19.7896 57.845 19.7959 57.8577 19.8054C57.8704 19.8118 57.8831 19.8213 57.8958 19.8277C57.9085 19.834 57.9243 19.8403 57.9402 19.8499C57.9529 19.8562 57.9656 19.8626 57.9815 19.8689C57.9942 19.8753 58.01 19.8784 58.0259 19.8848C58.0418 19.8911 58.0545 19.8975 58.0703 19.9007C58.0862 19.9038 58.0989 19.907 58.1148 19.9134C58.1306 19.9165 58.1465 19.9229 58.1624 19.926C58.1783 19.9292 58.1941 19.9324 58.2132 19.9324C58.2259 19.9356 58.2417 19.9387 58.2544 19.9387C58.2862 19.9419 58.3147 19.9451 58.3465 19.9451C58.3782 19.9451 58.41 19.9419 58.4385 19.9387C58.4512 19.9356 58.4671 19.9356 58.4798 19.9324C58.4956 19.9292 58.5147 19.9292 58.5306 19.926C58.5464 19.9229 58.5623 19.9197 58.5782 19.9134C58.594 19.9102 58.6067 19.907 58.6226 19.9007C58.6385 19.8943 58.6512 19.8911 58.667 19.8848C58.6829 19.8784 58.6956 19.8753 58.7083 19.8689C58.721 19.8626 58.7369 19.8562 58.7496 19.8499C58.7654 19.8435 58.7781 19.8372 58.794 19.8308C58.8067 19.8245 58.8194 19.815 58.8321 19.8086C58.8448 19.7991 58.8607 19.7927 58.8734 19.7832C58.8892 19.7737 58.9019 19.7642 58.9146 19.7515C58.9241 19.742 58.9368 19.7356 58.9464 19.7261C58.9718 19.707 58.994 19.6848 59.0162 19.6626L61.5015 17.1773C61.8728 16.806 61.8728 16.2061 61.5015 15.8348C61.1301 15.4634 60.5302 15.4634 60.1589 15.8348L59.2924 16.7013V7.69657C59.2924 7.17285 58.8671 6.74751 58.3433 6.74751H47.0472C46.5235 6.74751 46.0982 7.17283 46.0982 7.69657C46.0982 8.22028 46.5235 8.64562 47.0472 8.64562L47.0504 8.64554ZM58.3465 45.1974C57.8227 45.1974 57.3974 45.6227 57.3974 46.1464V56.4935H49.3417L50.2082 55.6269C50.5795 55.2556 50.5795 54.6557 50.2082 54.2844C49.8368 53.913 49.2369 53.913 48.8656 54.2844L46.3803 56.7696C46.3772 56.7728 46.374 56.7792 46.3676 56.7823C46.3486 56.8014 46.3327 56.8204 46.3168 56.8395C46.3105 56.8458 46.3073 56.8522 46.301 56.8585C46.2883 56.8776 46.2724 56.8934 46.2597 56.9125C46.2565 56.9188 46.2534 56.9252 46.2502 56.9283C46.2375 56.9474 46.2248 56.9696 46.2121 56.9918C46.2089 56.995 46.2089 57.0013 46.2058 57.0045C46.1931 57.0267 46.1835 57.0521 46.1708 57.0775C46.1708 57.0807 46.1677 57.0839 46.1677 57.087C46.1581 57.1124 46.1486 57.141 46.1391 57.1664C46.1391 57.1696 46.1359 57.1727 46.1359 57.1759C46.1264 57.2013 46.1201 57.2299 46.1169 57.2584C46.1137 57.2648 46.1137 57.2743 46.1137 57.2807C46.1105 57.3029 46.1042 57.3251 46.1042 57.3505C46.101 57.3822 46.0978 57.414 46.0978 57.4457C46.0978 57.4774 46.101 57.5092 46.1042 57.5409L46.1137 57.6076C46.1169 57.6171 46.1169 57.6235 46.1169 57.633C46.1232 57.6584 46.1296 57.6869 46.1359 57.7123C46.1359 57.7155 46.1391 57.7187 46.1391 57.725C46.1486 57.7504 46.155 57.7758 46.1677 57.8012C46.1708 57.8044 46.1708 57.8075 46.1708 57.8107C46.1804 57.8329 46.1931 57.8583 46.2026 57.8806C46.2058 57.8869 46.2058 57.8901 46.2089 57.8932C46.2216 57.9155 46.2312 57.9345 46.247 57.9536C46.2502 57.9599 46.2534 57.9663 46.2597 57.9726C46.2724 57.9916 46.2851 58.0107 46.301 58.0297C46.3073 58.0361 46.3105 58.0424 46.3137 58.0488C46.3327 58.071 46.3549 58.0964 46.3772 58.1186L48.8624 60.6039C49.0465 60.788 49.2909 60.8832 49.5321 60.8832C49.7765 60.8832 50.0178 60.7911 50.2019 60.6039C50.5732 60.2325 50.5732 59.6326 50.2019 59.2613L49.3354 58.3948H58.3401C58.8638 58.3948 59.2891 57.9695 59.2891 57.4457V46.1496C59.2891 45.6259 58.8638 45.2006 58.3401 45.2006L58.3465 45.1974ZM19.8933 56.4935H9.54623V48.4346L10.4159 49.3042C10.6 49.4883 10.8444 49.5804 11.0856 49.5804C11.3269 49.5804 11.5713 49.4883 11.7553 49.3011C12.1267 48.9297 12.1235 48.3298 11.7553 47.9585L9.26691 45.4732C9.26056 45.4669 9.25739 45.4637 9.25104 45.4605C9.232 45.4446 9.21613 45.4256 9.19708 45.4097L9.15899 45.3812C9.1463 45.3716 9.1336 45.3621 9.12091 45.3526C9.10821 45.3431 9.09234 45.3336 9.07647 45.3272C9.06377 45.3209 9.05425 45.3113 9.04155 45.305C9.02568 45.2955 9.01299 45.2891 8.99712 45.2828C8.98442 45.2764 8.97173 45.2701 8.95903 45.2637C8.94316 45.2574 8.93046 45.251 8.91459 45.2479C8.89872 45.2415 8.88603 45.2383 8.87016 45.232C8.85429 45.2256 8.84159 45.2225 8.82572 45.2193C8.80985 45.2161 8.79716 45.2098 8.78129 45.2098C8.76542 45.2066 8.74637 45.2034 8.72733 45.2002C8.71463 45.1971 8.70193 45.1971 8.68924 45.1939C8.6575 45.1907 8.62893 45.1876 8.59719 45.1876C8.56545 45.1876 8.53371 45.1907 8.50197 45.1939C8.48927 45.1971 8.47658 45.1971 8.46388 45.2002C8.44484 45.2034 8.42897 45.2066 8.40992 45.2098C8.39405 45.2129 8.38136 45.2161 8.36549 45.2225C8.34962 45.2256 8.33692 45.2288 8.32105 45.2352C8.30518 45.2415 8.29248 45.2447 8.27661 45.251C8.26074 45.2574 8.24805 45.2606 8.23218 45.2669C8.21948 45.2733 8.20678 45.2796 8.19092 45.2859C8.17504 45.2923 8.16235 45.2986 8.14648 45.3082C8.13378 45.3145 8.12109 45.324 8.10839 45.3304C8.09569 45.3399 8.07982 45.3463 8.06713 45.3558C8.05443 45.3653 8.04174 45.3748 8.02587 45.3843C8.01317 45.3939 8.00365 45.4002 7.99095 45.4097C7.96873 45.4288 7.94334 45.451 7.92112 45.4732L5.43585 47.9585C5.06449 48.3298 5.06449 48.9297 5.43585 49.3011C5.80721 49.6724 6.4071 49.6724 6.77843 49.3011L7.64494 48.4346V57.4393C7.64494 57.963 8.07026 58.3883 8.594 58.3883H19.8901C20.4138 58.3883 20.8391 57.963 20.8391 57.4393C20.8391 56.9155 20.4138 56.4902 19.8901 56.4902L19.8933 56.4935ZM8.59717 19.9416C9.12089 19.9416 9.54623 19.5163 9.54623 18.9926V8.64554H17.602L16.7354 9.51205C16.3641 9.88341 16.3641 10.4833 16.7354 10.8546C16.9195 11.0387 17.1639 11.1339 17.4052 11.1339C17.6496 11.1339 17.8908 11.0419 18.0749 10.8546L20.5602 8.36936C20.5824 8.34714 20.6046 8.32492 20.6236 8.29953C20.6332 8.29001 20.6395 8.27731 20.649 8.26779C20.6586 8.25509 20.6681 8.2424 20.6776 8.22653C20.6871 8.21383 20.6935 8.19796 20.703 8.18527C20.7093 8.17257 20.7189 8.15987 20.7252 8.14718C20.7316 8.13131 20.7379 8.11861 20.7474 8.10274C20.7538 8.09004 20.7601 8.07735 20.7665 8.06148C20.7728 8.04561 20.776 8.03291 20.7823 8.01704C20.7887 8.00117 20.7919 7.98847 20.7982 7.97261C20.8014 7.95674 20.8046 7.94404 20.8109 7.92817C20.8141 7.9123 20.8204 7.8996 20.8236 7.88373C20.8268 7.86786 20.83 7.84882 20.8331 7.82977C20.8363 7.81708 20.8363 7.80438 20.8395 7.79169C20.8426 7.75994 20.8458 7.7282 20.8458 7.69646C20.8458 7.66472 20.8426 7.63616 20.8395 7.60442C20.8363 7.59172 20.8363 7.57902 20.8331 7.56315C20.83 7.54411 20.8268 7.52824 20.8236 7.5092C20.8204 7.49332 20.8173 7.48063 20.8141 7.46476C20.8109 7.44889 20.8077 7.43619 20.8014 7.42032C20.7982 7.40445 20.7919 7.39176 20.7855 7.37589C20.7792 7.36002 20.776 7.34732 20.7696 7.33145C20.7633 7.31875 20.7569 7.30606 20.7506 7.29019C20.7443 7.27432 20.7379 7.26162 20.7284 7.24575C20.722 7.23305 20.7125 7.22036 20.7062 7.20766C20.6966 7.19179 20.6903 7.1791 20.6808 7.16323C20.6712 7.15053 20.6617 7.13783 20.6522 7.12514C20.6427 7.11244 20.6332 7.09975 20.6236 7.08705C20.6078 7.06801 20.5919 7.04896 20.5729 7.03309C20.5665 7.02674 20.5633 7.02357 20.5602 7.01722L18.0749 4.52878C17.7035 4.15742 17.1036 4.15742 16.7323 4.52878C16.361 4.90014 16.361 5.50002 16.7323 5.87136L17.602 6.74103H8.59404C8.07032 6.74103 7.64498 7.16636 7.64498 7.69009V18.9862C7.64498 19.5099 8.0703 19.9352 8.59404 19.9352L8.59717 19.9416ZM33.4686 10.8069C29.4376 10.8069 26.1016 13.8477 25.6319 17.7581H41.3117C40.842 13.8477 37.5059 10.8069 33.4686 10.8069ZM33.4686 8.90889C35.6713 8.90889 37.4647 7.11876 37.4647 4.9191C37.4647 2.71636 35.6746 0.922974 33.4686 0.922974C31.2658 0.922974 29.4788 2.71311 29.4788 4.9191C29.4788 7.12185 31.2689 8.90889 33.4686 8.90889ZM43.4889 45.7467C43.6921 46.0197 43.7333 46.3784 43.6 46.6894C42.7049 48.7621 40.7593 50.2063 38.5184 50.4633C38.2772 50.4887 38.036 50.5046 37.7948 50.5046C36.5949 50.5046 35.4237 50.1586 34.4208 49.527V51.99H32.5228V49.5302C32.6783 49.4318 32.8306 49.3271 32.9766 49.216C32.8275 49.3271 32.6783 49.4318 32.5228 49.5302C31.5197 50.1587 30.3517 50.5046 29.152 50.5046C28.9107 50.5046 28.6695 50.4887 28.4283 50.4633C26.1874 50.2062 24.2418 48.7589 23.3467 46.6894C23.2134 46.3784 23.2546 46.0197 23.4578 45.7467C24.8035 43.9407 27.0285 42.979 29.263 43.2329C30.4787 43.3757 31.6055 43.8677 32.5228 44.6167C32.764 44.8103 32.9862 45.0262 33.1956 45.2547C32.9862 45.0262 32.7608 44.8103 32.5228 44.6167V41.8331C32.5228 41.649 32.5767 41.4776 32.6656 41.3316C32.5735 41.4776 32.5228 41.649 32.5228 41.8331V42.7345C27.4094 42.2552 23.3946 37.9386 23.3946 32.6979C23.3946 27.1402 27.9144 22.6174 33.4718 22.6174C39.0295 22.6174 43.5523 27.1404 43.5523 32.6979C43.5523 37.935 39.5372 42.2519 34.4209 42.7345V44.6167C35.3445 43.8645 36.4713 43.3725 37.6838 43.2329C39.9246 42.9758 42.1465 43.9375 43.4922 45.7435L43.4889 45.7467ZM34.4176 47.3687C34.4176 47.356 34.4144 47.3464 34.4144 47.3337C34.4144 47.3496 34.4176 47.3687 34.4176 47.3845V47.3814V47.3655V47.3687ZM36.7379 35.0154C36.7379 33.2158 35.2715 31.7494 33.4686 31.7494C32.7164 31.7494 32.1006 31.1336 32.1006 30.3814C32.1006 29.6291 32.7164 29.0134 33.4686 29.0134C34.2209 29.0134 34.8398 29.626 34.8398 30.3814C34.8398 30.9051 35.2651 31.3304 35.7889 31.3304C36.3126 31.3304 36.7379 30.9051 36.7379 30.3814C36.7379 28.9086 35.7572 27.6644 34.4177 27.2549V26.6233C34.4177 26.0996 33.9924 25.6742 33.4686 25.6742C32.9449 25.6742 32.5196 26.0996 32.5196 26.6233V27.2549C31.1802 27.6644 30.2025 28.9086 30.2025 30.3814C30.2025 32.181 31.6689 33.6474 33.4686 33.6474C34.224 33.6474 34.8397 34.2632 34.8397 35.0154C34.8397 35.7677 34.224 36.3866 33.4686 36.3866C32.7131 36.3866 32.1006 35.7709 32.1006 35.0154C32.1006 34.4917 31.6752 34.0664 31.1515 34.0664C30.6278 34.0664 30.2024 34.4917 30.2024 35.0154C30.2024 36.4882 31.18 37.7356 32.5195 38.1451V38.7767C32.5195 39.3004 32.9448 39.7257 33.4686 39.7257C33.9923 39.7257 34.4176 39.3004 34.4176 38.7767V38.1451C35.7602 37.7356 36.7379 36.4882 36.7379 35.0154Z" fill="white"/>
</svg>
