<svg width="105" height="95" viewBox="0 0 105 95" fill="none" xmlns="http://www.w3.org/2000/svg">
<rect x="44" y="0.648682" width="60" height="60" rx="30" fill="#FBD40E"/>
<path fill-rule="evenodd" clip-rule="evenodd" d="M57.5102 73.6743H57.4627V73.6776C55.6204 73.6776 53.9553 73.0695 52.7429 72.0904C51.464 71.0579 50.6821 69.6178 50.6789 68.0106H50.6757C50.6757 64.7393 53.778 62.6075 56.8644 62.3702L56.8929 60.1114C56.9056 59.0388 58.4504 59.0588 58.4377 60.1314L58.4092 62.3936C61.388 62.721 64.3162 64.8495 64.3478 68.0038C64.3509 68.4549 64.009 68.8225 63.5817 68.8258C63.1543 68.8292 62.8061 68.4683 62.803 68.0172C62.7903 66.9546 62.2237 65.9656 61.3056 65.2338C57.9628 62.5607 52.2269 64.472 52.2269 68.0105H52.2237C52.2269 69.0831 52.7777 70.0621 53.683 70.7939C54.6391 71.5625 55.9717 72.0436 57.4659 72.0436V72.0469H57.5641V72.0436C59.4064 72.0436 61.0715 72.6518 62.2839 73.6308C63.5628 74.6633 64.3447 76.1035 64.3479 77.7107H64.351C64.351 80.9819 61.2488 83.1138 58.1624 83.3511L58.1339 85.6098C58.1212 86.6824 56.5764 86.6624 56.5891 85.5898L56.6176 83.3277C53.6388 83.0002 50.7106 80.8717 50.679 77.7174C50.6759 77.2663 51.0177 76.8988 51.4451 76.8954C51.8724 76.8921 52.2206 77.2529 52.2238 77.704C52.2365 78.7666 52.8031 79.7556 53.7212 80.4874C57.064 83.1606 62.7999 81.2493 62.7999 77.7107H62.8031C62.7999 76.6381 62.2491 75.6591 61.3437 74.9273C60.3877 74.1588 59.055 73.6776 57.5609 73.6776V73.6743H57.5102ZM18.8394 72.3244C17.8771 73.7344 18.0038 75.5188 18.8489 76.7952H18.4247C17.4149 76.7952 16.4969 77.2296 15.8322 77.9313C13.5118 80.3806 15.1927 84.5374 18.4247 84.5374H35.9712C40.1593 90.0407 49.4973 91.277 57.5129 91.287H57.5255C65.0754 91.15 70.5768 90.0173 74.3694 88.116C78.0256 86.2816 80.1276 83.7354 80.9601 80.6647C83.4387 71.5255 74.2016 59.0793 67.4688 51.3704C67.969 51.2267 68.4185 50.9461 68.7762 50.5718C70.5869 48.6605 69.3618 45.3124 66.6553 45.3124C69.0738 41.7137 71.3814 37.9546 71.6378 35.5993C71.9734 32.5051 69.7543 31.3957 62.4383 34.5868C61.7261 34.0789 61.0708 33.4808 60.4662 32.9295C59.64 32.1777 58.1046 30.7408 57.2879 30.9948C55.7685 31.4693 54.2807 33.678 52.5839 34.921C45.2651 31.7265 43.0489 32.749 43.3876 35.7697C43.644 38.0552 45.9518 41.7241 48.3702 45.3126C47.5281 45.3126 46.8096 45.6267 46.2493 46.2181C44.6443 47.9123 45.4136 50.7658 47.5567 51.3739C43.6504 55.8548 40.3075 60.3694 37.892 64.6627C37.6546 64.6125 37.4108 64.5858 37.1671 64.5858H31.8331C36.7904 62.8115 40.3551 57.8595 40.3551 52.0284C40.3551 44.7074 34.7299 38.7696 27.7942 38.7696C20.8552 38.7663 15.2332 44.7007 15.2332 52.0216C15.2332 57.8524 18.8008 62.804 23.7552 64.579H18.4213C17.4114 64.579 16.4934 65.0134 15.8287 65.715C13.5083 68.1643 15.1892 72.3211 18.4213 72.3211L18.8394 72.3244ZM37.0512 66.2163C36.2883 67.6999 35.6425 69.15 35.1297 70.5601C35.1139 70.6035 35.0981 70.6436 35.0854 70.6871H18.4223C17.8398 70.6871 17.3111 70.4365 16.9281 70.0288C15.5827 68.6087 16.5672 66.2163 18.4223 66.2163L37.0512 66.2163ZM21.8346 78.4323H33.7748C33.8287 79.281 33.9584 80.0997 34.1737 80.8883C34.37 81.6067 34.6295 82.275 34.9461 82.8999H18.4215C17.8391 82.8999 17.3104 82.6492 16.9273 82.2416C15.5819 80.8214 16.5665 78.429 18.4215 78.429L21.8346 78.4323ZM36.8964 83.1271C36.9408 83.1772 36.9787 83.2306 37.0104 83.2908C38.0013 84.6741 39.4447 85.8737 41.4011 86.8427C44.9813 88.617 50.2326 89.6328 57.4977 89.6529C64.8102 89.5192 70.1001 88.4432 73.7022 86.6356C80.2708 83.3409 80.9925 77.6735 78.479 70.9474C76.2853 65.0765 71.5813 58.3738 65.5631 51.6075C65.5251 51.5641 65.4903 51.5173 65.465 51.4672H63.3219C63.8949 53.0043 63.6701 54.6148 62.9041 56.182C62.7078 56.5829 62.2425 56.74 61.8626 56.5328C61.4827 56.3256 61.3339 55.8344 61.5302 55.4334C62.2013 54.0534 62.3406 52.7336 61.5998 51.4672H53.4133C52.6726 52.7336 52.8087 54.0567 53.4829 55.4334C53.6792 55.8344 53.5304 56.3256 53.1506 56.5328C52.7707 56.74 52.3053 56.5829 52.109 56.182C51.3461 54.6148 51.1182 53.0043 51.6912 51.4672H49.5481C49.5196 51.5173 49.488 51.5641 49.45 51.6075C44.8504 56.7734 38.7918 64.5524 36.3607 71.7293V71.7326L36.3543 71.756V71.7627L36.3512 71.766V71.7761L36.3448 71.7928V71.8028L36.3417 71.8128V71.8195L36.3353 71.8262V71.8395L36.329 71.8529V71.873L36.3258 71.8763V71.8796L36.3195 71.893V71.8963C35.3097 74.9404 34.9615 77.8742 35.6642 80.4538C35.9175 81.3962 36.3258 82.2949 36.8956 83.127L36.8964 83.1271ZM34.5539 72.3241C34.1076 73.8712 33.8385 75.3682 33.7657 76.795H21.8344C21.2519 76.795 20.7233 76.5444 20.3402 76.1367C18.9948 74.7166 19.9793 72.3242 21.8344 72.3242L34.5539 72.3241ZM27.7955 52.8371H27.7702V52.8404C25.8392 52.8404 23.9114 51.544 23.9114 49.5324H23.9082C23.9082 47.7548 25.4498 46.5318 27.0928 46.2778L27.1023 45.4692C27.1149 44.3966 28.6597 44.4166 28.647 45.4893L28.6375 46.3012C30.2171 46.5986 31.667 47.8115 31.6828 49.5257C31.6859 49.9768 31.3441 50.3443 30.9167 50.3477C30.4894 50.351 30.1412 49.9902 30.138 49.5391C30.1253 48.0956 27.5644 47.2235 26.0639 48.423C25.6904 48.7204 25.4625 49.1147 25.4625 49.5324H25.4593C25.4656 50.575 26.7097 51.2031 27.7734 51.2031V51.2064H27.824V51.2031C29.755 51.2031 31.6828 52.4995 31.6828 54.5111H31.686C31.686 56.2887 30.1444 57.5117 28.5014 57.7657L28.4919 58.5743C28.4793 59.6469 26.9344 59.6269 26.9472 58.5543L26.9567 57.7423C25.3771 57.4449 23.9272 56.232 23.9114 54.5178C23.9082 54.0667 24.2501 53.6992 24.6775 53.6958C25.1048 53.6925 25.453 54.0534 25.4562 54.5045C25.4689 55.948 28.0298 56.82 29.5302 55.6205C29.9038 55.3231 30.1317 54.9288 30.1317 54.5111H30.1349C30.1285 53.4686 28.8844 52.8404 27.8177 52.8404V52.8371L27.7955 52.8371ZM27.7955 41.4927C33.3036 41.4927 37.7705 46.2074 37.7705 52.0219C37.7705 57.8363 33.3039 62.5511 27.7955 62.5511C22.2874 62.5544 17.8205 57.8363 17.8205 52.0219C17.8205 46.2074 22.2871 41.4927 27.7955 41.4927ZM33.7531 45.7329C37.0421 49.2047 37.0421 54.8387 33.7531 58.31C30.4641 61.7817 25.1266 61.7817 21.838 58.31C18.549 54.8382 18.549 49.2076 21.838 45.7329C25.1271 42.2612 30.4613 42.2612 33.7531 45.7329ZM35.5796 43.8049C39.8785 48.3426 39.8785 55.7036 35.5796 60.2416C31.2808 64.7793 24.3072 64.7793 20.0081 60.2416C15.7092 55.7039 15.7092 48.3429 20.0081 43.8049C24.3101 39.2639 31.2806 39.2639 35.5796 43.8049ZM39.0143 19.727H38.9985V19.7303C37.5771 19.7303 36.197 18.7312 36.2159 17.2977H36.2128C36.2128 16.068 37.1814 15.1893 38.2925 14.932L38.2957 14.6413C38.3084 13.5687 39.8532 13.5887 39.8405 14.6613L39.8373 14.9587C40.8914 15.2394 41.8063 16.1048 41.8189 17.2844C41.8221 17.7355 41.4802 18.103 41.0529 18.1064C40.6255 18.1097 40.2773 17.7489 40.2741 17.2978C40.2678 16.6328 38.8749 16.1383 38.0519 16.7965C37.8715 16.9402 37.767 17.114 37.767 17.2978H37.7638C37.7702 17.7789 38.4508 18.093 39.0015 18.093V18.0964H39.0332V18.093C40.4545 18.093 41.8379 19.0921 41.8157 20.5256H41.8189C41.8189 21.7553 40.8534 22.634 39.7391 22.8913L39.736 23.182C39.7233 24.2546 38.1785 24.2346 38.1912 23.162L38.1944 22.8646C37.1402 22.5839 36.2254 21.7185 36.2127 20.5389C36.2096 20.0878 36.5514 19.7203 36.9788 19.7169C37.4061 19.7136 37.7544 20.0745 37.7575 20.5256C37.7639 21.1905 39.1567 21.6851 39.9798 21.0268C40.1602 20.8831 40.2647 20.7093 40.2647 20.5256H40.2678C40.2615 20.0444 39.5809 19.7303 39.0301 19.7303V19.727H39.0143ZM39.0143 11.0925C34.9244 11.0925 31.6069 14.5943 31.6069 18.9114C31.6069 23.2285 34.9245 26.7303 39.0143 26.7303C43.1042 26.7303 46.4217 23.2285 46.4217 18.9114C46.4217 14.5943 43.1042 11.0925 39.0143 11.0925ZM43.1549 14.5408C40.8662 12.125 37.1593 12.125 34.8703 14.5408C32.5848 16.9533 32.5848 20.8694 34.8703 23.2856C37.159 25.7015 40.8659 25.7015 43.1549 23.2856C45.4436 20.8698 45.4436 16.9536 43.1549 14.5408ZM76.3426 19.7267H76.3268V19.73C74.9054 19.73 73.5221 18.7309 73.5442 17.2974H73.5411C73.5411 16.0678 74.5097 15.189 75.6208 14.9317L75.624 14.641C75.6367 13.5684 77.1815 13.5884 77.1688 14.6611L77.1656 14.9585C78.2197 15.2391 79.1346 16.1045 79.1472 17.2841C79.1504 17.7352 78.8085 18.1028 78.3812 18.1061C77.9538 18.1095 77.6056 17.7486 77.6024 17.2975C77.5961 16.6326 76.2032 16.138 75.3802 16.7963C75.1997 16.94 75.0953 17.1137 75.0953 17.2975H75.0921C75.0985 17.7787 75.7791 18.0928 76.3298 18.0928V18.0961H76.3615V18.0928C77.7828 18.0928 79.1661 19.0919 79.144 20.5254H79.1472C79.1472 21.755 78.1817 22.6338 77.0706 22.8911L77.0674 23.1818C77.0547 24.2544 75.5099 24.2344 75.5227 23.1617L75.5258 22.8644C74.4717 22.5837 73.5568 21.7183 73.5442 20.5387C73.541 20.0876 73.8829 19.72 74.3103 19.7167C74.7376 19.7133 75.0858 20.0742 75.089 20.5253C75.0953 21.1902 76.4882 21.6848 77.3112 21.0265C77.4917 20.8828 77.5961 20.7091 77.5961 20.5253H77.5993C77.593 20.0441 76.9124 19.73 76.3616 19.73L76.3584 19.7267H76.3426ZM76.3426 11.0922C72.2527 11.0922 68.9352 14.5941 68.9352 18.9112C68.9352 23.2282 72.2527 26.7301 76.3426 26.7301C80.4325 26.7301 83.75 23.2282 83.75 18.9112C83.75 14.5941 80.4324 11.0922 76.3426 11.0922ZM80.4832 14.5405C78.1945 12.1247 74.4876 12.1247 72.1986 14.5405C69.9099 16.9564 69.9099 20.8692 72.1986 23.2854C74.4873 25.7012 78.1942 25.7012 80.4832 23.2854C82.7719 20.8695 82.7719 16.9534 80.4832 14.5405ZM57.6433 22.5633H57.6275V22.5667C56.2061 22.5667 54.8259 21.5675 54.8449 20.134H54.8417C54.8417 18.9044 55.8072 18.0256 56.9184 17.7683L56.9215 17.4776C56.9342 16.405 58.479 16.4251 58.4663 17.4977L58.4631 17.7951C59.5173 18.0757 60.4321 18.9411 60.4416 20.1208C60.4448 20.5718 60.1029 20.9394 59.6755 20.9427C59.2482 20.9461 58.9 20.5852 58.8968 20.1341C58.8905 19.4692 57.4976 18.9746 56.6746 19.6329C56.4941 19.7766 56.3897 19.9503 56.3897 20.1341H56.3865C56.3928 20.6153 57.0734 20.9294 57.6242 20.9294V20.9327H57.6558L57.659 20.9294C59.0803 20.9294 60.4605 21.9285 60.4416 23.362H60.4447C60.4447 24.5916 59.4792 25.4704 58.3681 25.7277L58.3649 26.0184C58.3523 27.091 56.8075 27.071 56.8202 25.9984L56.8233 25.701C55.7692 25.4203 54.8544 24.5549 54.8449 23.3753C54.8417 22.9242 55.1836 22.5566 55.6109 22.5533C56.0383 22.55 56.3865 22.9108 56.3897 23.3619C56.396 24.0269 57.7889 24.5214 58.6119 23.8631C58.7923 23.7195 58.8968 23.5457 58.8968 23.3619H58.9C58.8936 22.8808 58.213 22.5667 57.6623 22.5667V22.5633L57.6433 22.5633ZM57.6433 13.9288C53.5533 13.9288 50.2359 17.4307 50.2359 21.7478C50.2359 26.0648 53.5534 29.5667 57.6433 29.5667C61.7331 29.5667 65.0507 26.0648 65.0507 21.7478C65.0507 17.4307 61.7331 13.9288 57.6433 13.9288ZM61.7839 17.3772C59.4983 14.9613 55.7883 14.9613 53.4993 17.3772C51.2106 19.793 51.2106 23.7058 53.4993 26.122C55.7848 28.5378 59.4948 28.5378 61.7839 26.122C64.0726 23.7061 64.0726 19.79 61.7839 17.3772ZM57.5104 49.8356H48.3109C47.9342 49.8356 47.5923 49.6718 47.3454 49.4112C46.4749 48.4923 47.1143 46.9452 48.3109 46.9452H66.7091C67.0858 46.9452 67.4276 47.109 67.6745 47.3696C68.5451 48.2885 67.9056 49.8356 66.7091 49.8356H57.5104ZM57.5104 45.3079H50.2359C50.2137 45.2377 50.1789 45.1709 50.1377 45.1074C47.6623 41.4586 45.1583 37.6293 44.9272 35.5739C44.7658 34.1471 46.5797 34.0101 52.3568 36.583C52.5816 36.6866 52.8475 36.6766 53.0722 36.5296C54.883 35.3467 56.5101 33.138 57.5199 32.6368C58.0612 32.884 58.7196 33.4855 59.4572 34.1571C60.1979 34.8321 61.0083 35.5705 61.9579 36.192C62.1637 36.3257 62.4233 36.3557 62.6639 36.2488C68.4537 33.6693 70.2675 33.8864 70.103 35.4068C69.8687 37.552 67.3679 41.4581 64.8924 45.1071C64.8481 45.1706 64.8165 45.2374 64.7943 45.3076L57.5104 45.3079Z" fill="#2D2E2E"/>
</svg>
