<svg width="67" height="67" viewBox="0 0 67 67" fill="none" xmlns="http://www.w3.org/2000/svg">
<path d="M55.4922 38.3419L53.9598 37.8248H53.9629C53.8106 37.774 53.7059 37.6407 53.6933 37.4821C53.6837 37.3235 53.7694 37.1743 53.9122 37.1045L55.3589 36.3843V36.3875C56.1648 35.9655 56.4916 34.9819 56.1014 34.1601L55.1273 32.2216L55.1305 32.2247C54.9433 31.8218 54.5943 31.514 54.1723 31.3776C53.7567 31.2411 53.2998 31.2697 52.9032 31.4632L51.4564 32.1898C51.3168 32.2596 51.1455 32.2374 51.0281 32.1327C50.9107 32.0312 50.8663 31.8662 50.917 31.717L51.4247 30.1846C51.6944 29.3184 51.2311 28.392 50.3744 28.0874L48.328 27.402C47.4523 27.1006 46.4973 27.5607 46.1863 28.4332L45.6787 29.9656C45.6248 30.1148 45.4915 30.2195 45.3329 30.2353C45.1742 30.248 45.0251 30.1592 44.9585 30.0164L44.2319 28.5696C44.0352 28.173 43.6925 27.8684 43.2768 27.7225C42.858 27.5797 42.398 27.6114 42.0077 27.8145L40.0691 28.779C39.2664 29.2042 38.9428 30.1878 39.333 31.0063L40.0533 32.4531C40.1294 32.5927 40.1104 32.7641 40.0088 32.8846C39.9041 33.0052 39.736 33.0496 39.5869 32.9925L38.0481 32.4848C37.6292 32.3484 37.1724 32.377 36.7789 32.5705C36.3791 32.7672 36.0777 33.1162 35.9318 33.5351L35.2464 35.5815C35.1005 36.013 35.1354 36.4858 35.3416 36.8919C35.5478 37.298 35.9095 37.6058 36.3474 37.7391L37.8862 38.2562C38.0353 38.3038 38.14 38.4371 38.1496 38.5957C38.1654 38.7512 38.0798 38.9003 37.937 38.967L36.4902 39.6935C36.0936 39.8903 35.7922 40.2329 35.6526 40.6517C35.5131 41.0706 35.5479 41.5274 35.7446 41.9209L36.7092 43.8595V43.8563C37.1343 44.659 38.1179 44.9858 38.9365 44.5924L40.3929 43.8722L40.3897 43.8753C40.5293 43.8024 40.6975 43.8214 40.8149 43.9261C40.9322 44.0276 40.9798 44.1894 40.9322 44.3386L40.4151 45.8774V45.8805C40.2818 46.2993 40.3135 46.753 40.5103 47.1497C40.7006 47.5494 41.0433 47.854 41.4653 47.9937L43.5213 48.679C43.6862 48.7361 43.8607 48.7647 44.0384 48.7647C44.7523 48.7583 45.3837 48.3046 45.6185 47.632L46.1261 46.0932V46.09C46.1769 45.9441 46.3102 45.8394 46.4656 45.8299C46.6243 45.814 46.7734 45.8997 46.8464 46.0393L47.573 47.486C47.7665 47.8858 48.1092 48.1904 48.5312 48.3332C48.95 48.4696 49.4037 48.4347 49.8003 48.2412L51.7294 47.2766C52.5353 46.8547 52.862 45.8711 52.4718 45.0493L51.7452 43.6025C51.6786 43.4629 51.7008 43.2948 51.8055 43.1742C51.9071 43.0568 52.0689 43.0092 52.218 43.0536L53.7568 43.5708H53.76C54.623 43.8342 55.5431 43.3741 55.8477 42.5206L56.533 40.4646C56.8217 39.5921 56.3584 38.6497 55.4922 38.3419ZM45.9232 42.5713C44.0925 42.584 42.4299 41.4926 41.7192 39.8014C41.0084 38.1135 41.386 36.1621 42.6742 34.8581C43.9655 33.5572 45.9137 33.1607 47.6079 33.8587C49.3054 34.5535 50.4127 36.2034 50.4159 38.0373C50.4127 40.5248 48.4043 42.5427 45.9168 42.5617L45.9232 42.5713ZM49.188 38.0437H49.1912C49.1943 39.3667 48.4011 40.5598 47.1796 41.0674C45.9612 41.5751 44.5524 41.299 43.6165 40.3662C42.6805 39.4334 42.4013 38.0279 42.9058 36.8063C43.4102 35.5848 44.6032 34.7884 45.9231 34.7884C47.7189 34.7916 49.1721 36.2416 49.1816 38.0374L49.188 38.0437ZM13.8651 43.3169V59.2061C13.8651 60.6497 12.6943 61.8205 11.2506 61.8205H3.40742C1.96382 61.8205 0.792969 60.6498 0.792969 59.2061V43.3169C0.792969 41.8733 1.96374 40.7025 3.40742 40.7025H11.2506C11.9455 40.7025 12.6086 40.9753 13.1003 41.4671C13.5921 41.9589 13.8651 42.6221 13.8651 43.3169ZM25.2552 6.80734H61.34C63.2944 6.80734 64.8777 8.39057 64.8777 10.3451V17.7726L50.6699 19.413C50.4415 17.6267 48.9217 16.2845 47.1164 16.2845H37.9973C36.2332 16.2909 34.7325 17.5727 34.45 19.3114L25.6421 18.2803C27.2475 14.5934 27.105 10.3767 25.2552 6.80734ZM64.8773 19.0511V36.4543C64.8773 38.4087 63.2941 39.992 61.3396 39.992H57.878C57.9129 38.8625 57.2942 37.8154 56.2885 37.3015C57.4782 36.4702 57.878 34.8901 57.2276 33.5956L56.2535 31.657C55.9109 30.959 55.3017 30.4291 54.5625 30.1848C54.2642 30.0896 53.9533 30.042 53.6392 30.042C53.3282 30.0389 53.0205 30.0864 52.7254 30.1848C52.9792 28.7539 52.1479 27.3578 50.771 26.8946L48.7245 26.2156C48.4263 26.114 48.1153 26.0633 47.8012 26.0633C46.6971 26.0569 45.6849 26.6788 45.1868 27.6624C44.8283 27.1516 44.3111 26.7677 43.7146 26.5709C43.4227 26.4726 43.1118 26.4218 42.8008 26.4186C42.3471 26.4186 41.8965 26.5233 41.4904 26.7232L39.5518 27.6973C38.2509 28.3445 37.6196 29.8421 38.0638 31.2255C37.8956 31.2096 37.7243 31.2096 37.5562 31.2255C37.1024 31.2255 36.6519 31.3302 36.2458 31.5301C35.5509 31.8759 35.0211 32.4851 34.7799 33.2212L34.0946 35.201C33.6409 36.578 34.2596 38.082 35.5509 38.7388C35.1131 39.0434 34.7704 39.4653 34.561 39.9571H23.9417C21.9904 39.9571 20.4071 38.3739 20.4071 36.4194V24.3373C22.3298 23.1347 23.9226 21.4691 25.0331 19.4891L34.4243 20.5901C34.6464 22.3923 36.1725 23.7471 37.9873 23.7534H47.1153C48.8921 23.7502 50.3992 22.4494 50.6626 20.6917L64.8773 19.0511ZM47.1095 17.5535C48.3976 17.5535 49.4447 18.5974 49.4447 19.8887V20.1521V20.1489C49.4478 20.7708 49.2067 21.3704 48.7688 21.8115C48.3342 22.2557 47.7377 22.5063 47.1158 22.5095H37.9967C36.7085 22.5063 35.6647 21.4624 35.6615 20.1743V19.8887C35.6615 18.5974 36.7054 17.5535 37.9967 17.5535L47.1095 17.5535ZM13.3249 0.791202C10.0981 0.791202 7.00786 2.07301 4.72651 4.35111C2.44524 6.63238 1.1666 9.7259 1.1666 12.9495C1.1666 16.1732 2.44524 19.2666 4.72651 21.548C7.00778 23.8261 10.0981 25.1079 13.3249 25.1079C16.5486 25.1079 19.642 23.8261 21.9201 21.548C24.2014 19.2667 25.4832 16.1732 25.4832 12.9495C25.48 9.7259 24.1982 6.63563 21.9201 4.35436C19.6388 2.07625 16.5485 0.79437 13.3249 0.791202ZM13.9595 19.0164V20.2601C13.9595 20.6091 13.6739 20.8946 13.3249 20.8946C12.9728 20.8946 12.6904 20.6091 12.6904 20.2601V19.0259C11.3768 18.8704 10.2346 18.0581 9.66029 16.8684C9.59049 16.7129 9.58414 16.5352 9.6476 16.3734C9.70788 16.2148 9.83162 16.0879 9.99027 16.0212C10.1457 15.9546 10.3234 15.9514 10.4821 16.0149C10.6439 16.0783 10.7708 16.2021 10.8374 16.3607C11.3165 17.284 12.2938 17.8424 13.3313 17.7885C14.7876 17.7885 15.971 16.8398 15.971 15.6817C15.971 14.5236 14.7876 13.5749 13.3313 13.5749C11.1738 13.5749 9.42232 12.0614 9.42232 10.1894V10.1926C9.53971 8.42533 10.9326 7.01024 12.6966 6.86745V5.63007C12.6966 5.28106 12.9822 4.99551 13.3312 4.99551C13.6834 4.99551 13.9658 5.28106 13.9658 5.63007V6.87378C15.3047 7.01656 16.4659 7.85733 17.0212 9.08212C17.091 9.24076 17.0942 9.42161 17.0275 9.58025C16.9609 9.73889 16.834 9.8658 16.6754 9.92926C16.5167 9.99589 16.339 9.99907 16.1804 9.93244C16.0186 9.86581 15.8948 9.74206 15.8282 9.58342C15.3555 8.62522 14.356 8.04462 13.2899 8.11123C11.8685 8.12709 10.6502 9.04084 10.6502 10.2084C10.6502 11.376 11.8685 12.3564 13.3249 12.3564C15.4824 12.3564 17.2338 13.8699 17.2338 15.7419C17.091 17.4869 15.7045 18.8736 13.9595 19.0164ZM30.5756 5.53796C30.9722 2.7237 33.3772 0.629565 36.2201 0.62323H48.9114C51.7511 0.629575 54.1592 2.72361 54.5527 5.53796H30.5756ZM63.573 55.6437L39.983 66.0096C39.3897 66.2634 38.752 66.3967 38.1047 66.3967C37.6922 66.3999 37.2798 66.3459 36.88 66.238L14.9746 60.2477C15.0761 59.9082 15.13 59.5592 15.1332 59.2071V43.318C15.13 43.1339 15.1142 42.9499 15.0824 42.7659H25.8796C27.4026 42.7627 28.8843 43.2513 30.109 44.1556L37.0036 50.8058L39.0342 52.6429L39.0373 52.6397C38.9802 53.6836 38.371 54.6195 37.4414 55.0954C36.5118 55.5714 35.3982 55.5142 34.5192 54.9495L25.2133 49.0258L25.2102 49.0289C24.9214 48.8544 24.5502 48.9401 24.3662 49.2225C24.2012 49.5112 24.2868 49.8793 24.5597 50.0697L33.8656 55.9934V55.9902C35.6582 57.1388 38.0252 56.7771 39.3927 55.1462C39.9511 54.4672 40.2779 53.6296 40.3318 52.7507L60.7232 47.3949H60.72C62.9284 46.8333 65.1969 48.0517 65.9425 50.2029C66.6913 52.354 65.6665 54.7178 63.5883 55.6443L63.573 55.6437Z" fill="white"/>
</svg>
