<svg width="105" height="90" viewBox="0 0 105 90" fill="none" xmlns="http://www.w3.org/2000/svg">
<rect x="44" y="0.648682" width="60" height="60" rx="30" fill="#FBD40E"/>
<path d="M50.6955 80.3512H13.0679C12.3405 80.3512 11.75 79.7607 11.75 79.0333V76.5278C11.7533 72.8838 14.7024 69.9315 18.3463 69.9283C19.0738 69.9283 19.6675 70.5187 19.6675 71.2495C19.6675 71.9769 19.0738 72.5674 18.3463 72.5674C16.1606 72.5707 14.3891 74.3421 14.3891 76.5278V77.7153L49.3709 77.7121V76.5246V76.5278C49.3677 74.3421 47.5995 72.5707 45.4137 72.5674H23.9313C23.2038 72.5674 22.6133 71.9769 22.6133 71.2495C22.6133 70.5187 23.2038 69.9283 23.9313 69.9283H45.4137C49.0545 69.9315 52.0068 72.8839 52.0101 76.5278V79.0333C52.0101 79.7575 51.4229 80.348 50.6955 80.3512Z" fill="#2D2E2E"/>
<path d="M45.5025 72.567C44.7751 72.567 44.1846 71.9765 44.1846 71.2491V67.9998C44.1813 67.2952 43.6104 66.7243 42.9058 66.7276H20.8329C20.1283 66.7243 19.5574 67.2952 19.5574 67.9998V71.2425C19.5704 71.6014 19.4367 71.9505 19.1887 72.2081C18.9408 72.4659 18.595 72.6094 18.2394 72.6094C17.8806 72.6094 17.538 72.4659 17.2901 72.2081C17.0422 71.9504 16.9084 71.6014 16.9182 71.2425V67.9998C16.9182 65.837 18.6734 64.0851 20.833 64.0851H42.9059C45.0687 64.0851 46.8206 65.837 46.8206 67.9998V71.2425C46.8239 71.5949 46.6836 71.9309 46.4357 72.1788C46.1877 72.4268 45.8516 72.567 45.5025 72.567Z" fill="#2D2E2E"/>
<path d="M43.5998 50.7621C43.1561 50.7588 42.7451 50.537 42.5004 50.1683C42.2557 49.7997 42.2134 49.3332 42.3863 48.9254C45.978 40.4269 51.2563 32.7478 57.9016 26.3505C58.4268 25.8449 59.262 25.8612 59.7676 26.3864C60.2733 26.9084 60.257 27.7435 59.7318 28.2525C53.3442 34.4019 48.271 41.7877 44.8227 49.9563C44.6139 50.4456 44.1315 50.7621 43.5998 50.7621Z" fill="#2D2E2E"/>
<path d="M43.2443 58.6116C42.9768 58.6149 42.7158 58.5333 42.4972 58.3832L22.366 44.5449C21.7723 44.1338 21.619 43.3182 22.0268 42.718L25.8045 37.2178C26.2188 36.6208 27.0409 36.4675 27.6411 36.8785L47.7723 50.7102C48.3726 51.1245 48.5259 51.9434 48.1116 52.5436L44.3339 58.0406C44.086 58.3994 43.6782 58.6149 43.2443 58.6116ZM24.9496 43.1155L42.9052 55.4564L45.1889 52.1321L27.2332 39.7945L24.9496 43.1155Z" fill="#2D2E2E"/>
<path d="M30.3195 41.6306C29.778 41.6306 29.2951 41.3044 29.0929 40.8053C28.8906 40.3061 29.0113 39.7319 29.3995 39.36C35.7903 33.2106 40.8661 25.8248 44.3177 17.6563C44.6016 16.9842 45.378 16.671 46.05 16.9549C46.7188 17.2387 47.032 18.0151 46.7481 18.6871V18.6839C43.1563 27.1823 37.8781 34.8648 31.2328 41.2587V41.262C30.9881 41.4969 30.6586 41.6306 30.3161 41.6306L30.3195 41.6306Z" fill="#2D2E2E"/>
<path d="M62.2404 30.9733C61.9729 30.9733 61.7119 30.8918 61.4933 30.7417L41.3621 16.9067C40.7618 16.4924 40.6085 15.6702 41.0228 15.07L44.8005 9.56983L44.8038 9.57309C45.2148 8.97283 46.037 8.81951 46.6372 9.23055L66.7684 23.0689V23.0657C67.3687 23.48 67.522 24.3021 67.1077 24.9023L63.33 30.4025L63.3267 30.3992C63.082 30.7581 62.6743 30.9733 62.2404 30.9733ZM43.9423 15.4772L61.9013 27.8181L64.1849 24.4938L46.2293 12.1529L43.9423 15.4772Z" fill="#2D2E2E"/>
<path d="M87.6708 69.6381C87.4065 69.6381 87.1455 69.5599 86.9269 69.4098L50.4611 44.3487C50.1643 44.1562 49.9555 43.8496 49.887 43.5005C49.8152 43.1515 49.8902 42.7861 50.0925 42.4925C50.2947 42.1989 50.6047 41.9999 50.957 41.9412C51.3094 41.8792 51.6682 41.964 51.9553 42.1761L87.3312 66.4805L90.4011 62.0144L51.743 35.4467L51.7462 35.4435C51.4461 35.251 51.2373 34.9443 51.1688 34.5953C51.097 34.2462 51.1721 33.8808 51.3743 33.5873C51.5766 33.2937 51.8865 33.0947 52.2389 33.0359C52.5912 32.9739 52.9501 33.0588 53.2404 33.2676L92.985 60.5927C93.2721 60.7917 93.4711 61.0951 93.5363 61.4376C93.5983 61.7834 93.5233 62.139 93.3275 62.4261L88.7603 69.0681C88.5156 69.4269 88.1046 69.6423 87.6707 69.639L87.6708 69.6381Z" fill="#2D2E2E"/>
</svg>
