<svg width="67" height="65" viewBox="0 0 67 65" fill="none" xmlns="http://www.w3.org/2000/svg">
<path fill-rule="evenodd" clip-rule="evenodd" d="M30.2789 51.3037C19.8905 35.7611 37.1493 36.9379 40.5465 24.9364C41.6405 26.5522 42.531 28.1062 43.218 29.61C42.3659 29.7161 41.5727 30.2056 41.1127 30.9988L40.2605 32.479C39.7917 33.2869 39.7769 34.2452 40.1308 35.0443L35.2684 43.4595C34.4015 43.5509 33.5847 44.0404 33.1158 44.8572L32.2637 46.3374C31.5 47.6496 31.9305 49.3421 33.2072 50.1412C32.2784 50.5393 31.3051 50.9262 30.2789 51.3037ZM45.0281 59.7573H26.0449V64.4221H45.0281V59.7573ZM42.6721 56.4754H28.3917V58.1061H42.6752L42.6721 56.4754ZM42.5365 31.8217L41.6843 33.3019C41.36 33.8592 41.5546 34.5786 42.1148 34.8942L49.0826 38.9161C49.6399 39.2405 50.3594 39.0459 50.6749 38.4856L51.527 37.0054C51.8514 36.4481 51.6568 35.7287 51.0965 35.4131L44.1288 31.3912C43.5774 31.0668 42.8609 31.2614 42.5365 31.8217ZM34.5365 45.6719L33.6843 47.1521C33.36 47.7094 33.5546 48.4288 34.1148 48.7444L41.0826 52.7663C41.6399 53.0907 42.3593 52.8961 42.6749 52.3358L43.527 50.8556C43.8514 50.2983 43.6568 49.5789 43.0965 49.2633L36.1288 45.2414C35.5774 44.9258 34.8608 45.1205 34.5365 45.6719ZM41.283 36.3335L36.9661 43.8143L43.9339 47.8363L48.2508 40.3554L41.283 36.3335ZM46.1896 47.2435L48.87 42.6082L65.8015 52.3829C66.2615 52.6483 66.4208 53.2439 66.1554 53.7039L64.4422 56.6644C64.1768 57.1244 63.5812 57.2836 63.1212 57.0182L46.1896 47.2435ZM21.7095 52.4744C27.3798 30.5367 9.16296 37.2859 1.79702 23.253C-3.44277 41.2104 2.76415 51.3127 20.4119 53.5682C18.8196 50.3984 16.0803 48.2607 13.5739 46.3056C10.4188 43.8435 7.59398 41.6467 7.39938 37.9493C7.37579 37.4952 7.72373 37.1031 8.18375 37.0824C8.63785 37.0589 9.03003 37.4068 9.05063 37.8668C9.20986 40.8096 11.7516 42.797 14.5912 45.0085C17.1506 47.0077 19.9432 49.1837 21.7095 52.4744ZM23.7028 35.4961C22.8653 31.766 23.7175 28.6788 24.6699 25.2141C25.3805 22.6399 26.1501 19.8475 26.2711 16.4359C26.2858 15.9818 26.6721 15.622 27.1232 15.6427C27.5773 15.6574 27.937 16.0437 27.9164 16.4948C27.7867 20.0951 26.9964 22.9789 26.2622 25.6445C25.3039 29.1181 24.4665 32.1817 25.4985 35.8646C37.691 24.2555 36.7829 12.4963 22.768 0.57782C24.9707 16.1589 7.48815 20.688 23.7028 35.4961Z" fill="white"/>
</svg>
