<svg width="75" height="64" viewBox="0 0 75 64" fill="none" xmlns="http://www.w3.org/2000/svg">
<rect x="31.23" y="0.459839" width="42.5846" height="42.5846" rx="21.2923" fill="#FBD40E"/>
<path d="M60.3188 17.6662C59.795 15.8675 58.5834 14.3668 57.908 13.6321C56.3486 11.9367 55.0287 11.2618 54.1962 10.994C54.0377 10.9431 53.8732 10.9173 53.7071 10.9173C53.3042 10.9173 52.9179 11.0684 52.6198 11.3426L49.4103 14.2946C48.3858 15.2368 47.197 15.9377 45.8764 16.378C44.3422 16.8895 42.9607 17.704 41.7703 18.7988L37.2787 22.93C37.1952 22.7912 37.0964 22.6641 36.9848 22.5477L36.919 21.7643C36.8787 21.2852 36.587 20.8811 36.1842 20.6662C36.5169 20.6284 36.8557 20.5811 37.2041 20.5178C38.3959 20.301 39.2003 19.1894 39.0354 17.987C38.9344 17.2507 38.3219 16.7048 37.5788 16.6891C35.1286 16.6372 32.2041 15.3708 32.1749 15.3581C30.737 14.6919 27.2047 14.0997 25.7534 13.8764C25.632 13.8577 25.5192 13.8035 25.4279 13.7197L21.8315 10.424C21.5331 10.1506 21.1465 10 20.7428 10C20.5448 10 20.351 10.0362 20.1663 10.1074C18.4187 10.7827 17.0268 12.1177 16.3524 12.8533C14.796 14.5515 14.2361 15.9239 14.0403 16.7764C13.9117 17.3367 14.0961 17.9272 14.5219 18.3173L17.7366 21.2637C18.7627 22.2041 19.5624 23.3289 20.1136 24.6072C20.7541 26.0922 21.6833 27.3993 22.8755 28.4921L27.5517 32.7777C27.3466 32.7247 27.1362 32.6893 26.9188 32.6893C26.7225 32.6893 26.5296 32.7129 26.3425 32.7564C26.326 32.7432 26.3093 32.7276 26.2929 32.7148C26.0733 32.5442 25.8123 32.4541 25.5381 32.4541C25.1791 32.4541 24.8378 32.6103 24.6015 32.8825C24.3686 33.1509 24.264 33.5084 24.3144 33.8634C24.3684 34.2439 24.4913 34.6453 24.6737 35.0633C24.7185 35.2135 24.7891 35.3572 24.88 35.4924C25.0619 35.8395 25.2849 36.1974 25.5489 36.5655C26.3781 38.1054 27.0504 40.1265 27.0587 40.1516C27.5947 41.8364 29.766 45.1811 30.6746 46.5401C30.7608 46.6692 30.8064 46.8202 30.8064 46.9771V51.4002C30.8064 52.002 31.1411 52.5461 31.6801 52.8202C33.6192 53.8067 35.9382 53.9134 36.8449 53.9134C39.6157 53.9134 41.1817 53.2235 41.8688 52.8123C42.3377 52.5317 42.6289 52.0126 42.6289 51.4577V47.6162C42.6289 46.0498 42.9542 44.5307 43.5955 43.1013C44.3292 41.4664 44.7012 39.7288 44.7012 37.9369V34.6423L48.4822 31.1647C48.3865 32.1149 48.4271 33.0474 48.4942 33.7543C48.605 34.9191 49.5718 35.7976 50.7433 35.7976C50.7818 35.7976 50.8208 35.7966 50.8598 35.7946C51.6021 35.7567 52.198 35.1928 52.277 34.4539C52.5375 32.017 54.0484 29.2112 54.0637 29.1833C54.8501 27.8075 55.7411 24.3383 56.0873 22.9112C56.1162 22.7917 56.1799 22.6841 56.2713 22.5999L59.8615 19.2979C60.3155 18.8813 60.4907 18.2559 60.319 17.6663L60.3188 17.6662ZM59.3245 18.7143L57.5202 20.3739C57.191 19.5766 56.8138 18.8569 56.4114 18.2078L58.7388 16.0671C59.0819 16.6447 59.3744 17.2606 59.557 17.8881C59.6437 18.1848 59.5521 18.5051 59.3245 18.7143ZM50.8193 35.0026C50.7938 35.0039 50.7684 35.0045 50.7431 35.0045C49.9917 35.0045 49.3556 34.4357 49.2839 33.6795C49.1883 32.6738 49.1553 31.2837 49.4786 30.0653C49.5455 29.8131 49.3488 29.6087 49.1346 29.6087C49.0538 29.6087 48.9705 29.6377 48.8981 29.7045C47.7862 30.7272 46.159 32.2238 44.701 33.5648C44.5669 33.6881 44.435 33.8094 44.3045 33.9296C44.1698 34.0535 44.0377 34.175 43.9077 34.2945C43.2758 34.8756 42.7051 35.4006 42.2676 35.803C42.0336 36.0183 41.7384 36.1244 41.444 36.1244C41.1143 36.1244 40.7857 35.9914 40.5448 35.7293L40.5205 35.7028C40.0642 35.2066 40.0964 34.4345 40.5927 33.9782L40.6392 33.9354L41.1832 33.4349L43.9079 30.9289L44.3048 30.5639L44.7013 30.1992L45.6233 29.3511C45.7704 29.2158 45.78 28.9869 45.6446 28.8398C45.5732 28.7623 45.4759 28.7229 45.3782 28.7229C45.2905 28.7229 45.2025 28.7547 45.1329 28.8188L44.7013 29.2169L44.3048 29.5827L43.9079 29.9488L41.1832 32.4623L40.7677 32.8455L40.7646 32.8485L39.1442 34.3433C38.9095 34.5598 38.6127 34.6667 38.3168 34.6667C37.9873 34.6667 37.6589 34.5341 37.4181 34.2723L37.3786 34.2294C37.1973 34.0324 37.0965 33.7915 37.0677 33.5445C37.0332 33.2471 37.1049 32.9407 37.2865 32.6892C37.334 32.6235 37.3887 32.5616 37.4506 32.5045L37.5895 32.3768L37.6333 32.3365L38.1405 31.8701L39.3731 30.7364L39.7508 30.389L40.3681 29.8213L40.7646 29.4567L40.7829 29.4399L41.1834 29.0716L43.0717 27.3349L43.3791 27.0521L43.4791 26.9602C43.5526 26.8926 43.5901 26.8012 43.5926 26.7087C43.5949 26.6198 43.565 26.5297 43.5 26.4591C43.4301 26.3831 43.3346 26.3446 43.2389 26.3446C43.1531 26.3446 43.067 26.3755 42.9989 26.4381L42.9573 26.4763L42.5676 26.8348L42.0258 27.3331L41.3468 27.9575L40.8001 28.4603L40.7647 28.4928L40.455 28.7776L40.3682 28.8574L40.1154 29.0901L39.4956 29.6602L39.1938 29.9379L38.8887 30.2183L37.8904 31.1366C37.799 31.2207 37.6964 31.2832 37.59 31.3343C37.4234 31.4141 37.2447 31.4587 37.0646 31.4587C36.975 31.4587 36.8859 31.447 36.7981 31.4275C36.738 31.4141 36.6791 31.3946 36.6213 31.3721C36.4532 31.3067 36.2962 31.2062 36.1658 31.0645L36.133 31.029C36.0564 30.9455 35.9985 30.8526 35.9493 30.7565C35.7058 30.2805 35.7922 29.684 36.2051 29.3044L36.798 28.7591L37.131 28.4529L37.5898 28.0309L37.6589 27.9674L39.4888 26.2845L40.0749 25.7453L40.3684 25.4753L40.7355 25.1376L41.0745 24.8257L41.5649 24.3747C41.7133 24.2382 41.723 24.0071 41.5865 23.8587C41.5144 23.7804 41.4163 23.7407 41.3176 23.7407C41.2292 23.7407 41.1406 23.7726 41.0705 23.8371L40.4406 24.4164L40.147 24.6864L39.5344 25.2498L39.2416 25.5194L38.9485 25.789L37.7974 26.8477C37.7328 26.9072 37.6627 26.9564 37.59 26.9994C37.3989 27.1121 37.1854 27.17 36.9713 27.17C36.9132 27.17 36.8556 27.1607 36.7981 27.1524C36.7876 27.151 36.7768 27.1511 36.7664 27.1493C36.5089 27.1057 36.2631 26.9827 36.0726 26.7756C35.9334 26.6242 35.8452 26.4461 35.7961 26.2601C35.6847 25.8365 35.7999 25.3681 36.1447 25.051L36.7981 24.45L37.1421 24.1337L37.195 24.0851L37.4351 23.8641L37.5691 23.7408L37.7281 23.5946L42.3074 19.3827C43.4076 18.3709 44.7094 17.6033 46.1274 17.1305C47.5455 16.6578 48.8473 15.8903 49.9474 14.8783L50.9217 13.9822C51.7986 14.4564 55.165 16.5164 56.8946 20.949L55.7344 22.016C55.5276 22.2061 55.3827 22.451 55.3166 22.7241C55.0222 23.9372 54.1244 27.4785 53.3667 28.8045C53.3667 28.8045 51.7686 31.7484 51.4883 34.3696C51.4508 34.7172 51.168 34.9846 50.8191 35.0024L50.8193 35.0026ZM43.9074 37.9372C43.9074 39.6055 43.5544 41.2547 42.8713 42.7766C42.1884 44.2987 41.8352 45.9481 41.8352 47.6165V48.3419C41.5916 48.4639 40.4104 49.0101 38.5035 49.2202C38.2908 48.4783 37.6148 47.9321 36.8045 47.9321C36.0072 47.9321 35.3406 48.4611 35.1165 49.1848C34.0458 49.0518 32.8682 48.7935 31.5993 48.3578V46.9776C31.5993 46.6646 31.5077 46.3601 31.3337 46.0998C30.5597 44.9419 28.3285 41.5282 27.8115 39.9035C27.8115 39.9035 27.3413 38.4814 26.6818 37.0654C27.5426 36.7214 28.0604 36.315 28.2187 35.8565C28.3151 35.5776 28.287 35.2854 28.1397 35.0341C27.7817 34.4232 27.4272 33.9114 27.0787 33.4956C27.3965 33.5252 27.7102 33.6371 27.9807 33.8468C28.5668 34.301 29.2227 34.9206 29.7179 35.6954C29.7998 35.8233 29.9255 35.8808 30.05 35.8808C30.2513 35.8808 30.4485 35.7304 30.4485 35.4848L30.4486 34.6745V25.5012C30.4486 25.4906 30.4514 25.4807 30.4518 25.4701C30.5091 25.5813 30.5761 25.6879 30.6628 25.7806C30.9228 26.059 31.2902 26.2186 31.6712 26.2186H31.9125C32.2974 26.2186 32.6676 26.0562 32.9281 25.7727C33.0468 25.6437 33.1347 25.4923 33.1963 25.3313C33.2034 25.3875 33.2134 25.4428 33.2134 25.501V33.1291C33.2134 33.3523 33.3942 33.5331 33.6173 33.5331C33.6346 33.5331 33.6495 33.5253 33.6664 33.5232C33.8156 33.5042 33.9396 33.4096 33.9921 33.2739C34.0096 33.2286 34.0214 33.1802 34.0212 33.1287L34.0164 29.9476L34.0149 28.9841L34.01 25.6012L34.0085 24.6221L34.0077 24.035C34.0075 23.9002 34.033 23.7724 34.0693 23.6495C34.108 23.9294 34.2323 24.1944 34.4275 24.4034C34.657 24.6492 34.9715 24.7953 35.3041 24.8277C35.1575 25.0458 35.0572 25.2855 35.0048 25.5352C34.934 25.8734 34.9517 26.2254 35.0568 26.5578C35.1428 26.83 35.2826 27.089 35.4882 27.3126C35.7702 27.6192 36.14 27.8288 36.5415 27.9167L35.6677 28.7204C35.3096 29.0496 35.1073 29.4809 35.046 29.9289C34.9944 30.305 35.0488 30.6898 35.2109 31.0423C35.2964 31.2282 35.4028 31.4074 35.5486 31.5661L35.5815 31.6018C35.6577 31.6846 35.7411 31.7591 35.829 31.8274C35.9684 31.9355 36.1219 32.0216 36.2835 32.0897C36.4032 32.1401 36.526 32.1832 36.6536 32.2098C36.4173 32.5298 36.2814 32.9127 36.2644 33.319C36.2629 33.3549 36.27 33.3894 36.2703 33.4249C36.2754 33.9232 36.4544 34.3969 36.7944 34.7665L36.8338 34.8093C37.2142 35.2229 37.7547 35.4601 38.3166 35.4601C38.7128 35.4601 39.0952 35.3446 39.4215 35.1301C39.4719 35.5309 39.6426 35.9204 39.9363 36.2397L39.9609 36.2665C40.3414 36.6802 40.882 36.9176 41.4438 36.9176C41.949 36.9176 42.4323 36.729 42.8045 36.3867L43.9075 35.3722L43.9074 37.9372ZM41.8352 51.4579C41.8352 51.7324 41.6964 51.9907 41.4609 52.1317C40.8467 52.4994 39.4272 53.1202 36.8444 53.1202C35.3646 53.1202 33.5096 52.8614 32.0392 52.1133C31.7703 51.9765 31.5992 51.7021 31.5992 51.4003V49.1921C32.8432 49.601 34.0013 49.8535 35.0573 49.9856C35.1916 50.8328 35.9193 51.4822 36.8044 51.4822C37.6745 51.4822 38.3953 50.8551 38.5472 50.0287C40.1327 49.8596 41.26 49.4638 41.8352 49.2169L41.8352 51.4579ZM26.1605 33.6604C26.5133 34.0166 26.9483 34.5698 27.4554 35.4351C27.6805 35.8191 26.3636 36.3387 26.3636 36.3387C26.3098 36.2678 26.2651 36.2018 26.2156 36.1332C25.9439 35.7566 25.7307 35.4126 25.5711 35.1051C25.5207 35.0079 25.4737 34.9132 25.4326 34.8229C25.2954 34.5213 25.2096 34.26 25.1557 34.0346C25.1316 33.9336 25.1116 33.8374 25.0994 33.7516C25.0586 33.464 25.2885 33.2472 25.5377 33.2472C25.6287 33.2472 25.7223 33.2761 25.8061 33.3412C25.8191 33.3515 25.8339 33.3647 25.8474 33.3756C25.9431 33.4529 26.0472 33.5462 26.1604 33.6604L26.1605 33.6604ZM18.2721 20.6787L16.9868 19.5008C17.4862 18.3918 19.2768 15.0422 23.4154 12.952L24.8908 14.3043C25.0979 14.494 25.3542 14.6177 25.6319 14.6603C26.8657 14.8502 30.4705 15.4429 31.8566 16.085C31.8566 16.085 34.926 17.4264 37.5613 17.4822C37.9106 17.4896 38.2013 17.7486 38.2487 18.0947C38.3553 18.8725 37.8336 19.5967 37.0614 19.7372C36.4178 19.8544 35.6113 19.9592 34.7856 19.9592C34.3362 19.9592 33.8814 19.9281 33.4437 19.8513C33.4202 19.8471 33.3973 19.8451 33.3749 19.8451C33.0624 19.8451 32.8862 20.2337 33.1336 20.4603C33.4606 20.7599 33.8334 21.1016 34.2321 21.467C34.1997 21.5691 34.1749 21.6746 34.1673 21.7856L34.1341 22.2714C34.0324 22.3429 33.9341 22.4201 33.8443 22.5098C33.4839 22.871 33.267 23.3372 33.2226 23.8393C33.2193 23.8365 33.2153 23.8347 33.212 23.8319L33.154 23.1414C33.0943 22.4325 32.4904 21.8774 31.7792 21.8774C31.0567 21.8774 30.4521 22.442 30.4028 23.1629L30.3511 23.9197C29.9245 24.3139 29.6553 24.876 29.6553 25.5012V29.3278L28.4485 28.2218C28.3784 28.1575 28.29 28.1257 28.2019 28.1257C28.1031 28.1257 28.0046 28.1656 27.9325 28.2442C27.7963 28.393 27.8062 28.6239 27.955 28.7602L29.6553 30.3186V33.6186C29.6319 33.6001 29.6066 33.5853 29.5841 33.5648L23.4115 27.907C22.3096 26.897 21.4338 25.6654 20.8419 24.2928C20.2501 22.9202 19.3743 21.6885 18.2724 20.6785L18.2721 20.6787ZM36.155 22.1535L36.1795 22.4454L36.204 22.7366L36.2195 22.9223L36.2529 23.3193L36.2606 23.4125C36.2894 23.7545 36.0197 24.048 35.6764 24.048H35.4351C35.0954 24.048 34.827 23.7605 34.8502 23.4216L34.8955 22.7604L34.9244 22.3379L34.9396 22.116L34.9531 21.9183L34.9586 21.8399C34.9634 21.7695 34.9834 21.7043 35.0107 21.6431C35.0665 21.5173 35.1657 21.4195 35.2882 21.3592C35.3663 21.3207 35.4508 21.2935 35.5435 21.2935C35.8483 21.2935 36.1021 21.5271 36.1278 21.8307L36.1423 22.0026L36.155 22.1535ZM32.4963 24.7898C32.5251 25.1317 32.2554 25.4251 31.9121 25.4251H31.6708C31.3311 25.4251 31.0627 25.1375 31.0859 24.7989L31.1176 24.3342L31.1492 23.8737L31.1787 23.4403L31.194 23.2171C31.2149 22.9095 31.4706 22.6708 31.7788 22.6708C32.0836 22.6708 32.3375 22.9044 32.3631 23.208L32.381 23.4195L32.4167 23.8438L32.4537 24.2852L32.4963 24.7898ZM34.6867 20.8077L34.6253 20.7513C34.6692 20.752 34.7137 20.7523 34.7581 20.7523C34.7332 20.7697 34.7102 20.789 34.6867 20.8077ZM53.707 11.7105C53.7893 11.7105 53.8722 11.7232 53.9532 11.7492C54.4108 11.8963 55.1687 12.2374 56.1099 13.0121L53.8344 15.1049C52.8973 14.2521 52.0506 13.7062 51.5391 13.4142L53.1568 11.9264C53.3093 11.7859 53.506 11.7105 53.707 11.7105ZM57.3238 14.169C57.653 14.5269 57.9899 14.9396 58.3042 15.3887L55.9692 17.5363C55.4618 16.8101 54.9288 16.1855 54.4072 15.6556L56.7062 13.5411C56.9063 13.7315 57.1119 13.9387 57.3238 14.169Z" fill="#2D2E2E"/>
<path d="M41.5177 33.9163C41.3055 33.8658 41.0974 33.9952 41.0444 34.2051C40.991 34.415 41.1187 34.63 41.328 34.6865C41.3602 34.6953 41.6405 34.7791 41.6848 35.0698C41.7146 35.2661 41.8835 35.4068 42.0765 35.4068C42.0963 35.4068 42.1163 35.4055 42.1365 35.4023C42.353 35.3694 42.5018 35.1671 42.4689 34.9505C42.3682 34.2894 41.8236 33.9894 41.5177 33.9163Z" fill="#2D2E2E"/>
<path d="M38.2542 32.6618C38.2044 32.6426 38.1568 32.6269 38.1144 32.6168C37.9687 32.5826 37.8258 32.6375 37.7314 32.7415C37.6883 32.7891 37.6522 32.8436 37.6364 32.9107C37.5856 33.1237 37.717 33.3378 37.9301 33.3885C37.9332 33.3893 38.2362 33.4695 38.2818 33.7705C38.3115 33.9668 38.4804 34.1075 38.6735 34.1075C38.6933 34.1075 38.7133 34.1061 38.7335 34.103C38.95 34.0701 39.0987 33.8678 39.0658 33.6511C38.9792 33.0814 38.5636 32.7812 38.2542 32.6618Z" fill="#2D2E2E"/>
<path d="M36.8382 29.4226C36.8244 29.4193 36.8114 29.4229 36.7977 29.4212C36.6 29.3956 36.408 29.5169 36.36 29.7164C36.3093 29.9295 36.4407 30.1435 36.6537 30.1942C36.6552 30.1946 36.7223 30.2136 36.7977 30.2628C36.8839 30.3192 36.9809 30.4155 37.0054 30.5762C37.0352 30.7725 37.2041 30.9132 37.3971 30.9132C37.4169 30.9132 37.4369 30.9119 37.4571 30.9087C37.5055 30.9013 37.549 30.8829 37.5895 30.8605C37.7296 30.7821 37.8151 30.6251 37.7895 30.4569C37.7587 30.2546 37.6837 30.0898 37.5895 29.9513C37.3755 29.6371 37.0506 29.4733 36.8382 29.4226Z" fill="#2D2E2E"/>
<path d="M37.2173 25.1902C37.2095 25.1856 37.2019 25.1811 37.1943 25.1767C37.0759 25.1084 36.9603 25.062 36.867 25.0398C36.8436 25.0344 36.8209 25.0388 36.7976 25.0377C36.6107 25.0279 36.4345 25.1439 36.3891 25.3337C36.3383 25.5467 36.4697 25.7608 36.6828 25.8115C36.6841 25.8118 36.735 25.8264 36.7976 25.8621C36.8895 25.9146 37.0072 26.0143 37.0345 26.1933C37.0642 26.3896 37.2331 26.5303 37.4262 26.5303C37.446 26.5303 37.466 26.529 37.4862 26.5258C37.524 26.52 37.5564 26.5033 37.5895 26.4881C37.7458 26.4161 37.8458 26.2529 37.8185 26.0739C37.7848 25.851 37.6982 25.6723 37.5895 25.5264C37.4802 25.38 37.349 25.2696 37.2173 25.1902Z" fill="#2D2E2E"/>
</svg>
