<svg width="75" height="68" viewBox="0 0 75 68" fill="none" xmlns="http://www.w3.org/2000/svg">
<rect x="31.1765" y="0.460144" width="42.5132" height="42.5132" rx="21.2566" fill="#FBD40E"/>
<path d="M22.1901 29.3128C22.1459 29.3731 22.109 29.4384 22.0803 29.5075C22.0803 29.5075 22.0803 29.5324 22.0803 29.5474C22.0587 29.6169 22.0469 29.6892 22.0454 29.762C22.0469 29.8364 22.0586 29.9103 22.0803 29.9815C22.0803 29.9815 22.0803 30.0065 22.0803 30.0165C22.1079 30.0861 22.1448 30.1515 22.1901 30.2111L36.7869 48.5257C36.8222 48.5748 36.8662 48.617 36.9166 48.6504H36.9466C36.9942 48.6854 37.0462 48.7139 37.1013 48.7353H37.1562C37.2955 48.7817 37.446 48.7817 37.5853 48.7353H37.6402C37.6953 48.7139 37.7473 48.6854 37.7949 48.6504H37.8249C37.8753 48.617 37.9193 48.5748 37.9546 48.5257L52.5514 30.2111C52.6554 30.0778 52.7119 29.9136 52.7119 29.7445C52.7119 29.5754 52.6554 29.4112 52.5514 29.2779L46.9772 22.2914C46.9057 22.2043 46.8159 22.134 46.7141 22.0857C46.6122 22.0374 46.501 22.0122 46.3883 22.012H28.3582C28.2455 22.0122 28.1343 22.0374 28.0324 22.0857C27.9306 22.134 27.8408 22.2043 27.7693 22.2914L22.1951 29.2779C22.1951 29.2779 22.1901 29.3078 22.1901 29.3128ZM31.5071 30.5155L35.6042 44.6532L24.336 30.5155H31.5071ZM50.4155 30.5155L39.1473 44.6532L43.2444 30.5155H50.4155ZM37.3757 45.3917L33.0641 30.5155H41.6874L37.3757 45.3917ZM50.4155 29.0184H43.2444L41.6525 23.529H46.034L50.4155 29.0184ZM40.0955 23.529L41.6874 29.0184H33.0641L34.656 23.529H40.0955ZM28.7175 23.529H33.099L31.5071 29.0184H24.336L28.7175 23.529Z" fill="#2D2E2E"/>
<path d="M23.6568 21.1744C23.7261 21.2441 23.8085 21.2994 23.8993 21.3371C23.9901 21.3748 24.0875 21.3941 24.1858 21.3939C24.3839 21.3922 24.5736 21.3134 24.7148 21.1744C24.8537 21.0334 24.9316 20.8434 24.9316 20.6454C24.9316 20.4474 24.8537 20.2574 24.7148 20.1164L22.025 17.4266C21.8831 17.2944 21.6954 17.2224 21.5015 17.2258C21.3075 17.2292 21.1225 17.3078 20.9854 17.445C20.8482 17.5821 20.7697 17.7671 20.7662 17.9611C20.7628 18.155 20.8348 18.3427 20.967 18.4846L23.6568 21.1744Z" fill="#2D2E2E"/>
<path d="M18.7226 33.0856H14.9199C14.7214 33.0856 14.531 33.1644 14.3906 33.3048C14.2503 33.4452 14.1714 33.6356 14.1714 33.8341C14.1714 34.0327 14.2503 34.223 14.3906 34.3634C14.531 34.5038 14.7214 34.5827 14.9199 34.5827H18.7226C18.9211 34.5827 19.1115 34.5038 19.2519 34.3634C19.3923 34.223 19.4711 34.0327 19.4711 33.8341C19.4711 33.6356 19.3923 33.4452 19.2519 33.3048C19.1115 33.1644 18.9211 33.0856 18.7226 33.0856Z" fill="#2D2E2E"/>
<path d="M23.6593 46.4956L20.9695 49.1854C20.8995 49.2546 20.8439 49.337 20.806 49.4278C20.7681 49.5186 20.7485 49.616 20.7485 49.7144C20.7485 49.8128 20.7681 49.9103 20.806 50.0011C20.8439 50.0919 20.8995 50.1742 20.9695 50.2434C21.1099 50.3836 21.3001 50.4623 21.4985 50.4623C21.6969 50.4623 21.8871 50.3836 22.0275 50.2434L24.7173 47.5536C24.8495 47.4117 24.9215 47.224 24.9181 47.0301C24.9147 46.8362 24.8361 46.6511 24.6989 46.514C24.5618 46.3768 24.3768 46.2983 24.1828 46.2949C23.9889 46.2914 23.8012 46.3634 23.6593 46.4956Z" fill="#2D2E2E"/>
<path d="M37.3765 51.7401C37.178 51.7401 36.9876 51.819 36.8472 51.9594C36.7068 52.0997 36.6279 52.2901 36.6279 52.4887V56.2913C36.6279 56.4898 36.7068 56.6802 36.8472 56.8206C36.9876 56.961 37.178 57.0399 37.3765 57.0399C37.575 57.0399 37.7654 56.961 37.9058 56.8206C38.0462 56.6802 38.125 56.4898 38.125 56.2913V52.4887C38.125 52.2901 38.0462 52.0997 37.9058 51.9594C37.7654 51.819 37.575 51.7401 37.3765 51.7401Z" fill="#2D2E2E"/>
<path d="M51.0941 46.4956C50.9522 46.3634 50.7645 46.2914 50.5706 46.2949C50.3766 46.2983 50.1916 46.3768 50.0544 46.514C49.9173 46.6511 49.8387 46.8362 49.8353 47.0301C49.8319 47.224 49.9039 47.4117 50.0361 47.5536L52.7259 50.2434C52.8663 50.3836 53.0565 50.4623 53.2549 50.4623C53.4532 50.4623 53.6435 50.3836 53.7839 50.2434C53.8539 50.1742 53.9094 50.0919 53.9474 50.0011C53.9853 49.9103 54.0049 49.8128 54.0049 49.7144C54.0049 49.616 53.9853 49.5186 53.9474 49.4278C53.9094 49.337 53.8539 49.2546 53.7839 49.1854L51.0941 46.4956Z" fill="#2D2E2E"/>
<path d="M59.8334 33.0856H56.0308C55.8322 33.0856 55.6419 33.1644 55.5015 33.3048C55.3611 33.4452 55.2822 33.6356 55.2822 33.8341C55.2822 34.0327 55.3611 34.223 55.5015 34.3634C55.6419 34.5038 55.8322 34.5827 56.0308 34.5827H59.8334C60.0319 34.5827 60.2223 34.5038 60.3627 34.3634C60.5031 34.223 60.582 34.0327 60.582 33.8341C60.582 33.6356 60.5031 33.4452 60.3627 33.3048C60.2223 33.1644 60.0319 33.0856 59.8334 33.0856Z" fill="#2D2E2E"/>
<path d="M52.7277 17.4266L50.0379 20.1164C49.899 20.2574 49.821 20.4474 49.821 20.6454C49.821 20.8434 49.899 21.0334 50.0379 21.1744C50.1791 21.3134 50.3688 21.3922 50.5669 21.3939C50.6652 21.3941 50.7626 21.3748 50.8534 21.3371C50.9442 21.2994 51.0266 21.2441 51.0959 21.1744L53.7857 18.4846C53.9179 18.3427 53.9899 18.155 53.9865 17.9611C53.983 17.7671 53.9045 17.5821 53.7673 17.445C53.6302 17.3078 53.4452 17.2292 53.2512 17.2258C53.0573 17.2224 52.8696 17.2944 52.7277 17.4266Z" fill="#2D2E2E"/>
<path d="M37.3765 15.9289C37.575 15.9289 37.7654 15.85 37.9058 15.7096C38.0462 15.5693 38.125 15.3789 38.125 15.1803V11.3777C38.125 11.1792 38.0462 10.9888 37.9058 10.8484C37.7654 10.708 37.575 10.6292 37.3765 10.6292C37.178 10.6292 36.9876 10.708 36.8472 10.8484C36.7068 10.9888 36.6279 11.1792 36.6279 11.3777V15.1803C36.6279 15.3789 36.7068 15.5693 36.8472 15.7096C36.9876 15.85 37.178 15.9289 37.3765 15.9289Z" fill="#2D2E2E"/>
</svg>
