<svg width="65" height="59" viewBox="0 0 65 59" fill="none" xmlns="http://www.w3.org/2000/svg">
<rect x="27.0508" y="0.397766" width="36.8872" height="36.8872" rx="18.4436" fill="#FBD40E"/>
<path d="M53.5722 28.0311C53.4349 27.0209 52.7871 26.3328 51.9218 26.2776C51.1352 26.2271 50.1893 26.7554 49.8432 28.0464C49.4654 29.4569 48.3582 32.6846 47.3194 35.0558C47.0473 34.7612 46.692 34.5443 46.2887 34.4417C45.5424 34.2512 44.7542 34.481 44.2289 35.0404C42.1008 37.1656 40.1477 37.9731 38.4238 38.6863C36.8087 39.3545 35.4136 39.9313 34.5136 41.4066C33.6284 42.8573 33.3431 45.0386 33.5993 48.443C32.9913 48.7186 32.5666 49.3302 32.5666 50.0402V53.0592C32.5666 53.4329 32.8699 53.7361 33.2435 53.7361H42.5755C42.7552 53.7361 42.9272 53.6646 43.0543 53.538C43.1815 53.4109 43.2524 53.2389 43.2524 53.0592V50.0402C43.2524 49.397 42.9032 48.835 42.3856 48.5297C42.9471 47.2714 43.9426 46.2198 45.3157 45.0013C45.6414 44.7124 45.9906 44.4153 46.3602 44.1009C47.2428 43.35 48.156 42.573 48.9575 41.7348C50.6538 39.9619 51.2337 38.3652 51.8677 36.3023C52.3914 34.5989 53.7687 29.4747 53.5722 28.0311ZM33.9204 52.3823V50.0402C33.9204 49.8233 34.1037 49.6395 34.3211 49.6395H41.4979C41.7149 49.6395 41.8986 49.8228 41.8986 50.0402V52.3823H33.9204ZM50.5742 35.9047C49.959 37.9057 49.4777 39.2335 47.9799 40.7991C47.2259 41.5873 46.3403 42.3407 45.4832 43.0697C45.108 43.3893 44.7537 43.6904 44.4173 43.9886C43.1386 45.1228 41.7373 46.4746 41.0216 48.2857H34.9444C34.4585 41.7925 35.9792 41.1626 38.9409 39.9374C40.6924 39.2131 42.8721 38.3116 45.1937 35.9899C45.1999 35.9838 45.2055 35.9777 45.2116 35.9715C45.4025 35.7658 45.6802 35.6842 45.9544 35.7541C46.2285 35.824 46.4337 36.0277 46.5026 36.3003C46.6062 36.7087 46.2351 37.6367 44.8466 38.9088C43.7113 39.9492 42.3657 40.7818 41.7205 40.9849C41.3636 41.0972 41.1661 41.4775 41.2784 41.8338C41.3907 42.1902 41.771 42.3882 42.1273 42.2759C43.0533 41.9839 44.5817 40.9875 45.7609 39.9068C46.4868 39.2417 47.2714 38.3744 47.6476 37.4739C48.9197 35.2058 50.6364 30.3155 51.1505 28.3971C51.2909 27.8734 51.6017 27.6125 51.8355 27.6289C52.0316 27.6411 52.1832 27.8652 52.2301 28.2133C52.347 29.0735 51.4175 33.1614 50.5742 35.9047ZM30.9913 48.443C31.2476 45.0386 30.9622 42.8573 30.077 41.4066C29.1771 39.9313 27.7819 39.3545 26.1668 38.6863C24.4429 37.9731 22.4899 37.1656 20.3622 35.0404C19.8364 34.481 19.0482 34.2518 18.3024 34.4417C17.8986 34.5443 17.5439 34.7612 17.2718 35.0558C16.233 32.6841 15.1257 29.4569 14.748 28.0464C14.4019 26.7554 13.4555 26.2276 12.6693 26.2776C11.8041 26.3322 11.1563 27.0209 11.019 28.0311C10.8229 29.4747 12.1992 34.5989 12.7229 36.3023C13.3569 38.3647 13.9368 39.9619 15.6331 41.7348C16.4351 42.573 17.3478 43.35 18.2304 44.1009C18.6 44.4153 18.9492 44.7124 19.2749 45.0013C20.6481 46.2193 21.6435 47.2709 22.205 48.5297C21.6874 48.835 21.3382 49.397 21.3382 50.0402V53.0592C21.3382 53.4329 21.6414 53.7361 22.0151 53.7361H31.3471C31.7208 53.7361 32.024 53.4329 32.024 53.0592V50.0402C32.024 49.3302 31.5993 48.7191 30.9913 48.443ZM20.1728 43.9886C19.8369 43.6904 19.4826 43.3893 19.1074 43.0697C18.2509 42.3407 17.3647 41.5868 16.6107 40.7986C15.113 39.2335 14.6316 37.9052 14.0165 35.9047C13.1732 33.1614 12.2431 29.0735 12.36 28.2133C12.4075 27.8652 12.5586 27.6411 12.7546 27.6289C12.9904 27.6125 13.2998 27.8729 13.4396 28.3971C13.9537 30.3155 15.6704 35.2053 16.9425 37.4734C17.3182 38.3744 18.1028 39.2411 18.8292 39.9068C20.0084 40.9875 21.5368 41.9839 22.4628 42.2759C22.8186 42.3882 23.1994 42.1907 23.3117 41.8338C23.424 41.4775 23.2265 41.0972 22.8696 40.9849C22.2249 40.7812 20.8788 39.9492 19.7435 38.9088C18.355 37.6362 17.9834 36.7082 18.0875 36.3003C18.1569 36.0282 18.3616 35.824 18.6358 35.7541C18.9094 35.6842 19.1876 35.7653 19.3785 35.9715C19.3841 35.9777 19.3902 35.9838 19.3964 35.9899C21.718 38.3116 23.8977 39.2131 25.6492 39.9374C28.611 41.1626 30.1317 41.7925 29.6457 48.2857H23.5685C22.8528 46.4746 21.4515 45.1228 20.1728 43.9886ZM30.6702 52.3823H22.692V50.0402C22.692 49.8233 22.8753 49.6395 23.0927 49.6395H30.2695C30.4864 49.6395 30.6702 49.8228 30.6702 50.0402V52.3823ZM42.8476 16.9451C42.8476 17.913 43.2596 18.7859 43.9165 19.4C43.1932 19.6818 42.5224 20.0973 41.939 20.6338C40.7792 21.6997 40.063 23.1474 39.9221 24.7105C39.9052 24.8999 39.9685 25.0877 40.0966 25.2281C40.2248 25.3685 40.406 25.4481 40.5964 25.4481H51.8207C52.0106 25.4481 52.1924 25.368 52.3205 25.2281C52.4486 25.0877 52.5119 24.8999 52.4951 24.7105C52.3542 23.1474 51.638 21.6997 50.4782 20.6338C49.8947 20.0978 49.2239 19.6818 48.5006 19.4C49.1576 18.7864 49.5695 17.913 49.5695 16.9451C49.5695 15.0921 48.0616 13.5842 46.2086 13.5842C44.3555 13.5842 42.8476 15.0921 42.8476 16.9451ZM51.0249 24.0938H41.3917C41.9231 21.8998 43.8782 20.324 46.2081 20.324C48.5379 20.324 50.494 21.8998 51.0249 24.0938ZM46.2086 14.9379C47.3153 14.9379 48.2158 15.8384 48.2158 16.9451C48.2158 18.0518 47.3153 18.9523 46.2086 18.9523C45.1019 18.9523 44.2014 18.0518 44.2014 16.9451C44.2014 15.8384 45.1019 14.9379 46.2086 14.9379ZM12.7699 25.4476H23.9942C24.1841 25.4476 24.3658 25.3674 24.494 25.2276C24.6221 25.0872 24.6854 24.8993 24.6686 24.71C24.5277 23.1469 23.8115 21.6992 22.6517 20.6333C22.0682 20.0973 21.3974 19.6813 20.6741 19.3995C21.3311 18.7859 21.743 17.9125 21.743 16.9446C21.743 15.0916 20.2351 13.5836 18.3821 13.5836C16.529 13.5836 15.0211 15.0916 15.0211 16.9446C15.0211 17.9125 15.433 18.7854 16.09 19.3995C15.3667 19.6813 14.6959 20.0968 14.1124 20.6333C12.9526 21.6992 12.2364 23.1469 12.0956 24.71C12.0787 24.8993 12.142 25.0872 12.2701 25.2276C12.3983 25.368 12.5795 25.4476 12.7699 25.4476ZM18.3821 14.9379C19.4888 14.9379 20.3892 15.8384 20.3892 16.9451C20.3892 18.0518 19.4888 18.9523 18.3821 18.9523C17.2753 18.9523 16.3749 18.0518 16.3749 16.9451C16.3749 15.8384 17.2753 14.9379 18.3821 14.9379ZM18.3821 20.324C20.7119 20.324 22.6675 21.8998 23.1984 24.0938H13.5657C14.0971 21.8998 16.0522 20.324 18.3821 20.324ZM39.1288 21.2959C39.4463 21.2336 39.675 20.9554 39.675 20.6318V18.3995C39.675 18.0763 39.4463 17.7981 39.1288 17.7353L38.1364 17.5398L37.8225 16.7828L38.386 15.9425C38.5662 15.674 38.531 15.3157 38.3023 15.087L36.7239 13.5086C36.4952 13.2799 36.1369 13.2447 35.8684 13.4249L35.0276 13.9884L34.2706 13.6745L34.0751 12.6821C34.0123 12.3651 33.7341 12.1364 33.411 12.1364H31.1792C30.856 12.1364 30.5778 12.3651 30.515 12.6821L30.3195 13.6745L29.5625 13.9884L28.7217 13.4249C28.4532 13.2447 28.0949 13.2799 27.8662 13.5086L26.2878 15.087C26.0591 15.3157 26.0244 15.674 26.2041 15.9425L26.7676 16.7833L26.4537 17.5403L25.4613 17.7358C25.1443 17.7986 24.9156 18.0763 24.9156 18.4V20.6323C24.9156 20.9554 25.1443 21.2336 25.4613 21.2964L26.4537 21.4919L26.7676 22.249L26.2041 23.0897C26.0239 23.3582 26.0591 23.7166 26.2878 23.9453L27.8662 25.5237C28.0949 25.7523 28.4532 25.7871 28.7217 25.6074L29.5625 25.0438L30.3195 25.3577L30.515 26.3501C30.5778 26.6671 30.856 26.8958 31.1792 26.8958H33.411C33.7341 26.8958 34.0123 26.6671 34.0751 26.3501L34.2706 25.3577L35.0276 25.0438L35.8684 25.6074C36.1369 25.7876 36.4952 25.7523 36.7239 25.5237L38.3023 23.9453C38.531 23.7166 38.5657 23.3582 38.386 23.0897L37.8225 22.249L38.1364 21.4919L39.1288 21.2959ZM37.5193 20.2336C37.2972 20.2775 37.1114 20.4291 37.0251 20.6384L36.433 22.0652C36.3462 22.2745 36.3697 22.5134 36.4963 22.7017L36.9521 23.3812L36.1609 24.1724L35.4814 23.7166C35.2936 23.5905 35.0542 23.5665 34.8454 23.6538L33.4186 24.2459C33.2093 24.3327 33.0577 24.518 33.0138 24.7401L32.8556 25.542H31.7366L31.5784 24.7401C31.5344 24.518 31.3828 24.3327 31.1735 24.2459L29.7468 23.6538C29.5375 23.567 29.2986 23.5905 29.1107 23.7166L28.4313 24.1724L27.64 23.3812L28.0959 22.7017C28.222 22.5134 28.246 22.2745 28.1592 22.0652L27.567 20.6384C27.4803 20.4291 27.295 20.2775 27.0729 20.2336L26.2709 20.0754V18.9564L27.0729 18.7981C27.295 18.7542 27.4803 18.6026 27.567 18.3933L28.1592 16.9666C28.246 16.7573 28.2225 16.5184 28.0959 16.33L27.64 15.6506L28.4313 14.8593L29.1107 15.3152C29.2986 15.4413 29.5375 15.4653 29.7473 15.3785L31.1741 14.7863C31.3828 14.6995 31.535 14.5142 31.5789 14.2922L31.7371 13.4902H32.8561L33.0143 14.2922C33.0582 14.5142 33.2098 14.6995 33.4191 14.7863L34.8459 15.3785C35.0552 15.4653 35.2941 15.4418 35.4825 15.3152L36.1619 14.8593L36.9531 15.6506L36.4973 16.33C36.3712 16.5184 36.3472 16.7573 36.434 16.9666L37.0261 18.3933C37.1129 18.6026 37.2982 18.7542 37.5203 18.7981L38.3222 18.9564V20.0754L37.5203 20.2336H37.5193ZM32.2951 15.4014C30.0265 15.4014 28.1806 17.2473 28.1806 19.5159C28.1806 21.7844 30.0265 23.6303 32.2951 23.6303C34.5636 23.6303 36.4095 21.7844 36.4095 19.5159C36.4095 17.2473 34.5636 15.4014 32.2951 15.4014ZM32.2951 22.2765C30.7728 22.2765 29.5344 21.0381 29.5344 19.5159C29.5344 17.9936 30.7728 16.7552 32.2951 16.7552C33.8173 16.7552 35.0557 17.9936 35.0557 19.5159C35.0557 21.0381 33.8173 22.2765 32.2951 22.2765ZM32.2951 34.0317C27.6043 34.0317 23.179 31.7463 20.4571 27.9183C20.2407 27.6135 20.3117 27.1909 20.6164 26.9744C20.9212 26.758 21.3438 26.8289 21.5603 27.1337C24.0284 30.6054 28.0413 32.678 32.2951 32.678C35.998 32.678 39.4489 31.1613 41.9354 28.4793L41.7297 28.5334C41.3682 28.6279 40.9981 28.4114 40.9037 28.05C40.8093 27.6881 41.0257 27.3185 41.3871 27.224L43.5597 26.6559C43.767 26.6018 43.988 26.6487 44.1549 26.783C44.3219 26.9173 44.4158 27.123 44.4071 27.3369L44.3193 29.5809C44.3045 29.9546 43.9926 30.2471 43.6164 30.2307C43.2427 30.2159 42.9517 29.9015 42.9665 29.5278L42.9737 29.3512C40.2284 32.341 36.4023 34.0323 32.2956 34.0323L32.2951 34.0317ZM20.1835 11.6954L20.2713 9.45134C20.2861 9.07768 20.5991 8.78568 20.9742 8.80151C21.3479 8.81631 21.6389 9.13077 21.6241 9.50443L21.6169 9.68106C24.3623 6.6912 28.1883 5 32.2951 5C36.9858 5 41.4116 7.2854 44.133 11.1135C44.3494 11.4182 44.2785 11.8409 43.9737 12.0573C43.669 12.2738 43.2463 12.2028 43.0298 11.8981C40.5617 8.42631 36.5488 6.35378 32.2951 6.35378C28.5926 6.35378 25.1413 7.8704 22.6547 10.5524L22.8605 10.4983C23.2219 10.4039 23.592 10.6203 23.6864 10.9817C23.7808 11.3437 23.5644 11.7133 23.203 11.8077L21.0304 12.3759C20.9737 12.3907 20.9166 12.3978 20.8589 12.3978C20.7063 12.3978 20.5562 12.3462 20.4347 12.2487C20.2678 12.1145 20.1738 11.9088 20.1825 11.6949L20.1835 11.6954Z" fill="#2D2E2E"/>
</svg>
