<svg width="70" height="60" viewBox="0 0 70 60" fill="none" xmlns="http://www.w3.org/2000/svg">
<g clip-path="url(#clip0_434_323)">
<rect x="29.199" y="0.429962" width="39.816" height="39.816" rx="19.908" fill="#FBD40E"/>
<path d="M49.7913 20.3089L49.0734 20.2413C48.0853 20.1399 47.2322 19.4812 46.8352 18.5267C46.8268 18.4929 46.8099 18.4507 46.7846 18.4C46.3876 17.4372 46.5312 16.3646 47.1562 15.6044L47.6798 14.9625C48.1444 14.3966 48.4062 13.6787 48.4062 12.9355C48.4062 12.0824 48.0768 11.2801 47.4771 10.6889C46.3201 9.52334 44.4873 9.43042 43.195 10.4693L42.6291 10.9338C41.869 11.5588 40.8048 11.6939 39.8335 11.297C39.7743 11.2632 39.7152 11.2379 39.6646 11.2294C38.7355 10.8156 38.1021 9.97097 38.0091 9.01653L37.9331 8.18036C37.8571 7.38641 37.4855 6.66008 36.9027 6.13646C36.32 5.60436 35.5598 5.30878 34.7574 5.30878H34.6645H34.6307C24.6815 5.30878 16.5901 13.4002 16.5901 23.3494C16.5901 29.1603 19.4195 34.65 24.1491 38.0371C26.4379 39.6756 27.8653 42.2432 28.0764 45.0052C27.2656 45.3093 26.6829 46.0863 26.6829 46.9985C26.6829 47.4884 26.8518 47.9276 27.1305 48.2907C26.8518 48.6539 26.6829 49.0931 26.6829 49.5829C26.6829 50.7569 27.6372 51.7198 28.8197 51.7198H29.0899C29.9768 53.2992 31.6322 54.2958 33.4819 54.2958H35.7876C37.6288 54.2958 39.2927 53.2991 40.1795 51.7198H40.4498C41.6238 51.7198 42.5866 50.7654 42.5866 49.5829C42.5866 49.0931 42.4177 48.6539 42.139 48.2907C42.4177 47.9275 42.5866 47.4883 42.5866 46.9985C42.5866 46.0863 42.0039 45.3093 41.193 45.0052C41.4042 42.2434 42.8315 39.6758 45.1204 38.0371C45.8637 37.5134 46.514 36.9644 47.0883 36.3986C47.1559 36.3395 47.2319 36.2719 47.2995 36.2043C47.3417 36.1621 47.4262 36.0692 47.4515 36.0185C48.465 34.8361 48.4819 33.1215 47.4346 31.8377L47.0461 31.3648C46.4211 30.5962 46.286 29.5151 46.6998 28.5185C46.7167 28.4931 46.7251 28.4593 46.742 28.434C47.1474 27.4543 48.009 26.8292 49.0901 26.7195L49.7911 26.6519C50.5935 26.5759 51.3283 26.2043 51.835 25.6215C52.3671 25.0387 52.6627 24.2786 52.6627 23.4762C52.6627 21.8292 51.4296 20.4694 49.7826 20.3005L49.7913 20.3089ZM40.4415 46.5587C40.6865 46.5587 40.8892 46.7614 40.8892 47.0064C40.8892 47.2513 40.6865 47.454 40.4415 47.454H28.8198C28.5749 47.454 28.3722 47.2513 28.3722 47.0064C28.3722 46.7614 28.5749 46.5587 28.8198 46.5587H40.4415ZM35.4753 21.4743C36.1932 21.7952 36.6999 22.5216 36.6999 23.3577C36.6999 24.1939 36.1932 24.9202 35.4753 25.2412V21.4743ZM33.7861 25.2412C33.0682 24.9203 32.5614 24.1939 32.5614 23.3577C32.5614 22.5216 33.0682 21.7952 33.7861 21.4743V25.2412ZM35.4753 27.0148C37.1391 26.6263 38.3891 25.1398 38.3891 23.3577C38.3891 21.5757 37.1391 20.0891 35.4753 19.7006V15.807C39.2675 16.2293 42.2234 19.4473 42.2234 23.3492C42.2234 27.2512 39.2673 30.4779 35.4753 30.9001V27.0065V27.0148ZM25.1287 36.6771C20.8382 33.6027 18.279 28.6278 18.279 23.3575C18.279 14.6245 25.1622 7.4958 33.7861 7.04823V19.7088C32.1222 20.0974 30.8722 21.5839 30.8722 23.366C30.8722 25.148 32.1222 26.6346 33.7861 27.0231V44.8864H29.7742C29.5208 41.6347 27.8232 38.6112 25.1289 36.6853L25.1287 36.6771ZM35.7791 52.6145H33.4733C32.6118 52.6145 31.801 52.2851 31.1929 51.7276H38.0594C37.4513 52.2935 36.649 52.6145 35.7791 52.6145ZM40.4328 50.0384H28.8111C28.5662 50.0384 28.3635 49.8357 28.3635 49.5908C28.3635 49.3459 28.5662 49.1432 28.8111 49.1432H40.4328C40.6778 49.1432 40.8805 49.3459 40.8805 49.5908C40.8805 49.8357 40.6778 50.0384 40.4328 50.0384ZM39.4784 44.8779H35.4666V41.2377C36.649 40.8576 37.5443 39.8103 37.671 38.5265L37.7385 37.8086C37.8399 36.812 38.5071 35.9505 39.4953 35.562C39.5206 35.5536 39.5544 35.5367 39.5798 35.5198H39.5967C40.5595 35.1313 41.6321 35.2749 42.3838 35.883L43.0257 36.4151C43.2791 36.6262 43.5662 36.7698 43.8619 36.8881C41.3281 38.8222 39.7318 41.7361 39.4868 44.8778L39.4784 44.8779ZM50.5763 24.4978C50.3399 24.7681 50.002 24.937 49.622 24.9708L48.9209 25.0383C47.2317 25.2073 45.8466 26.2208 45.1963 27.7411L45.1371 27.8593C44.4783 29.4218 44.7064 31.1701 45.7368 32.4286L46.1253 32.9016C46.6743 33.5772 46.6659 34.4387 46.1 34.9962C45.5594 35.5198 44.6642 35.5705 44.0983 35.0975L43.448 34.557C42.2064 33.5519 40.4834 33.307 38.9209 33.9489C38.8956 33.9573 38.8702 33.9742 38.8449 33.9826C37.2908 34.6161 36.2266 36.0012 36.0578 37.6229L35.9902 38.3493C35.9564 38.7378 35.7537 39.0841 35.475 39.329V32.5808C40.1963 32.1501 43.9123 28.1721 43.9123 23.3327C43.9123 18.4933 40.1961 14.5234 35.475 14.0926V7.19204C35.5763 7.25117 35.6777 7.31029 35.7622 7.39475C36.0409 7.63968 36.2098 7.98599 36.2436 8.34913L36.3196 9.17681C36.4716 10.7647 37.5189 12.1582 39.0477 12.8086C39.0645 12.8086 39.0899 12.8255 39.1068 12.834C39.1068 12.834 39.1237 12.834 39.1321 12.8424C40.703 13.5181 42.4514 13.2816 43.7099 12.2427L44.2758 11.7782C44.8839 11.2883 45.7454 11.3306 46.2859 11.8795C46.5647 12.1583 46.7251 12.5384 46.7251 12.9353C46.7251 13.2816 46.6069 13.6194 46.3873 13.8897L45.8636 14.5231C44.8417 15.7562 44.5967 17.4877 45.2133 18.9742L45.2302 19.008C45.2302 19.008 45.2555 19.084 45.264 19.1262C45.889 20.6887 47.291 21.7614 48.9211 21.9218L49.639 21.9894C50.4076 22.0654 50.9903 22.7073 50.9903 23.4759C50.9903 23.8475 50.8552 24.2023 50.5934 24.4894L50.5763 24.4978Z" fill="#2D2E2E"/>
</g>
<defs>
<clipPath id="clip0_434_323">
<rect width="69.6781" height="59.7241" fill="white"/>
</clipPath>
</defs>
</svg>
