<svg width="105" height="95" viewBox="0 0 105 95" fill="none" xmlns="http://www.w3.org/2000/svg">
<rect x="44" y="0.648682" width="60" height="60" rx="30" fill="#FBD40E"/>
<path d="M23.1225 17.293C22.9663 17.3711 22.81 17.4883 22.6538 17.6445C22.4975 17.8008 22.3803 17.957 22.3022 18.1133C22.0288 18.6211 21.9409 19.3828 22.0385 20.3984C22.1362 21.4141 22.4194 22.332 22.8882 23.1523C23.5522 24.3242 24.5385 25.2812 25.8471 26.0234C27.1557 26.7656 28.8061 27.3125 30.7983 27.6641C31.853 27.8203 32.8979 27.9375 33.9331 28.0156C34.9682 28.0938 36.6968 28.1914 39.1186 28.3086C41.3452 28.3867 42.9663 28.4648 43.9819 28.543C44.9975 28.6211 45.8569 28.7383 46.56 28.8945C47.4975 29.0898 48.1811 29.3145 48.6108 29.5684C49.0405 29.8223 49.5093 30.2617 50.0171 30.8867C50.603 31.668 51.1108 32.5371 51.5405 33.4941C51.9702 34.4512 52.3999 35.7695 52.8296 37.4492C53.2593 39.1289 53.7475 40.457 54.2944 41.4336C54.8413 42.4102 55.5249 43.2305 56.3452 43.8945C57.0483 44.4414 57.7905 44.8809 58.5718 45.2129C59.353 45.5449 60.603 45.9453 62.3218 46.4141C62.8686 46.5703 63.4448 46.7461 64.0503 46.9414C64.6557 47.1367 65.0757 47.293 65.31 47.4102C66.2866 47.8008 67.1948 48.3379 68.0346 49.0215C68.8745 49.7051 69.4116 50.3008 69.646 50.8086C69.9194 51.5117 70.1343 52.5176 70.2905 53.8262C70.4468 55.1348 70.5835 57.1758 70.7007 59.9492C70.8569 63.6211 71.0522 66.2871 71.2866 67.9473C71.521 69.6074 71.9311 71.0625 72.5171 72.3125C73.2593 73.875 74.2065 75.0469 75.3589 75.8281C76.5112 76.6094 77.8686 77 79.4311 77C79.8608 77 80.1635 76.9805 80.3393 76.9414C80.5151 76.9023 80.7007 76.8242 80.896 76.707C81.2866 76.4727 81.5698 76.1895 81.7456 75.8574C81.9214 75.5254 82.0092 75.125 82.0092 74.6562C82.0092 73.9531 81.8042 73.3965 81.394 72.9863C80.9839 72.5762 80.3882 72.332 79.6069 72.2539C79.0991 72.2148 78.7182 72.1367 78.4643 72.0195C78.2104 71.9023 77.9468 71.7266 77.6733 71.4922C77.2046 71.0234 76.8139 70.2715 76.5014 69.2363C76.1889 68.2012 75.9546 66.8828 75.7983 65.2812C75.7593 64.9297 75.7104 64.207 75.6518 63.1133C75.5932 62.0195 75.5444 60.8672 75.5053 59.6562C75.3882 57.1953 75.271 55.3398 75.1538 54.0898C75.0366 52.8398 74.8803 51.7656 74.685 50.8672C74.3335 49.4609 73.8647 48.3379 73.2788 47.498C72.6928 46.6582 71.7944 45.7695 70.5835 44.832C69.685 44.168 68.6987 43.6016 67.6245 43.1328C66.5503 42.6641 65.1733 42.1953 63.4936 41.7266C62.1264 41.3359 61.1694 41.0332 60.6225 40.8184C60.0757 40.6035 59.6264 40.3398 59.2749 40.0273C58.9233 39.6758 58.6206 39.2363 58.3667 38.709C58.1128 38.1816 57.8491 37.4297 57.5757 36.4531C56.8725 33.875 56.1987 31.9219 55.5542 30.5938C54.9096 29.2656 54.0014 28.0156 52.8296 26.8438C52.0483 26.0625 51.2671 25.4766 50.4858 25.0859C49.7046 24.6953 48.6499 24.3828 47.3218 24.1484C46.3843 23.9922 45.4175 23.875 44.4214 23.7969C43.4253 23.7187 41.7358 23.6211 39.353 23.5039C38.1421 23.4648 36.9897 23.416 35.896 23.3574C34.8022 23.2988 34.0991 23.25 33.7866 23.2109C32.0678 23.0156 30.7104 22.7715 29.7143 22.4785C28.7182 22.1855 27.9858 21.7852 27.5171 21.2773C27.2436 21.0039 27.0581 20.7598 26.9604 20.5449C26.8628 20.3301 26.7944 19.9492 26.7553 19.4023C26.6772 18.6211 26.4331 18.0254 26.0229 17.6152C25.6128 17.2051 25.0561 17 24.353 17C24.0405 17 23.8061 17.0195 23.6499 17.0586C23.4936 17.0977 23.3178 17.1758 23.1225 17.293ZM66.0132 17.293C65.271 17.7227 64.8901 18.3965 64.8706 19.3145C64.851 20.2324 65.1928 20.9062 65.896 21.3359C66.1303 21.4922 66.4624 21.5801 66.8921 21.5996C67.3218 21.6191 68.6694 21.6484 70.935 21.6875C73.1225 21.7266 74.4507 21.7559 74.9194 21.7754C75.3882 21.7949 75.7397 21.8633 75.9741 21.9805C76.2475 22.1367 76.4526 22.293 76.5893 22.4492C76.726 22.6055 76.8725 22.8203 77.0288 23.0938C77.146 23.2891 77.2143 23.6504 77.2339 24.1777C77.2534 24.7051 77.2827 26.0234 77.3218 28.1328C77.3608 30.4375 77.3901 31.8047 77.4096 32.2344C77.4292 32.6641 77.5171 32.9961 77.6733 33.2305C77.8686 33.543 78.1323 33.7871 78.4643 33.9629C78.7964 34.1387 79.1968 34.2266 79.6655 34.2266C80.1343 34.2266 80.5346 34.1387 80.8667 33.9629C81.1987 33.7871 81.4819 33.5039 81.7163 33.1133L82.0092 32.6445V27.7812C82.0092 25.0859 81.9702 23.4258 81.8921 22.8008C81.8139 22.1758 81.5991 21.4727 81.2475 20.6914C80.935 20.1445 80.5053 19.5977 79.9585 19.0508C79.4116 18.5039 78.8647 18.0742 78.3178 17.7617C77.5366 17.4102 76.8335 17.1953 76.2085 17.1172C75.5835 17.0391 73.9428 17 71.2866 17H66.4819L66.0132 17.293ZM70.1733 25.5547C70.0171 25.6719 69.5093 26.1406 68.6499 26.9609C67.7905 27.7812 66.8725 28.6797 65.896 29.6562C64.9194 30.6328 64.021 31.5508 63.2007 32.4102C62.4194 33.2305 61.9897 33.6992 61.9116 33.8164C61.8725 33.9336 61.8335 34.0996 61.7944 34.3145C61.7553 34.5293 61.7358 34.7344 61.7358 34.9297C61.7358 35.6328 61.9507 36.1992 62.3803 36.6289C62.81 37.0586 63.3764 37.2734 64.0796 37.2734C64.2749 37.2734 64.48 37.2539 64.6948 37.2148C64.9096 37.1758 65.0757 37.1367 65.1928 37.0977C65.31 37.0195 65.7788 36.5898 66.5991 35.8086C67.4585 34.9883 68.3764 34.0898 69.353 33.1133C70.3296 32.1367 71.228 31.2188 72.0483 30.3594C72.8686 29.5 73.3374 28.9922 73.4546 28.8359C73.6108 28.6406 73.7085 28.4551 73.7475 28.2793C73.7866 28.1035 73.8061 27.8594 73.8061 27.5469C73.8061 27.0781 73.7182 26.6777 73.5425 26.3457C73.3667 26.0137 73.0835 25.7305 72.6928 25.4961C72.3413 25.2617 71.9214 25.1543 71.4331 25.1738C70.9448 25.1934 70.5249 25.3203 70.1733 25.5547ZM28.396 32.4102C28.0053 32.6445 27.7221 32.9277 27.5464 33.2598C27.3706 33.5918 27.2827 34.0117 27.2827 34.5195C27.2827 34.7539 27.3608 35.877 27.5171 37.8887C27.6733 39.9004 27.8686 42.2148 28.103 44.832C28.4936 49.4414 28.7378 52.1953 28.8354 53.0938C28.9331 53.9922 29.06 54.5586 29.2163 54.793C29.4507 55.1836 29.7339 55.4668 30.0659 55.6426C30.3979 55.8184 30.7983 55.9062 31.2671 55.9062C31.7358 55.9062 32.1362 55.8184 32.4682 55.6426C32.8003 55.4668 33.0835 55.1836 33.3178 54.793C33.435 54.5977 33.5132 54.4121 33.5522 54.2363C33.5913 54.0605 33.6108 53.8164 33.6108 53.5039C33.6108 53.2695 33.5327 52.1465 33.3764 50.1348C33.2202 48.123 33.0249 45.8086 32.7905 43.1914C32.3999 38.582 32.1557 35.8281 32.0581 34.9297C31.9604 34.0313 31.8335 33.4648 31.6772 33.2305C31.4428 32.8398 31.1596 32.5566 30.8276 32.3809C30.4956 32.2051 30.0952 32.1172 29.6264 32.1172C29.3139 32.1172 29.0796 32.1367 28.9233 32.1758C28.7671 32.2148 28.5913 32.293 28.396 32.4102ZM50.0171 45.8281C49.8608 45.9063 48.9526 46.7656 47.2925 48.4062C45.6323 50.0469 43.6889 51.9805 41.4624 54.207L33.435 62.2344L32.9663 62C32.771 61.9219 32.3706 61.873 31.7651 61.8535C31.1596 61.834 29.9194 61.8047 28.0444 61.7656H23.6499L23.1225 62.0586C22.7319 62.293 22.4487 62.5762 22.2729 62.9082C22.0971 63.2402 22.0093 63.6406 22.0093 64.1094C22.0093 64.5781 22.0971 64.9785 22.2729 65.3105C22.4487 65.6426 22.7319 65.9258 23.1225 66.1602C23.3569 66.3164 23.6108 66.4043 23.8843 66.4238C24.1577 66.4434 24.978 66.4531 26.3452 66.4531H29.0991L26.6968 68.8555C26.0327 69.5586 25.4468 70.1836 24.9389 70.7305C24.4311 71.2773 24.1382 71.5898 24.06 71.668C24.021 71.7852 23.9819 71.9512 23.9428 72.166C23.9038 72.3809 23.8843 72.5859 23.8843 72.7812C23.8843 73.4844 24.0991 74.0508 24.5288 74.4805C24.9585 74.9102 25.5249 75.125 26.228 75.125C26.4233 75.125 26.6284 75.1055 26.8432 75.0664C27.0581 75.0273 27.2241 74.9883 27.3413 74.9492C27.4194 74.8711 27.7319 74.5781 28.2788 74.0703C28.8257 73.5625 29.4507 72.9766 30.1538 72.3125L32.5561 69.9102V72.6641C32.5561 74.0313 32.5659 74.8516 32.5854 75.125C32.605 75.3984 32.6928 75.6523 32.8491 75.8867C33.0835 76.2773 33.3667 76.5605 33.6987 76.7363C34.0307 76.9121 34.4311 77 34.8999 77C35.3686 77 35.769 76.9121 36.101 76.7363C36.4331 76.5605 36.7163 76.2773 36.9507 75.8867L37.2436 75.418V71.1992C37.2436 69.4023 37.2339 68.2109 37.2143 67.625C37.1948 67.0391 37.146 66.5898 37.0678 66.2773L36.8335 65.5742L44.978 57.4883C47.2436 55.2617 49.1968 53.3184 50.8374 51.6582C52.478 49.998 53.3374 49.1094 53.4155 48.9922C53.5718 48.6797 53.6499 48.2793 53.6499 47.791C53.6499 47.3027 53.5522 46.9023 53.3569 46.5898C53.1225 46.1992 52.8393 45.916 52.5073 45.7402C52.1753 45.5645 51.7749 45.4766 51.3061 45.4766C50.9936 45.4766 50.7593 45.4961 50.603 45.5352C50.4468 45.5742 50.2514 45.6719 50.0171 45.8281ZM44.2163 65.6914C43.8257 65.9258 43.5425 66.209 43.3667 66.541C43.1909 66.873 43.103 67.2734 43.103 67.7422C43.103 68.2109 43.1909 68.6113 43.3667 68.9434C43.5425 69.2754 43.8257 69.5586 44.2163 69.793C44.4507 69.9492 45.0366 70.0762 45.9741 70.1738C46.9116 70.2715 49.7046 70.5352 54.353 70.9648C57.0093 71.1992 59.353 71.4043 61.3843 71.5801C63.4155 71.7559 64.5288 71.8438 64.7241 71.8438C65.3882 71.8438 65.935 71.6289 66.3647 71.1992C66.7944 70.7695 67.0093 70.2031 67.0093 69.5C67.0093 69.0312 66.9214 68.6309 66.7456 68.2988C66.5698 67.9668 66.2866 67.6836 65.896 67.4492C65.6616 67.293 65.0757 67.166 64.1382 67.0684C63.2007 66.9707 60.4272 66.707 55.8178 66.2773C53.2007 66.043 50.8764 65.8379 48.8452 65.6621C46.8139 65.4863 45.6811 65.3984 45.4468 65.3984C45.1343 65.3984 44.8999 65.418 44.7436 65.457C44.5874 65.4961 44.4116 65.5742 44.2163 65.6914Z" fill="#2D2E2E"/>
</svg>
