<svg width="50" height="53" viewBox="0 0 50 53" fill="none" xmlns="http://www.w3.org/2000/svg">
<g clip-path="url(#clip0_441_415)">
<path d="M44.4336 44.249L43.6035 43.9072C44.6452 42.7679 45.5566 41.5472 46.3379 40.2451C47.1517 38.943 47.8271 37.584 48.3643 36.168C48.9014 34.752 49.3001 33.2952 49.5605 31.7979C49.8535 30.2679 50 28.738 50 27.208C50 24.6689 49.6257 22.2031 48.877 19.8105C48.1283 17.418 47.054 15.1963 45.6543 13.1455C45.6543 13.113 45.6462 13.0804 45.6299 13.0479C45.6136 13.0153 45.5892 12.9827 45.5566 12.9502C44.9382 12.0713 44.2627 11.2331 43.5303 10.4355C42.7979 9.63802 42.0247 8.88118 41.2109 8.16504C41.0156 8.00228 40.8122 7.92904 40.6006 7.94531C40.389 7.96159 40.2181 8.05111 40.0879 8.21387C39.9251 8.40918 39.86 8.61263 39.8926 8.82422C39.9251 9.03581 40.0228 9.20671 40.1855 9.33691C40.8366 9.92285 41.4632 10.5332 42.0654 11.168C42.6676 11.8027 43.2292 12.4619 43.75 13.1455C42.9036 13.471 41.9841 13.7721 40.9912 14.0488C39.9984 14.3255 38.9486 14.5778 37.8418 14.8057C37.5163 13.8617 37.1663 12.9665 36.792 12.1201C36.4176 11.2738 36.0026 10.46 35.5469 9.67871C34.9609 8.63704 34.318 7.70117 33.6182 6.87109C32.9183 6.04102 32.194 5.31673 31.4453 4.69824C32.6172 5.02376 33.7646 5.44694 34.8877 5.96777C36.0107 6.48861 37.0768 7.09082 38.0859 7.77441C38.2812 7.90462 38.4847 7.94531 38.6963 7.89648C38.9079 7.84766 39.0788 7.74186 39.209 7.5791C39.3066 7.38379 39.3392 7.18034 39.3066 6.96875C39.2741 6.75716 39.1602 6.58626 38.9648 6.45605C36.9141 5.05632 34.7005 3.99837 32.3242 3.28223C29.9479 2.56608 27.5065 2.20801 25 2.20801C23.3398 2.20801 21.696 2.37077 20.0684 2.69629C18.4733 2.98926 16.9271 3.45312 15.4297 4.08789C13.9323 4.72266 12.5 5.49577 11.1328 6.40723C9.76562 7.28613 8.49609 8.3278 7.32422 9.53223C6.15234 10.7041 5.11068 11.9736 4.19922 13.3408C3.28776 14.708 2.52279 16.1403 1.9043 17.6377C1.28581 19.1351 0.813802 20.6813 0.488281 22.2764C0.16276 23.904 0 25.5479 0 27.208C0 28.7705 0.146484 30.3005 0.439453 31.7979C0.69987 33.2952 1.10677 34.752 1.66016 36.168C2.21354 37.584 2.88086 38.943 3.66211 40.2451C4.44336 41.5472 5.35482 42.7679 6.39648 43.9072L5.61523 44.249C5.45247 44.2816 4.93164 44.6071 4.05273 45.2256C3.17383 45.8441 2.73438 46.9671 2.73438 48.5947V51.4268C2.73438 51.6221 2.81576 51.8011 2.97852 51.9639C3.14128 52.1266 3.33659 52.208 3.56445 52.208H15.1855H15.2344H15.2832H15.332H15.3809H18.6035C18.8314 52.208 19.0186 52.1266 19.165 51.9639C19.3115 51.8011 19.3848 51.6221 19.3848 51.4268C19.3848 51.1989 19.3115 51.0036 19.165 50.8408C19.0186 50.6781 18.8314 50.5967 18.6035 50.5967H16.1621V47.8623C16.1621 46.43 16.5527 45.4453 17.334 44.9082C18.1152 44.3711 18.5221 44.1025 18.5547 44.1025H18.6035L22.4121 42.5889H22.4609L24.5117 44.5908C24.5768 44.6559 24.6582 44.7129 24.7559 44.7617C24.8535 44.8105 24.9512 44.835 25.0488 44.835C25.179 44.835 25.2848 44.8105 25.3662 44.7617C25.4476 44.7129 25.5371 44.6559 25.6348 44.5908L27.5879 42.54L31.4453 44.1025C31.5104 44.1025 31.9255 44.3711 32.6904 44.9082C33.4554 45.4453 33.8379 46.43 33.8379 47.8623V50.5967H21.0938C20.8659 50.5967 20.6706 50.6781 20.5078 50.8408C20.3451 51.0036 20.2637 51.1989 20.2637 51.4268C20.2637 51.6221 20.3451 51.8011 20.5078 51.9639C20.6706 52.1266 20.8659 52.208 21.0938 52.208H46.4844C46.6797 52.208 46.8587 52.1266 47.0215 51.9639C47.1842 51.8011 47.2656 51.6221 47.2656 51.4268V48.5947C47.2656 46.9671 46.8343 45.8441 45.9717 45.2256C45.1091 44.6071 44.5964 44.2816 44.4336 44.249ZM42.041 43.2725L41.2598 42.9795V42.4912C41.6829 42.2633 42.0573 41.9541 42.3828 41.5635C42.7083 41.1729 42.9525 40.7334 43.1152 40.2451C43.6686 40.18 44.1488 39.9359 44.5557 39.5127C44.9626 39.0895 45.166 38.585 45.166 37.999C45.166 37.6735 45.0846 37.3561 44.9219 37.0469C44.7591 36.7376 44.5638 36.4854 44.3359 36.29V34.874C44.3359 33.5394 43.8883 32.3675 42.9932 31.3584C42.098 30.3493 40.9993 29.7633 39.6973 29.6006C39.6973 29.3402 39.7054 29.0716 39.7217 28.7949C39.738 28.5182 39.7461 28.2497 39.7461 27.9893H48.3887C48.3561 29.4215 48.1934 30.8213 47.9004 32.1885C47.5749 33.5882 47.1436 34.931 46.6064 36.2168C46.0693 37.5026 45.4264 38.7314 44.6777 39.9033C43.8965 41.1077 43.0176 42.2308 42.041 43.2725ZM39.1602 41.5146H38.4766C37.7604 41.5146 37.1582 41.2624 36.6699 40.7578C36.1816 40.2533 35.9375 39.6592 35.9375 38.9756V36.876C36.4583 36.8109 37.1175 36.6644 37.915 36.4365C38.7126 36.2087 39.4694 35.8018 40.1855 35.2158C40.3483 35.5088 40.5518 35.7855 40.7959 36.0459C41.04 36.3063 41.3411 36.5179 41.6992 36.6807V38.9756C41.6992 39.6592 41.4551 40.2533 40.9668 40.7578C40.4785 41.2624 39.8763 41.5146 39.1602 41.5146ZM39.6973 43.0283V43.4678L38.8184 44.3955L37.9883 43.5654V43.0283C38.0534 43.0609 38.1185 43.0771 38.1836 43.0771H38.4766H39.1602H39.4531L39.6973 43.0283ZM35.1562 35.3623H35.1074H35.0586H35.0098H34.9609H34.9121L34.8633 35.4111V34.874C34.8633 33.8324 35.2295 32.9453 35.9619 32.2129C36.6943 31.4805 37.5814 31.1143 38.623 31.1143H39.0137C40.0228 31.1143 40.8936 31.4805 41.626 32.2129C42.3584 32.9453 42.7246 33.8324 42.7246 34.874V35.3623H42.6758C42.1224 35.2321 41.7318 34.9066 41.5039 34.3857L41.2109 33.6533C41.1784 33.4906 41.1051 33.3522 40.9912 33.2383C40.8773 33.1243 40.7552 33.0511 40.625 33.0186C40.4622 32.986 40.3076 33.0023 40.1611 33.0674C40.0146 33.1325 39.8926 33.2301 39.7949 33.3604C39.0788 34.3369 38.1185 34.9066 36.9141 35.0693L35.1562 35.3623ZM43.3105 38.5361V37.4619C43.3757 37.527 43.4326 37.6084 43.4814 37.7061C43.5303 37.8037 43.5547 37.9014 43.5547 37.999C43.5547 38.1292 43.5303 38.235 43.4814 38.3164C43.4326 38.3978 43.3757 38.471 43.3105 38.5361ZM44.6777 14.4639C45.8171 16.2542 46.7041 18.1585 47.3389 20.1768C47.9736 22.195 48.3236 24.2783 48.3887 26.4268H39.7461C39.7135 24.6364 39.5752 22.8949 39.3311 21.2021C39.0869 19.5094 38.737 17.8818 38.2812 16.3193C39.4857 16.0589 40.625 15.7822 41.6992 15.4893C42.7734 15.1963 43.7663 14.8545 44.6777 14.4639ZM38.1348 26.4268H30.0781C29.5247 25.8083 28.8818 25.3118 28.1494 24.9375C27.417 24.5632 26.6276 24.3434 25.7812 24.2783V17.4912C27.7344 17.4912 29.6305 17.4098 31.4697 17.2471C33.3089 17.0843 35.0586 16.8727 36.7188 16.6123C37.1745 18.1097 37.5163 19.6803 37.7441 21.3242C37.972 22.9681 38.1022 24.6689 38.1348 26.4268ZM31.2012 34.6299C31.2012 34.8903 31.1279 35.11 30.9814 35.2891C30.835 35.4681 30.6641 35.5739 30.4688 35.6064V33.6533C30.6641 33.7184 30.835 33.8405 30.9814 34.0195C31.1279 34.1986 31.2012 34.402 31.2012 34.6299ZM25.7812 3.81934C27.3438 3.9821 28.8493 4.63314 30.2979 5.77246C31.7464 6.91179 33.0404 8.47429 34.1797 10.46C34.5703 11.1761 34.9447 11.9167 35.3027 12.6816C35.6608 13.4466 35.9701 14.236 36.2305 15.0498C34.668 15.3428 32.9997 15.5625 31.2256 15.709C29.4515 15.8555 27.6367 15.9287 25.7812 15.9287V3.81934ZM25.293 25.8408C26.6276 25.8408 27.7751 26.321 28.7354 27.2812C29.6956 28.2415 30.1758 29.389 30.1758 30.7236V31.7002H30.127V31.6514H30.0781L30.0293 31.6025H29.9805V31.5537H29.9316H29.8828H29.834C29.0853 31.3584 28.5726 30.9271 28.2959 30.2598C28.0192 29.5924 27.8809 29.2425 27.8809 29.21C27.8483 29.0798 27.7751 28.9577 27.6611 28.8438C27.5472 28.7298 27.4089 28.6566 27.2461 28.624C27.0833 28.5915 26.9368 28.6077 26.8066 28.6729C26.6764 28.738 26.5625 28.8193 26.4648 28.917C25.5208 30.2191 24.292 30.9759 22.7783 31.1875C21.2646 31.3991 20.4915 31.5049 20.459 31.5049H20.4102H20.3613C20.3613 31.5374 20.3451 31.5537 20.3125 31.5537H20.2637H20.2148H20.166V31.6025H20.1172H20.0684V31.6514H20.0195L19.9707 31.7002H19.9219V30.7236C19.9219 29.389 20.402 28.2415 21.3623 27.2812C22.3226 26.321 23.4701 25.8408 24.8047 25.8408H25.293ZM11.8652 26.4268C11.8978 24.6689 12.028 22.9681 12.2559 21.3242C12.4837 19.6803 12.8255 18.1097 13.2812 16.6123C14.9414 16.8727 16.6911 17.0843 18.5303 17.2471C20.3695 17.4098 22.2656 17.4912 24.2188 17.4912V24.3271C23.3724 24.3923 22.5911 24.612 21.875 24.9863C21.1589 25.3607 20.5404 25.8408 20.0195 26.4268H19.9219H11.8652ZM19.6777 33.6533V35.6553C19.4499 35.5902 19.2627 35.4681 19.1162 35.2891C18.9697 35.11 18.8965 34.8903 18.8965 34.6299C18.8965 34.402 18.9697 34.1986 19.1162 34.0195C19.2627 33.8405 19.4499 33.7184 19.6777 33.6533ZM24.2188 3.81934V15.9287C22.3633 15.9287 20.5566 15.8473 18.7988 15.6846C17.041 15.5218 15.3646 15.3102 13.7695 15.0498C14.0299 14.236 14.3392 13.4466 14.6973 12.6816C15.0553 11.9167 15.4297 11.1761 15.8203 10.46C16.9596 8.47429 18.2536 6.91179 19.7021 5.77246C21.1507 4.63314 22.6562 3.9821 24.2188 3.81934ZM18.5547 4.69824C17.7734 5.31673 17.041 6.04102 16.3574 6.87109C15.6738 7.70117 15.0391 8.63704 14.4531 9.67871C13.9974 10.46 13.5824 11.2738 13.208 12.1201C12.8337 12.9665 12.4837 13.8617 12.1582 14.8057C11.0514 14.5778 10.0016 14.3255 9.00879 14.0488C8.01595 13.7721 7.09635 13.471 6.25 13.1455C7.77995 11.1273 9.59473 9.39388 11.6943 7.94531C13.7939 6.49675 16.0807 5.41439 18.5547 4.69824ZM5.32227 14.4639C6.23372 14.8545 7.22656 15.1963 8.30078 15.4893C9.375 15.7822 10.5143 16.0589 11.7188 16.3193C11.263 17.8818 10.9131 19.5094 10.6689 21.2021C10.4248 22.8949 10.2865 24.6364 10.2539 26.4268H1.61133C1.67643 24.2132 2.03451 22.0973 2.68555 20.0791C3.33659 18.0609 4.21549 16.1891 5.32227 14.4639ZM10.4492 43.0283C10.5143 43.0609 10.5794 43.0771 10.6445 43.0771H10.9375H11.6211H11.9141L12.1582 43.0283V43.4678L11.2305 44.3955L10.4492 43.5654V43.0283ZM11.6211 41.5146H10.9375C10.2214 41.5146 9.61914 41.2624 9.13086 40.7578C8.64258 40.2533 8.39844 39.6592 8.39844 38.9756V36.876C8.91927 36.8109 9.57845 36.6644 10.376 36.4365C11.1735 36.2087 11.9303 35.8018 12.6465 35.2158C12.8092 35.5088 13.0127 35.7855 13.2568 36.0459C13.501 36.3063 13.8021 36.5179 14.1602 36.6807V38.9756C14.1602 39.6592 13.916 40.2533 13.4277 40.7578C12.9395 41.2624 12.3372 41.5146 11.6211 41.5146ZM13.6719 33.6533C13.6393 33.4906 13.5661 33.3522 13.4521 33.2383C13.3382 33.1243 13.1999 33.0511 13.0371 33.0186C12.9069 32.986 12.7686 33.0023 12.6221 33.0674C12.4756 33.1325 12.3535 33.2301 12.2559 33.3604C11.5397 34.3369 10.5794 34.9066 9.375 35.0693L7.61719 35.3623H7.51953H7.4707H7.42188H7.37305L7.32422 35.4111V34.874C7.32422 33.8324 7.69043 32.9453 8.42285 32.2129C9.15527 31.4805 10.0423 31.1143 11.084 31.1143H11.4746C12.4837 31.1143 13.3545 31.4805 14.0869 32.2129C14.8193 32.9453 15.1855 33.8324 15.1855 34.874V35.3623H15.1367C14.5833 35.2321 14.1927 34.9066 13.9648 34.3857L13.6719 33.6533ZM1.61133 27.9893H10.2539C10.2539 28.2497 10.262 28.5182 10.2783 28.7949C10.2946 29.0716 10.3027 29.3402 10.3027 29.6006C9.0332 29.7959 7.95898 30.39 7.08008 31.3828C6.20117 32.3757 5.76172 33.5394 5.76172 34.874V36.29C5.5013 36.4854 5.29785 36.7295 5.15137 37.0225C5.00488 37.3154 4.93164 37.641 4.93164 37.999C4.93164 38.585 5.13509 39.0977 5.54199 39.5371C5.94889 39.9766 6.44531 40.2126 7.03125 40.2451C7.16146 40.7334 7.38932 41.1729 7.71484 41.5635C8.04036 41.9541 8.41471 42.2633 8.83789 42.4912V42.9307L8.00781 43.2725C6.9987 42.2308 6.11979 41.124 5.37109 39.9521C4.58984 38.7477 3.93066 37.5026 3.39355 36.2168C2.85645 34.931 2.42513 33.5882 2.09961 32.1885C1.80664 30.8213 1.64388 29.4215 1.61133 27.9893ZM6.83594 37.4619V38.5361C6.73828 38.5036 6.6569 38.4385 6.5918 38.3408C6.52669 38.2432 6.49414 38.1292 6.49414 37.999C6.49414 37.9014 6.52669 37.8037 6.5918 37.7061C6.6569 37.6084 6.73828 37.527 6.83594 37.4619ZM14.5996 47.8623V50.5967H4.3457V48.5947C4.3457 47.488 4.63053 46.7311 5.2002 46.3242C5.76986 45.9173 6.07096 45.7139 6.10352 45.7139H6.15234L9.13086 44.542L10.7422 46.0557C10.8073 46.1533 10.8887 46.2184 10.9863 46.251C11.084 46.2835 11.1816 46.2998 11.2793 46.2998C11.377 46.2998 11.4746 46.2754 11.5723 46.2266C11.6699 46.1777 11.7513 46.1208 11.8164 46.0557L13.3301 44.4932L15.1855 45.2744C15.0228 45.6325 14.8844 46.0231 14.7705 46.4463C14.6566 46.8695 14.5996 47.3415 14.5996 47.8623ZM22.2168 40.9775L18.0176 42.5889C17.7572 42.6865 17.4561 42.8411 17.1143 43.0527C16.7725 43.2643 16.4388 43.5492 16.1133 43.9072L13.7207 42.9795V42.4912C14.1439 42.2633 14.5182 41.9541 14.8438 41.5635C15.1693 41.1729 15.3971 40.7334 15.5273 40.2451C16.1133 40.18 16.6097 39.9359 17.0166 39.5127C17.4235 39.0895 17.627 38.585 17.627 37.999C17.627 37.6735 17.5456 37.3561 17.3828 37.0469C17.2201 36.7376 17.0247 36.4854 16.7969 36.29V34.874C16.7969 33.4743 16.3249 32.2699 15.3809 31.2607C14.4368 30.2516 13.2812 29.6982 11.9141 29.6006C11.8815 29.3076 11.8652 29.0309 11.8652 28.7705V27.9893H18.9941C18.7988 28.4124 18.6442 28.8519 18.5303 29.3076C18.4163 29.7633 18.3594 30.2354 18.3594 30.7236V32.5791C18.0339 32.807 17.7816 33.0999 17.6025 33.458C17.4235 33.8161 17.334 34.2067 17.334 34.6299C17.334 35.346 17.5781 35.9564 18.0664 36.4609C18.5547 36.9655 19.1569 37.234 19.873 37.2666C20.0684 37.8851 20.3695 38.4466 20.7764 38.9512C21.1833 39.4557 21.6634 39.8545 22.2168 40.1475V40.9775ZM15.7715 38.5361V37.4619C15.8366 37.527 15.8936 37.6084 15.9424 37.7061C15.9912 37.8037 16.0156 37.9014 16.0156 37.999C16.0156 38.1292 15.9912 38.235 15.9424 38.3164C15.8936 38.3978 15.8366 38.471 15.7715 38.5361ZM26.3184 41.5146V41.5635L25.0488 42.9307L23.7793 41.71V40.7334C23.9095 40.7334 24.0479 40.7415 24.1943 40.7578C24.3408 40.7741 24.4792 40.7822 24.6094 40.7822H25.5371C25.6673 40.7822 25.7975 40.7741 25.9277 40.7578C26.0579 40.7415 26.1882 40.7334 26.3184 40.7334V41.5146ZM25.5371 39.2197H24.6094C23.6979 39.2197 22.9085 38.8861 22.2412 38.2188C21.5739 37.5514 21.2402 36.762 21.2402 35.8506V33.0674C21.8913 33.0023 22.7539 32.8232 23.8281 32.5303C24.9023 32.2373 25.8952 31.6839 26.8066 30.8701C27.002 31.2282 27.2705 31.5944 27.6123 31.9688C27.9541 32.3431 28.3691 32.6442 28.8574 32.8721V35.8506C28.8574 36.762 28.5319 37.5514 27.8809 38.2188C27.2298 38.8861 26.4486 39.2197 25.5371 39.2197ZM33.9355 43.9072C33.61 43.5817 33.2682 43.305 32.9102 43.0771C32.5521 42.8493 32.2428 42.7028 31.9824 42.6377L27.9297 40.9775V40.1475C28.4831 39.8545 28.9632 39.4557 29.3701 38.9512C29.777 38.4466 30.0781 37.8851 30.2734 37.2666C30.957 37.234 31.543 36.9655 32.0312 36.4609C32.5195 35.9564 32.7637 35.346 32.7637 34.6299C32.7637 34.2393 32.6742 33.8568 32.4951 33.4824C32.3161 33.1081 32.0638 32.807 31.7383 32.5791V30.7236C31.7383 30.2354 31.6895 29.7633 31.5918 29.3076C31.4941 28.8519 31.3477 28.4124 31.1523 27.9893H38.1348V28.8193L38.0859 29.6006C36.7513 29.7308 35.6201 30.3005 34.6924 31.3096C33.7646 32.3187 33.3008 33.5068 33.3008 34.874V36.29C33.0404 36.4854 32.8369 36.7295 32.6904 37.0225C32.5439 37.3154 32.4707 37.641 32.4707 37.999C32.4707 38.585 32.6742 39.0977 33.0811 39.5371C33.488 39.9766 33.9844 40.2126 34.5703 40.2451C34.7331 40.7334 34.9691 41.1729 35.2783 41.5635C35.5876 41.9541 35.9538 42.2633 36.377 42.4912V42.9795L33.9355 43.9072ZM34.375 37.4619V38.5361C34.2773 38.5036 34.196 38.4385 34.1309 38.3408C34.0658 38.2432 34.0332 38.1292 34.0332 37.999C34.0332 37.9014 34.0658 37.8037 34.1309 37.7061C34.196 37.6084 34.2773 37.527 34.375 37.4619ZM45.7031 50.5967H35.4004V47.8623C35.4004 47.3415 35.3516 46.8695 35.2539 46.4463C35.1562 46.0231 35.0098 45.6325 34.8145 45.2744L36.6699 44.542L38.2812 46.0557C38.3464 46.1533 38.4277 46.2184 38.5254 46.251C38.623 46.2835 38.7207 46.2998 38.8184 46.2998C38.916 46.2998 39.0137 46.2754 39.1113 46.2266C39.209 46.1777 39.3066 46.1208 39.4043 46.0557L40.8691 44.4932L43.8477 45.7139H43.8965C43.929 45.7139 44.2383 45.9173 44.8242 46.3242C45.4102 46.7311 45.7031 47.488 45.7031 48.5947V50.5967Z" fill="#FBD40E"/>
</g>
<defs>
<clipPath id="clip0_441_415">
<rect width="50" height="52" fill="white" transform="matrix(1 0 0 -1 0 52.5)"/>
</clipPath>
</defs>
</svg>
