<svg width="74" height="65" viewBox="0 0 74 65" fill="none" xmlns="http://www.w3.org/2000/svg">
<path fill-rule="evenodd" clip-rule="evenodd" d="M3.28172 4.50027H25.498L12.4039 9.0501H5.22711V39.3977H69.159V9.0501H62.0012L48.8877 4.50027H71.1161C72.5534 4.50027 73.7242 5.67103 73.7242 7.10829V46.016C73.7242 47.4533 72.5566 48.6272 71.1161 48.6272H3.28139C1.84097 48.6272 0.654297 47.4565 0.654297 46.016V7.10829C0.654297 5.67103 1.84122 4.50027 3.28172 4.50027ZM25.8026 33.554L26.5387 34.1822L26.1611 35.5116L25.7836 36.8441H23.3722L22.9946 35.5116L22.6171 34.1822L23.3532 33.554L23.3722 16.0145C23.3722 15.5101 23.6768 15.0437 24.1813 14.8628L36.7896 10.4748C37.2402 10.1671 37.4178 9.61184 37.2402 9.10736C37.0593 8.60289 36.5739 8.27929 36.0345 8.31416L23.4261 12.7244C22.4013 13.067 21.6272 13.8729 21.2845 14.866L11.9657 11.6265L24.5741 7.2386L37.1889 2.8284L49.7972 7.23543L62.4056 11.6234L49.7972 16.0145L37.1889 20.4024L26.4333 16.6617L25.8051 16.8806V18.8573L37.1894 22.8328L56.3654 16.1604V27.6365C56.3654 28.0331 56.0767 28.3726 55.6801 28.4455C50.5719 29.3275 44.1504 29.8479 37.1855 29.8479C33.1561 29.8479 29.3075 29.6671 25.7979 29.3625L25.8026 33.554ZM21.091 28.8233C20.2629 28.6996 19.4728 28.5695 18.7177 28.4458C18.3211 28.3728 18.0324 28.0301 18.0324 27.6367V16.1574L21.0909 17.2171L21.091 28.8233ZM21.5764 62.1916H52.8223V58.7365C52.8223 56.8296 51.2581 55.2655 49.3513 55.2655H42.2093V50.9124H32.1709V55.2655H25.0289C23.122 55.2655 21.5737 56.8297 21.5737 58.7365L21.5764 62.1916Z" fill="white"/>
</svg>
