<svg width="65" height="67" viewBox="0 0 65 67" fill="none" xmlns="http://www.w3.org/2000/svg">
<path fill-rule="evenodd" clip-rule="evenodd" d="M10.8524 20.9404L11.3051 16.4956L12.4904 17.6809L13.6757 16.4956L14.125 20.9404C13.7245 21.7479 13.1807 22.5425 12.4904 23.1123C11.8001 22.5425 11.2561 21.748 10.8524 20.9404ZM12.4903 12.7182C18.1074 12.6336 19.488 0.272467 12.4903 0.155762C5.49583 0.276243 6.86995 12.634 12.4903 12.7182ZM38.7065 20.2761L16.0982 13.8058C16.1405 14.2748 16.1633 14.7599 16.1633 15.2517C16.1633 19.309 14.6329 22.7704 12.4902 24.1154C10.3476 22.7706 8.8172 19.3092 8.8172 15.2517C8.8172 14.76 8.83999 14.2748 8.88232 13.8058C5.83449 14.7209 4.75988 15.0302 2.62376 16.0038C1.60451 16.4662 0.982553 17.4105 0.956544 18.5242L0.455078 39.1785H3.89046L4.2226 27.5863L4.86409 37.2803L6.91877 66.8443H11.5427V41.3183H13.4411V66.8443H18.065L20.1197 37.2837L21.1682 21.9436L38.7065 23.2885L38.7065 20.2761ZM13.9558 15.066L12.4905 13.6007L11.0252 15.066L12.4905 16.5313L13.9558 15.066ZM25.2553 66.8439H34.3667L34.3634 52.064H25.2554L25.2553 66.8439ZM37.2776 66.8439H46.389L46.3857 40.1134H37.2777L37.2776 66.8439ZM53.8523 21.1188L43.1062 31.8682H49.2997V66.8439H58.411V31.8682H64.6045L53.8523 21.1188Z" fill="white"/>
</svg>
