<svg width="68" height="65" viewBox="0 0 68 65" fill="none" xmlns="http://www.w3.org/2000/svg">
<path fill-rule="evenodd" clip-rule="evenodd" d="M31.345 7.96335L11.3329 22.934C10.6684 23.4337 10.284 24.1971 10.284 25.0291V28.3461L4.13046 28.3434C2.74931 28.3434 1.5768 27.4977 1.1402 26.1879C0.70361 24.8781 1.13746 23.497 2.24129 22.6704L29.4284 2.33705C30.4773 1.55172 31.6938 1.15906 32.9129 1.15906C34.1293 1.15906 35.3484 1.55172 36.3974 2.33705L63.5816 22.6732C64.6855 23.4998 65.1193 24.8809 64.6827 26.1907C64.2462 27.5005 63.0736 28.3462 61.6925 28.3462H55.539V25.0292C55.539 24.1972 55.1573 23.4338 54.49 22.934L34.4751 7.96342C33.5443 7.26597 32.2757 7.26597 31.3421 7.96342L31.345 7.96335ZM38.5776 49.7471C38.6353 50.0766 38.7314 50.3896 38.8577 50.6834V55.1016L15.328 55.1043C13.5982 55.1043 12.1867 53.6929 12.1867 51.963V25.029C12.1867 24.7983 12.2856 24.5979 12.4723 24.4578L32.4844 9.4872C32.7398 9.29499 33.0803 9.29499 33.3384 9.4872L53.3533 24.4578C53.54 24.5979 53.6389 24.7956 53.6389 25.029V38.451H49.877C48.7512 38.451 47.6776 38.8986 46.884 39.6948C46.0877 40.4911 45.6429 41.562 45.6429 42.6878V42.762H44.896C43.7207 37.6904 39.4125 33.8184 34.1185 33.3053L35.0905 43.0122L32.924 46.1124L30.7575 43.0122L31.7296 33.3032C25.8616 33.8661 21.1995 38.5505 20.6694 44.4294V47.7189H38.229L38.586 49.7509L38.5776 49.7471ZM27.0529 26.5661C27.0529 29.8008 29.6752 32.423 32.9098 32.423C36.1444 32.423 38.7667 29.8007 38.7667 26.5661C38.7667 23.3315 36.1444 20.7091 32.9098 20.7091C29.6752 20.7091 27.0529 23.3315 27.0529 26.5661ZM57.7926 53.2892C57.6526 54.2421 56.8288 54.9724 55.8403 54.9724H51.5183C50.5271 54.9724 49.7061 54.242 49.5661 53.2892H42.8744C42.1193 53.2892 41.3971 53.097 40.7628 52.751V61.6285C40.7628 62.8559 41.7678 63.8609 42.9952 63.8609H64.3689C65.5964 63.8609 66.6014 62.8559 66.6014 61.6285V52.751C65.9671 53.0943 65.2449 53.2892 64.4898 53.2892H57.7926ZM55.8403 53.0695C55.8815 53.0695 55.9117 53.0366 55.9117 52.9982V51.6801C55.9117 51.639 55.8788 51.6088 55.8403 51.6088H51.5183C51.4772 51.6088 51.447 51.6417 51.447 51.6801V52.9982C51.447 53.0394 51.4799 53.0695 51.5183 53.0695H55.8403ZM67.4579 46.2653L66.906 49.4203C66.7055 50.5708 65.6539 51.3864 64.4869 51.3864H57.7952C57.6551 50.4335 56.8314 49.7032 55.8429 49.7032H51.5209C50.5296 49.7032 49.7086 50.4336 49.5686 51.3864H42.8769C41.7099 51.3864 40.6583 50.5708 40.4578 49.4203L39.9059 46.2653C39.8345 45.8534 39.9361 45.4717 40.2052 45.1505C40.4743 44.8319 40.834 44.6644 41.2514 44.6644H47.5504V42.6874C47.5504 42.0449 47.814 41.4627 48.2369 41.0398C48.6597 40.617 49.2419 40.3534 49.8844 40.3534H57.4875C58.13 40.3534 58.7122 40.617 59.135 41.0398C59.5579 41.4627 59.8215 42.0448 59.8215 42.6874V44.6644H66.1205C66.5379 44.6644 66.8976 44.8319 67.1667 45.1505C67.4358 45.469 67.5374 45.8534 67.466 46.2653H67.4579ZM57.9105 44.6644V42.6874C57.9105 42.5721 57.8611 42.4623 57.7815 42.3854C57.7018 42.3057 57.5947 42.2563 57.4794 42.2563H49.8764C49.761 42.2563 49.6512 42.3057 49.5743 42.3854C49.4947 42.465 49.4453 42.5721 49.4453 42.6874V44.6644H57.9105Z" fill="white"/>
</svg>
