<svg width="105" height="95" viewBox="0 0 105 95" fill="none" xmlns="http://www.w3.org/2000/svg">
<rect x="44" y="0.648682" width="60" height="60" rx="30" fill="#FBD40E"/>
<path d="M44.817 29.0135V30.9176H35.7407L34.4713 34.7259L33.2019 38.5976L31.9325 38.8514C31.2555 39.0207 30.6208 39.2005 30.0284 39.3909C29.436 39.5814 28.8647 39.8247 28.3147 40.1209C27.2568 40.6286 26.2095 41.3374 25.1729 42.2471C24.1362 43.1569 23.2793 44.0983 22.6023 45.0716C22.1368 45.7063 21.6926 46.4891 21.2694 47.42C20.8463 48.3509 20.5501 49.176 20.3808 49.8953C20.2116 50.4877 20.1058 50.9743 20.0635 51.3552C20.0212 51.736 20 52.5399 20 53.767C20 54.9941 20.0212 55.7981 20.0635 56.1789C20.1058 56.5598 20.2116 57.0464 20.3808 57.6388C21.1425 60.4738 22.5811 62.8857 24.6968 64.8744C26.8125 66.8632 29.3302 68.1537 32.2498 68.7461C33.0115 68.9154 33.9635 69 35.106 69C36.2485 69 37.2217 68.9365 38.0257 68.8096C40.7337 68.3441 43.1562 67.1911 45.293 65.3504C47.4299 63.5098 48.9426 61.2566 49.8312 58.5908C50.0428 57.9984 50.212 57.3108 50.339 56.528C50.4659 55.7452 50.5294 55.0999 50.5294 54.5922V53.767H54.3376V54.6556C54.3376 54.9095 54.3588 55.248 54.4011 55.6712C54.4434 56.0943 54.5069 56.4963 54.5915 56.8771C55.2262 59.9237 56.6649 62.5366 58.9075 64.7157C61.1501 66.8949 63.8159 68.2595 66.9048 68.8096C67.6665 68.9365 68.6185 69 69.761 69C70.9035 69 71.8555 68.9154 72.6172 68.7461C74.1828 68.4499 75.6214 67.9422 76.9332 67.2228C78.2449 66.5035 79.472 65.5726 80.6145 64.4301C81.503 63.5415 82.2859 62.5048 82.9629 61.3201C83.6399 60.1353 84.1477 58.9082 84.4862 57.6388C84.6554 57.0464 84.7612 56.5598 84.8035 56.1789C84.8458 55.7981 84.867 54.9941 84.867 53.767C84.867 52.5399 84.8458 51.736 84.8035 51.3552C84.7612 50.9743 84.6554 50.4877 84.4862 49.8953C83.8515 47.4835 82.6984 45.3572 81.027 43.5165C79.3556 41.6759 77.3563 40.3324 75.029 39.4861C74.8175 39.4015 74.5001 39.2957 74.077 39.1688C73.6538 39.0419 73.273 38.9361 72.9345 38.8514L71.6651 38.5976L70.3957 34.7259L69.1263 30.9176H60.05V27.1094H44.817V29.0135ZM56.2417 32.8217V34.7259H48.6253V30.9176H56.2417V32.8217ZM44.817 36.63V38.5341H60.05V34.7259H66.2066L66.8413 36.6934L67.476 38.5976L66.397 38.8514C63.8159 39.3169 61.4886 40.4699 59.4153 42.3106C57.3419 44.1512 55.8821 46.3621 55.0358 48.9433L54.7184 49.8953H50.1486L49.8312 48.9433C48.9849 46.3621 47.5251 44.1512 45.4517 42.3106C43.3784 40.4699 41.0511 39.3169 38.47 38.8514L37.391 38.5976L38.0257 36.6934L38.6604 34.7259H44.817V36.63ZM37.3275 42.5962C38.343 42.7655 39.3903 43.1357 40.4693 43.7069C41.5483 44.2782 42.4898 44.9658 43.2937 45.7697C44.3939 46.8699 45.219 48.0864 45.7691 49.4193C46.3192 50.7522 46.5942 52.2014 46.5942 53.767C46.5942 54.9095 46.4461 55.9885 46.1499 57.004C45.8537 58.0196 45.4094 58.9928 44.817 59.9237C43.7169 61.5739 42.3417 62.8433 40.6914 63.7319C39.0412 64.6205 37.2429 65.0648 35.2964 65.0648C33.6885 65.0648 32.1969 64.7792 30.8217 64.208C29.4465 63.6367 28.1877 62.7587 27.0452 61.5739C25.9874 60.4738 25.194 59.2784 24.6651 57.9878C24.1362 56.6973 23.8717 55.2903 23.8717 53.767C23.8717 52.2437 24.1362 50.8368 24.6651 49.5462C25.194 48.2557 25.9874 47.0603 27.0452 45.9602C28.3993 44.5638 29.9437 43.58 31.6786 43.0088C33.4135 42.4375 35.2964 42.3 37.3275 42.5962ZM71.6016 42.5962C73.8019 42.9347 75.7695 43.9397 77.5044 45.6111C79.2393 47.2825 80.3394 49.2395 80.8049 51.4821C80.9318 52.0745 80.9953 52.8361 80.9953 53.767C80.9953 54.6979 80.9318 55.4596 80.8049 56.052C80.3394 58.2523 79.2604 60.1776 77.5679 61.8278C75.8753 63.4781 73.8866 64.5147 71.6016 64.9379C71.0939 65.0225 70.3851 65.0648 69.4754 65.0648C68.5656 65.0648 67.8357 65.0013 67.2856 64.8744C65.0853 64.409 63.1812 63.3723 61.5733 61.7643C59.9653 60.1564 58.9287 58.2523 58.4632 56.052C58.4209 55.7981 58.3786 55.449 58.3363 55.0047C58.294 54.5604 58.2728 54.1479 58.2728 53.767C58.2728 52.2014 58.5584 50.7416 59.1296 49.3876C59.7009 48.0335 60.5366 46.8064 61.6367 45.7063C62.9908 44.3945 64.5141 43.4742 66.2066 42.9453C67.8992 42.4164 69.6975 42.3 71.6016 42.5962ZM33.2019 46.4044C31.8902 46.7853 30.7583 47.4623 29.8062 48.4355C28.8542 49.4087 28.2089 50.53 27.8704 51.7995C27.828 52.0533 27.7857 52.3813 27.7434 52.7832C27.7011 53.1852 27.6799 53.6401 27.6799 54.1479V55.6712H31.4247L31.5517 54.3383C31.594 53.5766 31.6786 52.9737 31.8055 52.5294C31.9325 52.0851 32.1652 51.6937 32.5037 51.3552C32.9269 50.8897 33.4558 50.5406 34.0905 50.3079C34.7252 50.0752 35.508 49.9588 36.4389 49.9588H37.2005V46.1506H35.6138C35.0214 46.1506 34.5348 46.1717 34.154 46.214C33.7731 46.2564 33.4558 46.3198 33.2019 46.4044ZM67.6665 48.0547V49.8953L68.9993 50.0223C69.8033 50.0646 70.4274 50.1598 70.8717 50.3079C71.316 50.456 71.7286 50.7205 72.1094 51.1013C72.5748 51.5667 72.9028 52.0851 73.0932 52.6563C73.2836 53.2275 73.3788 53.9575 73.3788 54.846V55.6712H77.187V54.1479C77.187 52.8361 77.0178 51.7466 76.6793 50.8791C76.3408 50.0117 75.7695 49.176 74.9656 48.372C74.1616 47.5681 73.3259 46.9968 72.4585 46.6583C71.5911 46.3198 70.5015 46.1506 69.1897 46.1506H67.6665V48.0547Z" fill="#2D2E2E"/>
</svg>
